<?xml version="1.0" encoding="utf-8"?>
<!-- Generator: Adobe Illustrator 21.0.2, SVG Export Plug-In . SVG Version: 6.00 Build 0)  -->
<svg version="1.1" id="Calque_1" xmlns="http://www.w3.org/2000/svg" xmlns:xlink="http://www.w3.org/1999/xlink" x="0px" y="0px"
	 viewBox="0 0 46 33.8" style="enable-background:new 0 0 46 33.8;" xml:space="preserve">
<style type="text/css">
	.st0{fill:#023351;}
</style>
<title>dropDown</title>
<desc>Created with Sketch.</desc>
<g>
	<g transform="translate(-861.000000, -222.000000)">
		<g transform="translate(861.000000, 222.000000)">
			<path class="st0" d="M5.9,8l19,15c1.2,1,1.2,2.5,0,3.5l0,0c-1.2,1-3.2,1-4.4,0l-19-15c-1.2-1-1.2-2.5,0-3.5l0,0
				C2.7,7.1,4.7,7.1,5.9,8z"/>
			<path class="st0" d="M21.2,23.1l19-15c1.2-1,3.2-1,4.4,0l0,0c1.2,1,1.2,2.5,0,3.5l-19,15c-1.2,1-3.2,1-4.4,0l0,0
				C20,25.6,20,24,21.2,23.1z"/>
		</g>
	</g>
</g>
</svg>
