<?xml version="1.0" encoding="utf-8"?>
<!-- Generator: Adobe Illustrator 18.1.1, SVG Export Plug-In . SVG Version: 6.00 Build 0)  -->
<svg version="1.1" xmlns="http://www.w3.org/2000/svg" xmlns:xlink="http://www.w3.org/1999/xlink" x="0px" y="0px"
	 viewBox="-746 1109.9 491.1 605.5" enable-background="new -746 1109.9 491.1 605.5" xml:space="preserve">
<g id="Fond_bleu" display="none">
	<rect x="-746" y="1109.9" display="inline" fill="#033352" width="491.1" height="605.5"/>
</g>
<g id="Calque_1">
</g>
<g id="_x30_">
	<g id="LWPOLYLINE_270_">
		
			<line fill="none" stroke="#FFFFFF" stroke-linecap="round" stroke-linejoin="round" stroke-miterlimit="10" x1="-719.7" y1="1706.1" x2="-389.4" y2="1706.1"/>
	</g>
	<g id="LWPOLYLINE_269_">
		<path fill="none" stroke="#FFFFFF" stroke-linecap="round" stroke-linejoin="round" stroke-miterlimit="10" d="M-389.4,1706.1
			c1.1,0,2-0.9,2.1-2l0-45.7c-110.8,4.4-221.6,7.4-332.4,9"/>
	</g>
	<g id="LWPOLYLINE_268_">
		
			<line fill="none" stroke="#FFFFFF" stroke-linecap="round" stroke-linejoin="round" stroke-miterlimit="10" x1="-719.7" y1="1670.5" x2="-719.7" y2="1706.1"/>
	</g>
	<g id="LWPOLYLINE_267_">
		
			<line fill="none" stroke="#FFFFFF" stroke-linecap="round" stroke-linejoin="round" stroke-miterlimit="10" x1="-719.7" y1="1670.5" x2="-719.7" y2="1664.6"/>
	</g>
	<g id="LWPOLYLINE_266_">
		<path fill="none" stroke="#FFFFFF" stroke-linecap="round" stroke-linejoin="round" stroke-miterlimit="10" d="M-719.7,1661.8
			c32.9-0.9,65.7-1.3,98.6-1"/>
	</g>
	<g id="LWPOLYLINE_265_">
		<path fill="none" stroke="#FFFFFF" stroke-linecap="round" stroke-linejoin="round" stroke-miterlimit="10" d="M-621.1,1660.8
			c-1.7-6.5-4.2-12.7-7.6-18.5"/>
	</g>
	<g id="LWPOLYLINE_264_">
		
			<line fill="none" stroke="#FFFFFF" stroke-linecap="round" stroke-linejoin="round" stroke-miterlimit="10" x1="-628.7" y1="1642.3" x2="-611.7" y2="1641.9"/>
	</g>
	<g id="LWPOLYLINE_263_">
		
			<line fill="none" stroke="#FFFFFF" stroke-linecap="round" stroke-linejoin="round" stroke-miterlimit="10" x1="-482.8" y1="1657.9" x2="-387.3" y2="1658.4"/>
	</g>
	<g id="LWPOLYLINE_262_">
		<path fill="none" stroke="#FFFFFF" stroke-linecap="round" stroke-linejoin="round" stroke-miterlimit="10" d="M-621.1,1660.8
			c46.1,0.3,92.3-0.7,138.3-2.9"/>
	</g>
	<g id="LWPOLYLINE_261_">
		
			<line fill="none" stroke="#FFFFFF" stroke-linecap="round" stroke-linejoin="round" stroke-miterlimit="10" x1="-387.3" y1="1658.4" x2="-264.9" y2="1640.1"/>
	</g>
	<g id="LWPOLYLINE_260_">
		
			<line fill="none" stroke="#FFFFFF" stroke-linecap="round" stroke-linejoin="round" stroke-miterlimit="10" x1="-264.3" y1="1644" x2="-264.9" y2="1640.1"/>
	</g>
	<g id="LWPOLYLINE_259_">
		
			<line fill="none" stroke="#FFFFFF" stroke-linecap="round" stroke-linejoin="round" stroke-miterlimit="10" x1="-387.3" y1="1662.4" x2="-264.3" y2="1644"/>
	</g>
	<g id="LWPOLYLINE_258_">
		
			<line fill="none" stroke="#FFFFFF" stroke-linecap="round" stroke-linejoin="round" stroke-miterlimit="10" x1="-264.3" y1="1644" x2="-388.2" y2="1701.8"/>
	</g>
	<g id="LWPOLYLINE_257_">
		<path fill="none" stroke="#FFFFFF" stroke-linecap="round" stroke-linejoin="round" stroke-miterlimit="10" d="M-264.6,1642.1
			c-14.2-93-35.6-184.7-63.9-274.5c-15.7-54.9-41-106.5-74.8-152.4c-35.1-43.6-86.3-71.2-142.1-76.6"/>
	</g>
	<g id="LWPOLYLINE_256_">
		<path fill="none" stroke="#FFFFFF" stroke-linecap="round" stroke-linejoin="round" stroke-miterlimit="10" d="M-482.8,1657.9
			c-42.3-10-85.5-15.3-128.9-16"/>
	</g>
	<g id="LWPOLYLINE_255_">
		
			<line fill="none" stroke="#FFFFFF" stroke-linecap="round" stroke-linejoin="round" stroke-miterlimit="10" x1="-556.3" y1="1140.2" x2="-637.3" y2="1139.9"/>
	</g>
	<g id="LWPOLYLINE_254_">
		<path fill="none" stroke="#FFFFFF" stroke-linecap="round" stroke-linejoin="round" stroke-miterlimit="10" d="M-641.1,1140.2
			h-0.2c-10.4,19.7-19.3,40.1-26.5,61.2"/>
	</g>
	<g id="LWPOLYLINE_253_">
		<path fill="none" stroke="#FFFFFF" stroke-linecap="round" stroke-linejoin="round" stroke-miterlimit="10" d="M-668.5,1203.3
			c-6.4,19-11.5,38.4-15.1,58.1"/>
	</g>
	<g id="LWPOLYLINE_252_">
		<path fill="none" stroke="#FFFFFF" stroke-linecap="round" stroke-linejoin="round" stroke-miterlimit="10" d="M-684,1263.4
			c-1.4,7.5-2.5,15.1-3.5,22.7c-2.7,14.6-5,29.3-6.8,44"/>
	</g>
	<g id="LWPOLYLINE_251_">
		<path fill="none" stroke="#FFFFFF" stroke-linecap="round" stroke-linejoin="round" stroke-miterlimit="10" d="M-694.4,1332
			c-1.7,13.9-2.9,27.8-3.7,41.8c-1.1,18.3-2.1,36.6-3,54.9"/>
	</g>
	<g id="LWPOLYLINE_250_">
		<path fill="none" stroke="#FFFFFF" stroke-linecap="round" stroke-linejoin="round" stroke-miterlimit="10" d="M-701.3,1430.6
			c-1.6,32.9-3,65.8-4.1,98.7"/>
	</g>
	<g id="LWPOLYLINE_249_">
		
			<line fill="none" stroke="#FFFFFF" stroke-width="0.5" stroke-linecap="round" stroke-linejoin="round" stroke-miterlimit="10" x1="-556.3" y1="1142.6" x2="-633.5" y2="1142.6"/>
	</g>
	<g id="LWPOLYLINE_248_">
		
			<path fill="none" stroke="#FFFFFF" stroke-width="0.5" stroke-linecap="round" stroke-linejoin="round" stroke-miterlimit="10" d="
			M-641.3,1145.4c-8.6,16.6-16.1,33.8-22.5,51.4"/>
	</g>
	<g id="LWPOLYLINE_247_">
		
			<path fill="none" stroke="#FFFFFF" stroke-width="0.5" stroke-linecap="round" stroke-linejoin="round" stroke-miterlimit="10" d="
			M-667.6,1208.3c-5.3,16.1-9.5,32.5-12.8,49.1"/>
	</g>
	<g id="LWPOLYLINE_246_">
		
			<path fill="none" stroke="#FFFFFF" stroke-width="0.5" stroke-linecap="round" stroke-linejoin="round" stroke-miterlimit="10" d="
			M-682.4,1267.9c-1,6.2-2,12.3-2.7,18.6c-2.3,12.6-4.3,25.3-6,38"/>
	</g>
	<g id="LWPOLYLINE_245_">
		
			<path fill="none" stroke="#FFFFFF" stroke-width="0.5" stroke-linecap="round" stroke-linejoin="round" stroke-miterlimit="10" d="
			M-692.8,1338.7c-1.3,11.7-2.3,23.4-3,35.2c-1,16.3-1.9,32.6-2.7,48.9"/>
	</g>
	<g id="LWPOLYLINE_244_">
		
			<path fill="none" stroke="#FFFFFF" stroke-width="0.5" stroke-linecap="round" stroke-linejoin="round" stroke-miterlimit="10" d="
			M-699.2,1436.9c-1.4,29-2.6,58-3.6,87"/>
	</g>
	<g id="LWPOLYLINE_243_">
		<path fill="none" stroke="#FFFFFF" stroke-linecap="round" stroke-linejoin="round" stroke-miterlimit="10" d="M-705.4,1531.2
			c-1,29.6-1.7,59.3-2.2,89"/>
	</g>
	<g id="LWPOLYLINE_242_">
		
			<path fill="none" stroke="#FFFFFF" stroke-width="0.5" stroke-linecap="round" stroke-linejoin="round" stroke-miterlimit="10" d="
			M-703.2,1537c-0.9,27.7-1.5,55.5-2,83.2"/>
	</g>
	<g id="LWPOLYLINE_241_">
		<path fill="none" stroke="#FFFFFF" stroke-linecap="round" stroke-linejoin="round" stroke-miterlimit="10" d="M-707.6,1620.2v5.2
			c0,0.7,0.5,1.4,1.2,1.6l166.9-1.5"/>
	</g>
	<g id="LWPOLYLINE_240_">
		
			<line fill="none" stroke="#FFFFFF" stroke-linecap="round" stroke-linejoin="round" stroke-miterlimit="10" x1="-539.7" y1="1619.9" x2="-707.6" y2="1619.8"/>
	</g>
	<g id="LWPOLYLINE_239_">
		
			<path fill="none" stroke="#FFFFFF" stroke-linecap="round" stroke-linejoin="round" stroke-miterlimit="10" stroke-dasharray="2,4" d="
			M-390.6,1648.1c-70.4,0.4-140.8-10-208.5-30.9"/>
		<path fill="none" stroke="#FFFFFF" stroke-linecap="round" stroke-linejoin="round" stroke-miterlimit="10" d="M-265,1636
			c-41.5,7.9-83.6,11.9-125.5,12.1"/>
	</g>
	<g id="LWPOLYLINE_238_">
		
			<path fill="none" stroke="#FFFFFF" stroke-linecap="round" stroke-linejoin="round" stroke-miterlimit="10" stroke-dasharray="2,4" d="
			M-599.1,1617.2c-21.8-86.2-29.1-175.4-21.4-263.9c5.7-77,31.7-151,75.2-214.8"/>
	</g>
	<g id="LWPOLYLINE_237_">
		
			<line fill="none" stroke="#FFFFFF" stroke-linecap="round" stroke-linejoin="round" stroke-miterlimit="10" x1="-387.3" y1="1658.4" x2="-546.3" y2="1182.7"/>
	</g>
	<g id="LWPOLYLINE_236_">
		
			<path fill="none" stroke="#FFFFFF" stroke-width="0.5" stroke-linecap="round" stroke-linejoin="round" stroke-miterlimit="10" d="
			M-706.8,1582.4l15.4,1c1.4,0.1,2.8,0.4,4.1,0.9c7.6,2.8,11.4,11.3,8.6,18.8c-2.1,5.7-4.7,11.3-7.6,16.6"/>
	</g>
	<g id="LWPOLYLINE_235_">
		
			<polyline fill="none" stroke="#FFFFFF" stroke-width="0.5" stroke-linecap="round" stroke-linejoin="round" stroke-miterlimit="10" points="
			-715.6,1667.4 -704.4,1628 -551,1159.8 		"/>
	</g>
	<g id="LWPOLYLINE_234_">
		<polyline fill="none" stroke="#FFFFFF" stroke-linecap="round" stroke-linejoin="round" stroke-miterlimit="10" points="
			-556.3,1140.2 -556.5,1138.2 -565.1,1136.5 -563.9,1134.6 -550.5,1134.4 		"/>
	</g>
	<g id="LWPOLYLINE_233_">
		
			<line fill="none" stroke="#FFFFFF" stroke-linecap="round" stroke-linejoin="round" stroke-miterlimit="10" x1="-564.5" y1="1135.5" x2="-564.5" y2="1117.2"/>
	</g>
	<g id="LWPOLYLINE_232_">
		
			<line fill="none" stroke="#FFFFFF" stroke-linecap="round" stroke-linejoin="round" stroke-miterlimit="10" x1="-555" y1="1118.6" x2="-574.3" y2="1118.7"/>
	</g>
	<g id="LWPOLYLINE_231_">
		<polyline fill="none" stroke="#FFFFFF" stroke-linecap="round" stroke-linejoin="round" stroke-miterlimit="10" points="
			-572.7,1118.7 -572.6,1115.6 -570.1,1118.7 		"/>
	</g>
	<g id="LWPOLYLINE_230_">
		<path fill="none" stroke="#FFFFFF" stroke-linecap="round" stroke-linejoin="round" stroke-miterlimit="10" d="M-576.4,1649.7
			c24.6,0.3,58.9,3.2,82.9,8.7"/>
		<path fill="none" stroke="#FFFFFF" stroke-linecap="round" stroke-linejoin="round" stroke-miterlimit="10" d="M-576.4,1649.7"/>
	</g>
	<g id="LWPOLYLINE_229_">
		<path fill="none" stroke="#FFFFFF" stroke-linecap="round" stroke-linejoin="round" stroke-miterlimit="10" d="M-571,1660.6
			c-2.6-3.2-4.4-6.9-5.4-10.9c-0.7-0.4-1.5-0.7-2.3-0.9c-15.8-1.4-31.7-2-47.5-1.7"/>
	</g>
	<g id="LWPOLYLINE_228_">
		<polyline fill="none" stroke="#FFFFFF" stroke-linecap="round" stroke-linejoin="round" stroke-miterlimit="10" points="
			-605.6,1642.2 -605.6,1640.4 -611.7,1640.4 -611.7,1641.9 		"/>
	</g>
	<g id="LWPOLYLINE_227_">
		<path fill="none" stroke="#FFFFFF" stroke-linecap="round" stroke-linejoin="round" stroke-miterlimit="10" d="M-611.7,1640.4
			c0.1-0.5,0.5-0.9,1-1"/>
	</g>
	<g id="LWPOLYLINE_226_">
		<path fill="none" stroke="#FFFFFF" stroke-linecap="round" stroke-linejoin="round" stroke-miterlimit="10" d="M-605.6,1640.4
			c-0.1-0.5-0.5-0.9-1-1"/>
	</g>
	<g id="LWPOLYLINE_225_">
		
			<line fill="none" stroke="#FFFFFF" stroke-linecap="round" stroke-linejoin="round" stroke-miterlimit="10" x1="-606.6" y1="1639.4" x2="-610.7" y2="1639.4"/>
	</g>
	<g id="LWPOLYLINE_224_">
		
			<rect x="-610.2" y="1636" fill="none" stroke="#FFFFFF" stroke-linecap="round" stroke-linejoin="round" stroke-miterlimit="10" width="3.1" height="3.4"/>
	</g>
	<g id="LWPOLYLINE_223_">
		
			<rect x="-610.9" y="1634.8" fill="none" stroke="#FFFFFF" stroke-linecap="round" stroke-linejoin="round" stroke-miterlimit="10" width="4.5" height="1.2"/>
	</g>
	<g id="LWPOLYLINE_222_">
		<polyline fill="none" stroke="#FFFFFF" stroke-linecap="round" stroke-linejoin="round" stroke-miterlimit="10" points="
			-607.6,1634.8 -607.8,1633.9 -609.3,1633.8 -609.7,1634.2 -618.2,1633 -618.2,1628.9 -619.4,1628.9 -619.4,1633 -618.2,1633 		"/>
	</g>
	<g id="LWPOLYLINE_221_">
		
			<line fill="none" stroke="#FFFFFF" stroke-linecap="round" stroke-linejoin="round" stroke-miterlimit="10" x1="-609.7" y1="1634.2" x2="-609.7" y2="1634.8"/>
	</g>
	<g id="LWPOLYLINE_220_">
		
			<line fill="none" stroke="#FFFFFF" stroke-linecap="round" stroke-linejoin="round" stroke-miterlimit="10" x1="-564.6" y1="1644.5" x2="-563.3" y2="1625.7"/>
	</g>
	<g id="LWPOLYLINE_219_">
		<path fill="none" stroke="#FFFFFF" stroke-linecap="round" stroke-linejoin="round" stroke-miterlimit="10" d="M-539.5,1625.5
			l-0.2-5.6l4.2,0.2c-0.2,1.5-0.5,2.9-1.1,4.3C-537.4,1625.1-538.5,1625.4-539.5,1625.5"/>
	</g>
	<g id="LWPOLYLINE_218_">
		<path fill="none" stroke="#FFFFFF" stroke-linecap="round" stroke-linejoin="round" stroke-miterlimit="10" d="M-719.7,1664.6
			v-20.9h13.7c1.8,1.2,3,3.1,3,5.3l3.6,18.1"/>
	</g>
	<g id="LWPOLYLINE_217_">
		<path fill="none" stroke="#FFFFFF" stroke-linecap="round" stroke-linejoin="round" stroke-miterlimit="10" d="M-412.4,1659.8
			c6.5-9.5,14.8-17.6,24.5-23.8"/>
	</g>
	<g id="LWPOLYLINE_216_">
		
			<line fill="none" stroke="#FFFFFF" stroke-linecap="round" stroke-linejoin="round" stroke-miterlimit="10" x1="-387.9" y1="1636" x2="-387.3" y2="1658.4"/>
	</g>
	<g id="LWPOLYLINE_215_">
		<path fill="none" stroke="#FFFFFF" stroke-linecap="round" stroke-linejoin="round" stroke-miterlimit="10" d="M-533.3,1648.2
			c-0.5-44.1-1.4-88.3-2.7-132.4"/>
	</g>
	<g id="LWPOLYLINE_214_">
		<path fill="none" stroke="#FFFFFF" stroke-linecap="round" stroke-linejoin="round" stroke-miterlimit="10" d="M-536.1,1512.8
			c-1.6-54.6-3.8-109.2-6.5-163.8"/>
	</g>
	<g id="LWPOLYLINE_213_">
		<path fill="none" stroke="#FFFFFF" stroke-linecap="round" stroke-linejoin="round" stroke-miterlimit="10" d="M-542.8,1345.7
			c-1.4-26.8-2.9-53.5-4.5-80.2c-2.4-42.1-5.4-84.3-9.1-126.3"/>
	</g>
	<g id="LWPOLYLINE_212_">
		<path fill="none" stroke="#FFFFFF" stroke-linecap="round" stroke-linejoin="round" stroke-miterlimit="10" d="M-550.5,1134.4
			c8.7,95.6,14.5,191.5,17.7,287.5c2.5,75.7,3.8,151.3,4.1,227"/>
	</g>
	<g id="SPLINE_3_">
		
			<path fill="none" stroke="#FFFFFF" stroke-width="0.5" stroke-linecap="round" stroke-linejoin="round" stroke-miterlimit="10" d="
			M-526.1,1243.2c-0.5,2.8-1.1,5.8-1.8,9.1c-0.9,4.1-2.2,8.7-5.2,9.4c-1.8,0.4-4.3-0.6-6.1-2c-0.6-0.5-1.1-1-1.6-1.5"/>
	</g>
	<g id="LWPOLYLINE_211_">
		
			<line fill="none" stroke="#FFFFFF" stroke-width="0.5" stroke-linecap="round" stroke-linejoin="round" stroke-miterlimit="10" x1="-532.7" y1="1424.6" x2="-470.3" y2="1410.2"/>
	</g>
	<g id="LWPOLYLINE_210_">
		
			<line fill="none" stroke="#FFFFFF" stroke-width="0.5" stroke-linecap="round" stroke-linejoin="round" stroke-miterlimit="10" x1="-532.8" y1="1422.1" x2="-471.1" y2="1407.9"/>
	</g>
	<g id="LWPOLYLINE_209_">
		
			<line fill="none" stroke="#FFFFFF" stroke-width="0.5" stroke-linecap="round" stroke-linejoin="round" stroke-miterlimit="10" x1="-502" y1="1545.9" x2="-516.7" y2="1421"/>
	</g>
	<g id="LWPOLYLINE_208_">
		
			<line fill="none" stroke="#FFFFFF" stroke-width="0.5" stroke-linecap="round" stroke-linejoin="round" stroke-miterlimit="10" x1="-517" y1="1418.4" x2="-535.6" y2="1261.6"/>
	</g>
	<g id="LWPOLYLINE_207_">
		
			<line fill="none" stroke="#FFFFFF" stroke-width="0.5" stroke-linecap="round" stroke-linejoin="round" stroke-miterlimit="10" x1="-529.6" y1="1554.9" x2="-429.6" y2="1531.8"/>
	</g>
	<g id="LWPOLYLINE_206_">
		
			<line fill="none" stroke="#FFFFFF" stroke-width="0.5" stroke-linecap="round" stroke-linejoin="round" stroke-miterlimit="10" x1="-529.6" y1="1552.3" x2="-430.4" y2="1529.4"/>
	</g>
	<g id="LWPOLYLINE_205_">
		
			<line fill="none" stroke="#FFFFFF" stroke-width="0.5" stroke-linecap="round" stroke-linejoin="round" stroke-miterlimit="10" x1="-523.5" y1="1550.9" x2="-532.6" y2="1424.6"/>
	</g>
	<g id="LWPOLYLINE_204_">
		
			<line fill="none" stroke="#FFFFFF" stroke-linecap="round" stroke-linejoin="round" stroke-miterlimit="10" x1="-532.8" y1="1422.1" x2="-532.8" y2="1421.9"/>
	</g>
	<g id="LWPOLYLINE_203_">
		
			<line fill="none" stroke="#FFFFFF" stroke-width="0.5" stroke-linecap="round" stroke-linejoin="round" stroke-miterlimit="10" x1="-529" y1="1598.8" x2="-502.5" y2="1548.6"/>
	</g>
	<g id="LWPOLYLINE_202_">
		
			<line fill="none" stroke="#FFFFFF" stroke-width="0.5" stroke-linecap="round" stroke-linejoin="round" stroke-miterlimit="10" x1="-538.3" y1="1628.5" x2="-533.6" y2="1622"/>
	</g>
	<g id="LWPOLYLINE_201_">
		
			<line fill="none" stroke="#FFFFFF" stroke-width="0.5" stroke-linecap="round" stroke-linejoin="round" stroke-miterlimit="10" x1="-528.9" y1="1615.4" x2="-476.7" y2="1542.7"/>
	</g>
	<g id="LWPOLYLINE_200_">
		
			<line fill="none" stroke="#FFFFFF" stroke-width="0.5" stroke-linecap="round" stroke-linejoin="round" stroke-miterlimit="10" x1="-501.3" y1="1414.8" x2="-532.5" y2="1261.5"/>
		
			<line fill="none" stroke="#FFFFFF" stroke-width="0.5" stroke-linecap="round" stroke-linejoin="round" stroke-miterlimit="10" x1="-475.8" y1="1539.9" x2="-500.8" y2="1417.3"/>
	</g>
	<g id="LWPOLYLINE_199_">
		
			<line fill="none" stroke="#FFFFFF" stroke-width="0.5" stroke-linecap="round" stroke-linejoin="round" stroke-miterlimit="10" x1="-487.3" y1="1414.2" x2="-455.3" y2="1535.1"/>
		
			<line fill="none" stroke="#FFFFFF" stroke-width="0.5" stroke-linecap="round" stroke-linejoin="round" stroke-miterlimit="10" x1="-529.1" y1="1256.7" x2="-488" y2="1411.8"/>
	</g>
	<g id="LWPOLYLINE_198_">
		
			<line fill="none" stroke="#FFFFFF" stroke-width="0.5" stroke-linecap="round" stroke-linejoin="round" stroke-miterlimit="10" x1="-476.9" y1="1411.8" x2="-439.2" y2="1531.4"/>
		
			<line fill="none" stroke="#FFFFFF" stroke-width="0.5" stroke-linecap="round" stroke-linejoin="round" stroke-miterlimit="10" x1="-527.6" y1="1250.8" x2="-477.6" y2="1409.4"/>
	</g>
	<g id="LWPOLYLINE_197_">
		
			<line fill="none" stroke="#FFFFFF" stroke-width="0.5" stroke-linecap="round" stroke-linejoin="round" stroke-miterlimit="10" x1="-440" y1="1534.2" x2="-528.8" y2="1629.7"/>
	</g>
	<g id="LWPOLYLINE_196_">
		
			<line fill="none" stroke="#FFFFFF" stroke-width="0.5" stroke-linecap="round" stroke-linejoin="round" stroke-miterlimit="10" x1="-533.5" y1="1634.8" x2="-537.3" y2="1638.9"/>
	</g>
	<g id="LWPOLYLINE_195_">
		
			<line fill="none" stroke="#FFFFFF" stroke-width="0.5" stroke-linecap="round" stroke-linejoin="round" stroke-miterlimit="10" x1="-538" y1="1645.7" x2="-533.4" y2="1642.2"/>
	</g>
	<g id="LWPOLYLINE_194_">
		
			<line fill="none" stroke="#FFFFFF" stroke-width="0.5" stroke-linecap="round" stroke-linejoin="round" stroke-miterlimit="10" x1="-528.7" y1="1638.7" x2="-421.4" y2="1556.4"/>
	</g>
	<g id="LWPOLYLINE_193_">
		
			<line fill="none" stroke="#FFFFFF" stroke-width="0.5" stroke-linecap="round" stroke-linejoin="round" stroke-miterlimit="10" x1="-528.7" y1="1645.2" x2="-410" y2="1590.5"/>
	</g>
	<g id="LWPOLYLINE_192_">
		
			<line fill="none" stroke="#FFFFFF" stroke-width="0.5" stroke-linecap="round" stroke-linejoin="round" stroke-miterlimit="10" x1="-520.6" y1="1650.2" x2="-417.3" y2="1632.6"/>
	</g>
	<g id="LWPOLYLINE_191_">
		
			<path fill="none" stroke="#FFFFFF" stroke-width="0.5" stroke-linecap="round" stroke-linejoin="round" stroke-miterlimit="10" d="
			M-397.8,1627c-5.2,0.1-10.4,0.5-15.6,1.1c-1.3,0.2-2.4,1-2.9,2.2c-4,8.9-3.8,19.2,0.7,27.9"/>
	</g>
	<g id="LWPOLYLINE_190_">
		
			<path fill="none" stroke="#FFFFFF" stroke-width="0.5" stroke-linecap="round" stroke-linejoin="round" stroke-miterlimit="10" d="
			M-538.3,1647.5c1.2-5.8,1.3-11.7,0.4-17.5c-0.3-1.9-1.4-3.6-3.1-4.6"/>
	</g>
	<g id="LWPOLYLINE_189_">
		<polyline fill="none" stroke="#FFFFFF" stroke-linecap="round" stroke-linejoin="round" stroke-miterlimit="10" points="
			-645.6,1660.7 -645.6,1659.4 -651.7,1659.4 -651.7,1660.7 		"/>
	</g>
	<g id="LWPOLYLINE_188_">
		<path fill="none" stroke="#FFFFFF" stroke-linecap="round" stroke-linejoin="round" stroke-miterlimit="10" d="M-651.7,1659.4
			c0.1-0.5,0.5-0.9,1-1"/>
	</g>
	<g id="LWPOLYLINE_187_">
		<path fill="none" stroke="#FFFFFF" stroke-linecap="round" stroke-linejoin="round" stroke-miterlimit="10" d="M-645.6,1659.4
			c-0.1-0.5-0.5-0.9-1-1"/>
	</g>
	<g id="LWPOLYLINE_186_">
		
			<line fill="none" stroke="#FFFFFF" stroke-linecap="round" stroke-linejoin="round" stroke-miterlimit="10" x1="-646.6" y1="1658.4" x2="-650.6" y2="1658.4"/>
	</g>
	<g id="LWPOLYLINE_185_">
		
			<rect x="-650.1" y="1654.9" fill="none" stroke="#FFFFFF" stroke-linecap="round" stroke-linejoin="round" stroke-miterlimit="10" width="3.1" height="3.4"/>
	</g>
	<g id="LWPOLYLINE_184_">
		
			<rect x="-650.9" y="1653.8" fill="none" stroke="#FFFFFF" stroke-linecap="round" stroke-linejoin="round" stroke-miterlimit="10" width="4.5" height="1.2"/>
	</g>
	<g id="LWPOLYLINE_183_">
		
			<line fill="none" stroke="#FFFFFF" stroke-linecap="round" stroke-linejoin="round" stroke-miterlimit="10" x1="-649.7" y1="1653.1" x2="-649.7" y2="1653.8"/>
	</g>
	<g id="LWPOLYLINE_182_">
		
			<line fill="none" stroke="#FFFFFF" stroke-linecap="round" stroke-linejoin="round" stroke-miterlimit="10" x1="-700.6" y1="1661.3" x2="-704.1" y2="1626.9"/>
	</g>
	<g id="LWPOLYLINE_181_">
		
			<line fill="none" stroke="#FFFFFF" stroke-width="0.5" stroke-linecap="round" stroke-linejoin="round" stroke-miterlimit="10" x1="-704.1" y1="1626.9" x2="-538.5" y2="1379.3"/>
	</g>
	<g id="LWPOLYLINE_180_">
		
			<line fill="none" stroke="#FFFFFF" stroke-width="0.5" stroke-linecap="round" stroke-linejoin="round" stroke-miterlimit="10" x1="-549.8" y1="1668.8" x2="-552" y2="1512.3"/>
	</g>
	<g id="LWPOLYLINE_179_">
		
			<line fill="none" stroke="#FFFFFF" stroke-width="0.5" stroke-linecap="round" stroke-linejoin="round" stroke-miterlimit="10" x1="-552" y1="1510.7" x2="-554.4" y2="1342.7"/>
	</g>
	<g id="LWPOLYLINE_178_">
		
			<line fill="none" stroke="#FFFFFF" stroke-width="0.5" stroke-linecap="round" stroke-linejoin="round" stroke-miterlimit="10" x1="-554.4" y1="1341.1" x2="-551" y2="1159.8"/>
	</g>
	<g id="LWPOLYLINE_177_">
		
			<line fill="none" stroke="#FFFFFF" stroke-linecap="round" stroke-linejoin="round" stroke-miterlimit="10" x1="-552.7" y1="1123.9" x2="-552.7" y2="1135.6"/>
	</g>
	<g id="LWPOLYLINE_176_">
		<polyline fill="none" stroke="#FFFFFF" stroke-linecap="round" stroke-linejoin="round" stroke-miterlimit="10" points="
			-559.2,1131.2 -561.7,1131.2 -561.7,1128.5 -556.4,1128.5 -556.4,1131.2 -557.9,1131.2 		"/>
	</g>
	<g id="LWPOLYLINE_175_">
		
			<line fill="none" stroke="#FFFFFF" stroke-linecap="round" stroke-linejoin="round" stroke-miterlimit="10" x1="-557.9" y1="1134.5" x2="-557.9" y2="1131.2"/>
	</g>
	<g id="LWPOLYLINE_174_">
		
			<line fill="none" stroke="#FFFFFF" stroke-linecap="round" stroke-linejoin="round" stroke-miterlimit="10" x1="-559.2" y1="1131.2" x2="-559.2" y2="1134.5"/>
	</g>
	<g id="LWPOLYLINE_173_">
		
			<line fill="none" stroke="#FFFFFF" stroke-linecap="round" stroke-linejoin="round" stroke-miterlimit="10" x1="-719.7" y1="1706.1" x2="-733.8" y2="1706.1"/>
	</g>
	<g id="LWPOLYLINE_172_">
		<polyline fill="none" stroke="#FFFFFF" stroke-linecap="round" stroke-linejoin="round" stroke-miterlimit="10" points="
			-733.8,1706.1 -733.8,1697 -729.1,1691.6 -732.9,1685.9 -732.9,1684 -731.4,1682.4 -719.7,1682.4 		"/>
	</g>
	<g id="LWPOLYLINE_171_">
		
			<line fill="none" stroke="#FFFFFF" stroke-width="0.5" stroke-linecap="round" stroke-linejoin="round" stroke-miterlimit="10" x1="-538.6" y1="1655.6" x2="-533.3" y2="1521.8"/>
	</g>
	<g id="LWPOLYLINE_170_">
		
			<line fill="none" stroke="#FFFFFF" stroke-width="0.5" stroke-linecap="round" stroke-linejoin="round" stroke-miterlimit="10" x1="-532.6" y1="1516.5" x2="-554.2" y2="1511.9"/>
	</g>
	<g id="LWPOLYLINE_169_">
		
			<line fill="none" stroke="#FFFFFF" stroke-width="0.5" stroke-linecap="round" stroke-linejoin="round" stroke-miterlimit="10" x1="-553.6" y1="1509.1" x2="-532" y2="1513.7"/>
	</g>
	<g id="ARC_41_">
		
			<path fill="none" stroke="#FFFFFF" stroke-width="0.5" stroke-linecap="round" stroke-linejoin="round" stroke-miterlimit="10" d="
			M-532.6,1516.5c0.9-0.4,1.3-1.5,0.8-2.4c-0.1-0.1-0.1-0.2-0.2-0.4"/>
	</g>
	<g id="ARC_40_">
		
			<path fill="none" stroke="#FFFFFF" stroke-width="0.5" stroke-linecap="round" stroke-linejoin="round" stroke-miterlimit="10" d="
			M-553.6,1509.1c-0.9,0.4-1.3,1.5-0.8,2.4c0.1,0.1,0.1,0.2,0.2,0.4"/>
	</g>
	<g id="LWPOLYLINE_168_">
		<polyline fill="none" stroke="#FFFFFF" stroke-linecap="round" stroke-linejoin="round" stroke-miterlimit="10" points="
			-595.1,1642.4 -595,1639.5 -591.8,1639.5 -589.9,1638.1 -587.6,1638.2 -586.9,1638.9 -586.9,1642.8 		"/>
	</g>
	<g id="LWPOLYLINE_167_">
		<polyline fill="none" stroke="#FFFFFF" stroke-linecap="round" stroke-linejoin="round" stroke-miterlimit="10" points="
			-594.1,1639.5 -593.3,1637.9 -589.9,1638.1 		"/>
	</g>
	<g id="LWPOLYLINE_166_">
		
			<line fill="none" stroke="#FFFFFF" stroke-width="0.5" stroke-linecap="round" stroke-linejoin="round" stroke-miterlimit="10" x1="-535.5" y1="1531.4" x2="-707.7" y2="1531.2"/>
	</g>
	<g id="LWPOLYLINE_165_">
		
			<line fill="none" stroke="#FFFFFF" stroke-width="0.5" stroke-linecap="round" stroke-linejoin="round" stroke-miterlimit="10" x1="-707.7" y1="1529.3" x2="-535.6" y2="1529.5"/>
	</g>
	<g id="ARC_39_">
		
			<path fill="none" stroke="#FFFFFF" stroke-width="0.5" stroke-linecap="round" stroke-linejoin="round" stroke-miterlimit="10" d="
			M-707.7,1529.3c-0.5,0-1,0.4-1,1c0,0.5,0.4,1,1,1"/>
	</g>
	<g id="ARC_38_">
		
			<path fill="none" stroke="#FFFFFF" stroke-width="0.5" stroke-linecap="round" stroke-linejoin="round" stroke-miterlimit="10" d="
			M-703.2,1537c1.8-1.4,2.9-3.5,3.1-5.7"/>
	</g>
	<g id="ARC_37_">
		
			<path fill="none" stroke="#FFFFFF" stroke-width="0.5" stroke-linecap="round" stroke-linejoin="round" stroke-miterlimit="10" d="
			M-700.1,1529.3c-0.2-2.1-1.2-4-2.7-5.4"/>
	</g>
	<g id="LWPOLYLINE_164_">
		
			<line fill="none" stroke="#FFFFFF" stroke-width="0.5" stroke-linecap="round" stroke-linejoin="round" stroke-miterlimit="10" x1="-538.9" y1="1430.8" x2="-702.9" y2="1430.6"/>
	</g>
	<g id="LWPOLYLINE_163_">
		
			<line fill="none" stroke="#FFFFFF" stroke-width="0.5" stroke-linecap="round" stroke-linejoin="round" stroke-miterlimit="10" x1="-702.9" y1="1428.7" x2="-539" y2="1428.8"/>
	</g>
	<g id="ARC_36_">
		
			<path fill="none" stroke="#FFFFFF" stroke-width="0.5" stroke-linecap="round" stroke-linejoin="round" stroke-miterlimit="10" d="
			M-702.9,1428.7c-0.5,0-1,0.4-1,1c0,0.5,0.4,1,1,1"/>
	</g>
	<g id="ARC_35_">
		
			<path fill="none" stroke="#FFFFFF" stroke-width="0.5" stroke-linecap="round" stroke-linejoin="round" stroke-miterlimit="10" d="
			M-699.2,1436.9c2.2-1.4,3.7-3.7,4-6.4"/>
	</g>
	<g id="ARC_34_">
		
			<path fill="none" stroke="#FFFFFF" stroke-width="0.5" stroke-linecap="round" stroke-linejoin="round" stroke-miterlimit="10" d="
			M-695.2,1428.7c-0.3-2.3-1.4-4.4-3.3-5.9"/>
	</g>
	<g id="LWPOLYLINE_162_">
		
			<line fill="none" stroke="#FFFFFF" stroke-width="0.5" stroke-linecap="round" stroke-linejoin="round" stroke-miterlimit="10" x1="-543.5" y1="1332.2" x2="-695.9" y2="1332"/>
	</g>
	<g id="LWPOLYLINE_161_">
		
			<line fill="none" stroke="#FFFFFF" stroke-width="0.5" stroke-linecap="round" stroke-linejoin="round" stroke-miterlimit="10" x1="-695.9" y1="1330.1" x2="-543.6" y2="1330.3"/>
	</g>
	<g id="ARC_33_">
		
			<path fill="none" stroke="#FFFFFF" stroke-width="0.5" stroke-linecap="round" stroke-linejoin="round" stroke-miterlimit="10" d="
			M-695.9,1330.1c-0.5,0-1,0.4-1,1c0,0.5,0.4,1,1,1"/>
	</g>
	<g id="ARC_32_">
		
			<path fill="none" stroke="#FFFFFF" stroke-width="0.5" stroke-linecap="round" stroke-linejoin="round" stroke-miterlimit="10" d="
			M-692.8,1338.7c2.6-1.3,4.3-3.9,4.6-6.7"/>
	</g>
	<g id="ARC_31_">
		
			<path fill="none" stroke="#FFFFFF" stroke-width="0.5" stroke-linecap="round" stroke-linejoin="round" stroke-miterlimit="10" d="
			M-688.2,1330.1c-0.2-2.2-1.3-4.1-2.9-5.6"/>
	</g>
	<g id="LWPOLYLINE_160_">
		
			<line fill="none" stroke="#FFFFFF" stroke-width="0.5" stroke-linecap="round" stroke-linejoin="round" stroke-miterlimit="10" x1="-547.4" y1="1263.5" x2="-685.4" y2="1263.4"/>
	</g>
	<g id="LWPOLYLINE_159_">
		
			<line fill="none" stroke="#FFFFFF" stroke-width="0.5" stroke-linecap="round" stroke-linejoin="round" stroke-miterlimit="10" x1="-685.4" y1="1261.4" x2="-547.5" y2="1261.6"/>
	</g>
	<g id="ARC_30_">
		
			<path fill="none" stroke="#FFFFFF" stroke-width="0.5" stroke-linecap="round" stroke-linejoin="round" stroke-miterlimit="10" d="
			M-685.4,1261.4c-0.5,0-1,0.4-1,1c0,0.5,0.4,1,1,1"/>
	</g>
	<g id="ARC_29_">
		
			<path fill="none" stroke="#FFFFFF" stroke-width="0.5" stroke-linecap="round" stroke-linejoin="round" stroke-miterlimit="10" d="
			M-682.4,1267.9c1.9-0.8,3.2-2.5,3.5-4.6"/>
	</g>
	<g id="ARC_28_">
		
			<path fill="none" stroke="#FFFFFF" stroke-width="0.5" stroke-linecap="round" stroke-linejoin="round" stroke-miterlimit="10" d="
			M-678.9,1261.5c-0.2-1.5-0.7-2.9-1.6-4.1"/>
	</g>
	<g id="LWPOLYLINE_158_">
		
			<line fill="none" stroke="#FFFFFF" stroke-width="0.5" stroke-linecap="round" stroke-linejoin="round" stroke-miterlimit="10" x1="-551.3" y1="1203.4" x2="-668.8" y2="1203.3"/>
	</g>
	<g id="LWPOLYLINE_157_">
		
			<line fill="none" stroke="#FFFFFF" stroke-width="0.5" stroke-linecap="round" stroke-linejoin="round" stroke-miterlimit="10" x1="-668.8" y1="1201.4" x2="-556.1" y2="1201.5"/>
	</g>
	<g id="LWPOLYLINE_156_">
		
			<line fill="none" stroke="#FFFFFF" stroke-linecap="round" stroke-linejoin="round" stroke-miterlimit="10" x1="-551.8" y1="1201.5" x2="-551.4" y2="1201.5"/>
	</g>
	<g id="ARC_27_">
		
			<path fill="none" stroke="#FFFFFF" stroke-width="0.5" stroke-linecap="round" stroke-linejoin="round" stroke-miterlimit="10" d="
			M-668.8,1201.4c-0.5,0-1,0.4-1,1c0,0.5,0.4,1,1,1"/>
	</g>
	<g id="ARC_26_">
		
			<path fill="none" stroke="#FFFFFF" stroke-width="0.5" stroke-linecap="round" stroke-linejoin="round" stroke-miterlimit="10" d="
			M-667.6,1208.3c2.7-0.4,4.9-2.3,5.6-5"/>
	</g>
	<g id="ARC_25_">
		
			<path fill="none" stroke="#FFFFFF" stroke-width="0.5" stroke-linecap="round" stroke-linejoin="round" stroke-miterlimit="10" d="
			M-661.8,1201.4c-0.2-1.7-0.8-3.2-1.9-4.5"/>
	</g>
	<g id="LWPOLYLINE_155_">
		
			<line fill="none" stroke="#FFFFFF" stroke-width="0.5" stroke-linecap="round" stroke-linejoin="round" stroke-miterlimit="10" x1="-540.7" y1="1350.1" x2="-555.4" y2="1342.1"/>
	</g>
	<g id="LWPOLYLINE_154_">
		
			<line fill="none" stroke="#FFFFFF" stroke-width="0.5" stroke-linecap="round" stroke-linejoin="round" stroke-miterlimit="10" x1="-553.8" y1="1339.7" x2="-539.3" y2="1347.6"/>
	</g>
	<g id="ARC_24_">
		
			<path fill="none" stroke="#FFFFFF" stroke-width="0.5" stroke-linecap="round" stroke-linejoin="round" stroke-miterlimit="10" d="
			M-540.7,1350.1c1-0.2,1.7-1.1,1.5-2.1c0-0.1-0.1-0.3-0.1-0.4"/>
	</g>
	<g id="ARC_23_">
		
			<path fill="none" stroke="#FFFFFF" stroke-width="0.5" stroke-linecap="round" stroke-linejoin="round" stroke-miterlimit="10" d="
			M-553.8,1339.7c-1,0.1-1.8,0.9-1.7,2c0,0.1,0,0.3,0.1,0.4"/>
	</g>
	<g id="LWPOLYLINE_153_">
		
			<path fill="none" stroke="#FFFFFF" stroke-width="0.5" stroke-linecap="round" stroke-linejoin="round" stroke-miterlimit="10" d="
			M-551.8,1201.5l-88.2-63.6c-0.6-0.4-1.4-0.3-1.8,0.3c-0.3,0.4-0.3,1,0,1.5"/>
	</g>
	<g id="LWPOLYLINE_152_">
		
			<line fill="none" stroke="#FFFFFF" stroke-width="0.5" stroke-linecap="round" stroke-linejoin="round" stroke-miterlimit="10" x1="-556.1" y1="1201.5" x2="-641.8" y2="1139.7"/>
	</g>
	<g id="ARC_22_">
		
			<path fill="none" stroke="#FFFFFF" stroke-width="0.5" stroke-linecap="round" stroke-linejoin="round" stroke-miterlimit="10" d="
			M-641.3,1145.4c1.7-0.1,3.4-0.8,4.6-2"/>
	</g>
	<g id="ARC_21_">
		
			<path fill="none" stroke="#FFFFFF" stroke-width="0.5" stroke-linecap="round" stroke-linejoin="round" stroke-miterlimit="10" d="
			M-635.1,1141.4c0.3-0.5,0.5-1,0.6-1.6"/>
	</g>
</g>
<g id="Calque_6">
</g>
<g id="Layer_1">
</g>
<g id="Logo">
</g>
</svg>
