<?xml version="1.0" encoding="utf-8"?>
<!-- Generator: Adobe Illustrator 18.1.1, SVG Export Plug-In . SVG Version: 6.00 Build 0)  -->
<svg version="1.1" id="Calque_1" xmlns="http://www.w3.org/2000/svg" xmlns:xlink="http://www.w3.org/1999/xlink" x="0px" y="0px"
	 viewBox="0 0 536 283.5" enable-background="new 0 0 536 283.5" xml:space="preserve">
<g>
	<path fill="#717374" d="M422.3,173.7c0,6.5,0.7,13,0.8,19.5c0,1.8-0.2,2.4-2.3,2c-15.5-2.5-31-4.9-46.6-7.2
		c-1.9-0.3-2.4-0.9-2.3-2.6c0.7-14.5,1.3-28.9,2.6-43.4c1-11.1,2-22.1,3.4-33.1c3.7-28.2,8.1-56.3,18.2-83.1c1.3-3.5,2.1-7.8,5-9.8
		c2.6-1.8,6.9-1.1,10.3-1.2c1.9,0,4.2-0.1,5.6,1c0.7,1.5,0.5,2.1,0.6,5.3c0.4,10.8,0.7,21.7,1.1,32.5c0.7,21.9,1.4,43.7,2.2,65.6
		C421.3,137.4,422.1,155.5,422.3,173.7C422.6,173.7,422.1,173.7,422.3,173.7z"/>
	<path fill="#9C9B9B" d="M433.8,88c0.2,0.5,0.4,1.1,0.6,1.6c1,2.1,0,0,1,2.1c0.2,0.5,0.4,1.1,0.6,1.6c1,2.1,0,0,1,2.1
		c9.3,21.6,18.6,43.2,27.8,64.8c4.2,9.8,8.3,19.6,12.4,29.4c0.3,0.8,0.7,1.6,1.2,2.9c-5.4-0.8-10.4-1.5-15.4-2.3
		c-7.5-1.2-15.1-2.4-22.6-3.4c-1.9-0.3-2.6-1-2.7-2.8c-0.5-12.1-2.1-24-2.8-36.1c-0.8-13.8-2.1-27.6-3.2-41.4
		c-0.6-7.2-1.5-14.5-1.6-21.8c0.5-1,1.2-1.3,2.1-0.5c0.2,0.5,0.4,1.1,0.6,1.6C433.8,88,432.8,85.9,433.8,88z"/>
	<path fill="#B5B6B6" d="M351.2,214.7c1.7-4.9,4.4-7,9.5-7.2c10.4-0.4,20.9-1.6,31.3-2.4c2.9-0.2,5.9-0.3,8.8-0.5
		c10.4-0.6,20.8-0.8,31.1-1.3c12.4-0.6,24.9-0.8,37.3-1.2c7.3-0.3,14.6-0.1,21.9-0.4c4-0.1,8-0.2,12-0.5c2.1-0.1,2.6,0.6,2.5,2.6
		c-0.2,2.8-0.2,5.5,0,8.3c0.2,2.2-0.7,2.9-2.7,2.6c-0.3,0-0.7,0-1.1,0c-49.1,0-98.3,0-147.4,0C353.4,214.7,352.4,214.7,351.2,214.7z
		"/>
	<path fill="#9B9B9A" d="M267.8,226.9c-85,0-170.1,0-255.1-0.1c-1.1,0-3.4,0.2-3.4-1.4c0-1.6,2.2-1.2,3.4-1.2
		c170.1-0.1,340.1-0.1,510.2,0c1.1,0,3.4-0.5,3.4,1.4c0,1.5-2.2,1.2-3.4,1.2C437.9,226.9,352.8,226.9,267.8,226.9z"/>
	<path fill="#EC662E" d="M160.2,136.7c13.3,0,26.5,0,39.8,0c2,0,2.6,0.5,2.6,2.5c-0.2,3.6-0.1,7.1,0,10.7c0,1.6-0.3,2.3-2.2,2.3
		c-26.9-0.1-53.7-0.1-80.6,0c-1.7,0-2.1-0.6-2-2.2c0.1-3.6,0.2-7.1,0-10.7c-0.1-2,0.5-2.6,2.5-2.5c13.3,0.1,26.7,0,40,0
		C160.2,136.7,160.2,136.7,160.2,136.7z"/>
	<path fill="#21477A" d="M268.1,136.7c13.2,0,26.3,0.1,39.5-0.1c2.5,0,3.1,0.8,3,3.1c-0.2,3.1-0.2,6.2,0,9.3c0.1,2.4-0.4,3.1-3,3.1
		c-25.4-0.1-50.9-0.1-76.3-0.1c-1.2,0-2.5-0.1-3.7,0c-1.4,0.1-1.8-0.5-1.8-1.9c0.1-3.6,0.1-7.3,0-10.9c-0.1-2,0.4-2.7,2.6-2.7
		C241.6,136.7,254.8,136.7,268.1,136.7z"/>
	<path fill="#F9C225" d="M9.8,151c0-4.5,0-8.9,0-13.4c28.1,0,56.2,0,84.3,0c0,4.2,0,8.4,0.1,12.5c0,1.6-0.6,1.9-2,1.9
		c-5.5-0.1-11,0-16.5,0c-21.1,0-42.1,0-63.2,0c-0.9,0-1.9,0.6-2.6-0.5c0.1,0,0.2-0.1,0.2-0.1C10,151.3,9.9,151.2,9.8,151z"/>
	<path fill="#9B9B9A" d="M116.7,169.2c10.7-1.6,22.5,10,21.3,22.3c-1,11-9.7,19.7-21.2,19.8c-11.1,0.1-21.7-8.9-21.2-23
		C95.9,180.5,105.2,167.6,116.7,169.2z M103.8,189.9c-0.9,7.4,6.5,13.4,13,13.5c7.2,0.1,13.2-6.3,13.4-13.5
		c0.2-6.2-6.4-13.6-13.3-13.3C109.5,176.9,103.8,182.4,103.8,189.9z"/>
	<path fill="#9B9B9A" d="M281.7,190.2c0-6.2,0-12.5,0-18.7c0-1.6,0.3-2.4,2.2-2.3c8.2,0.1,16.4,0.1,24.5,0c1.8,0,2.2,0.6,2.2,2.3
		c0,5.2,0.1,5.2-5.1,5.2c-4.5,0-9.1,0-13.6,0c-1.5,0-2.3,0.3-2.2,2c0.1,1.9,0.1,3.7,0,5.6c-0.1,1.7,0.6,2.1,2.2,2
		c5.4-0.1,10.9,0,16.3-0.1c1.8,0,2.5,0.3,2.5,2.3c-0.1,5.2,0,5.2-5.1,5.2c-4.5,0-9.1,0.1-13.6,0c-1.5,0-2.3,0.3-2.2,2
		c0.1,1.9,0.1,3.7,0,5.6c-0.1,1.7,0.6,2.1,2.2,2c5.5-0.1,11,0,16.5-0.1c1.5,0,2.2,0.3,2.2,2c0.1,6,0.2,6-5.9,6
		c-6.6,0-13.2-0.2-19.7,0.1c-2.9,0.1-3.4-0.9-3.3-3.4C281.8,202.1,281.7,196.1,281.7,190.2z"/>
	<path fill="#77797A" d="M419.6,9c2.4,2.7,3.5,5.5,3.7,9.2c0.8,19.6,2,39.3,3,58.9c1,19.4,1.9,38.7,2.9,58.1
		c0.5,10.7,1.1,21.3,1.6,32c0.5,10.6,1,21.1,1.5,31.7c0.1,1.3,0.4,2.6-1.8,2.6c-2,0-2.4-0.6-2.5-2.6c-0.8-17.5-1.7-35-2.5-52.5
		c-1.1-23-2.1-46-3.2-69c-1-22.3-2-44.6-3.1-66.9C419.2,10,419,9.6,419.6,9z"/>
	<path fill="#9B9B9A" d="M9.8,190.2c0-6.2,0-12.5,0-18.7c0-1.6,0.3-2.4,2.2-2.3c8,0.1,16,0.1,24,0c1.8,0,2.2,0.6,2.2,2.3
		c0,5.2,0.1,5.2-5.1,5.2c-4.4,0-8.9,0.1-13.3-0.1c-2.1-0.1-2.6,0.7-2.5,2.6c0.2,1.6,0.2,3.2,0,4.8c-0.2,2,0.6,2.4,2.4,2.3
		c5.3-0.1,10.7,0,16-0.1c1.8,0,2.5,0.3,2.5,2.3c-0.1,5.2,0,5.2-5.1,5.2c-4.5,0-9.1,0.1-13.6,0c-1.5,0-2.3,0.3-2.2,2
		c0.1,1.9,0.1,3.7,0,5.6c-0.1,1.7,0.6,2.1,2.2,2c5.4-0.1,10.9,0,16.3-0.1c1.8,0,2.5,0.3,2.5,2.3c0,5.7,0.1,5.7-5.7,5.7
		c-6.6,0-13.2-0.1-19.7,0.1c-2.6,0.1-3.1-0.8-3-3.1C9.9,202.3,9.8,196.2,9.8,190.2z"/>
	<path fill="#9B9B9A" d="M195.7,190.3c0-6.2,0.1-12.5,0-18.7c0-1.7,0.3-2.5,2.3-2.5c5.8,0,5.8-0.1,5.8,5.7c0,8.5,0.1,17.1-0.1,25.6
		c-0.1,2.6,0.8,3.1,3.1,3c5-0.2,10,0,14.9-0.1c1.6,0,2.3,0.3,2.3,2.2c0,5.9,0.1,5.9-5.8,5.9c-6.6,0-13.2-0.1-19.7,0.1
		c-2.5,0.1-2.9-0.7-2.9-3C195.8,202.4,195.7,196.4,195.7,190.3z"/>
	<path fill="#9B9B9A" d="M22.8,265.7c-3.2,2.4-6.8,2.6-10.2,1c-3.7-1.7-5.5-5-5.5-9.2c0-3.3,0.1-6.7,2.4-9.2
		c3.6-3.9,7.5-5.4,14.1-1.4c-0.3-2.3,1.3-1.8,2.6-1.9c1.6,0,1.2,1.2,1.2,2.1c0,6.9,0.1,13.7,0,20.6c0,4.7-3.8,8.2-8.5,8.4
		c-3.8,0.1-7.5,0.2-10.1-3.4c-0.7-1-1.4-2.1-0.9-3.3c0.3-0.7,3.8-0.2,4.4,0.5c2.3,2.6,4.4,3.3,7,2.4c2.9-1.1,3.8-3.5,3.8-6.3
		c0.4-0.2,0.6-0.5,0.3-0.8C23.1,264.9,23,265.4,22.8,265.7z M23.1,256c0-0.6,0.1-1.2,0-1.9c-0.3-2.4-2.6-5.2-4.4-5.4
		c-3.1-0.3-5.4,1-6.5,3.7c-1.4,3.3-0.5,6.4,1,9.3c0.6,1.2,1.9,1.8,3.3,1.9C20.7,264.1,23.1,261.4,23.1,256z"/>
	<path fill="#9B9B9A" d="M291.4,247c2.9-1.8,5.7-3.3,9.1-2c0.4,0.2,0.8,0.3,1.2,0.4c2,1,3.1,1,5.4,0c4.4-1.9,9-0.5,10.5,3.2
		c0.4,1.1,0.3,2.1,0.3,3.1c0,4.4,0,8.9,0,13.3c0,1.6-0.2,2.4-2.1,2.4c-1.8,0-2.3-0.6-2.2-2.3c0.1-4,0-8,0-12c0-2.2-0.3-4.2-3-4.4
		c-3.1-0.3-5.3,1.1-5.8,3.8c-0.7,4.1-0.3,8.3-0.3,12.4c0,2-0.5,2.7-2.5,2.5c-1.4-0.1-1.8-0.5-1.8-1.9c0.1-4,0-8,0-12
		c0-2.1,0-4.3-2.6-4.8c-2.6-0.6-5,1-6,3.6c-0.9,2.4-0.3,4.9-0.5,7.4c-0.1,1.7-0.1,3.4,0,5.1c0,1.5,0.2,2.7-2.1,2.7
		c-2.1,0-2.2-0.9-2.2-2.6c0.1-5.9,0-11.7,0.1-17.6c0-0.9-0.6-2.3,1.3-2.3C289.7,245.1,291.5,244.4,291.4,247z"/>
	<path fill="#9B9B9A" d="M391,260.3c-1,5.5-5.4,8.2-10.9,7.8c-4.5-0.3-8.3-3.8-9.2-8.7c-1.1-6.5,1.1-11.5,5.9-13.8
		c3.6-1.7,7.1-1.3,10.2,1c3.4,2.5,4.1,6.2,4.2,10.1c0,1.4-0.9,1.2-1.8,1.2c-4,0-8,0.2-12-0.1c-2.6-0.1-2.3,1-1.6,2.6
		c1.5,3.6,7,5.3,9.9,1.7C387.6,259.7,387.7,259.8,391,260.3z M380.7,253.6c1.5,0,3,0,4.5,0c0.9,0,1.4-0.5,1-1.3
		c-0.9-1.5-1.7-3.2-3.7-3.4c-2.2-0.2-4.4-0.2-5.9,1.9c-0.6,0.8-1.3,1.7-0.9,2.6c0.3,0.7,1.4,0.2,2.2,0.3
		C378.8,253.6,379.8,253.6,380.7,253.6z"/>
	<path fill="#9B9B9A" d="M163.5,260.2c-1.2,6.2-5.7,8.2-10.8,7.9c-4.6-0.3-8-3.4-9.4-8.5c-1.9-6.6,2.5-14.3,9.2-14.9
		c7.1-0.7,11.8,5.8,11.2,12c-0.1,1.4-0.9,1.3-1.8,1.3c-4.1,0-8.2,0-12.3,0c-1.7,0-2.1,0.3-1.5,2.1c0.9,2.6,2.8,3.7,5.2,4.2
		c2,0.4,4-0.4,4.8-2.1C159.3,259.3,161.3,260,163.5,260.2z M147.9,253.6c3.2,0,6.2-0.1,9.2,0c2.2,0.1,1.9-1,1.1-2.3
		c-1.3-2.3-3.5-2.9-5.9-2.5C149.9,249.3,148.3,250.7,147.9,253.6z"/>
	<path fill="#9B9B9A" d="M227,257.9c-2,0-4.1,0.1-6.1,0c-1.5-0.1-1.9,0.5-1.5,1.9c0.8,2.9,3,4.2,5.6,4.4c2.2,0.2,4.3-0.7,5.2-2.8
		c1-2.3,2.9-1.5,3.9-1c1.4,0.6,0.2,2-0.3,2.9c-1.8,3.6-5.5,5.4-10.3,4.8c-4-0.6-7-2.7-8.3-6.8c-1.6-5.3-1.2-10,3.1-14
		c5.2-4.8,13.6-2.8,15.9,4c2.1,6.3,1.9,6.7-4.6,6.7C228.8,257.9,227.9,257.9,227,257.9z M230.5,253.6c-1-3-2.3-4.8-5.3-4.8
		c-2.5,0-4.4,0.8-5.5,3.2c-0.5,1.1-0.5,1.6,0.9,1.6C223.8,253.6,227,253.6,230.5,253.6z"/>
	<path fill="#9B9B9A" d="M447.2,247.7c4.5-4.4,11.5-4.1,14,0.8c0.4,0.8,0.5,1.5,0.5,2.3c0,4.9-0.1,9.8,0,14.7c0,1.7-0.5,2.1-2.1,2.1
		c-1.5,0-2.3-0.3-2.2-2c0.1-4,0-8,0-12c0-3.5-1-4.6-3.9-4.7c-3.4-0.1-5.6,1.8-5.7,4.9c-0.1,3.7-0.1,7.5,0,11.2
		c0,1.8-0.1,2.8-2.4,2.7c-2,0-2.6-0.6-2.5-2.6c0.1-5.9,0.1-11.7,0-17.6c0-1.3-0.1-2.4,1.8-2.4C446.5,245.1,447.7,245.1,447.2,247.7z
		"/>
	<path fill="#9B9B9A" d="M516.8,257.1c0-1.6-0.1-3.2,0-4.8c0.1-1.9,0-3.4-2.5-3c-1.4,0.2-1.3-1-1.2-1.8c0.1-0.8-0.6-2.5,0.9-2.3
		c3.4,0.4,2.8-1.9,2.8-3.8c0-1.4-0.4-2.7,2-2.8c2.3,0,2.5,1.1,2.3,2.7c-0.3,2.6,0,4.4,3.3,3.8c1.7-0.3,1.5,1.1,1.5,2.1
		c0,1,0.3,2.4-1.5,2.1c-3.3-0.6-3.6,1.2-3.4,3.8c0.2,2.5,0,5,0.1,7.5c0,2,0.7,3.5,3.1,3.2c1.5-0.2,1.7,0.7,1.7,1.9
		c0,1.4-0.4,2-1.8,1.8c-1.2-0.1-2.5,0.1-3.7-0.1c-2.2-0.4-3.5-1.7-3.5-4C516.7,261.4,516.8,259.2,516.8,257.1z"/>
	<path fill="#9B9B9A" d="M85.5,248.2c1.6-2,3.4-3.2,5.7-3.6c0.8-0.1,2.1-0.4,1.9,1c-0.2,1.3,1.2,3.4-1.1,3.7
		c-4.1,0.4-6.1,2.7-6.2,7.6c-0.1,2.9-0.1,5.9,0,8.8c0.1,2.2-1.3,1.8-2.6,1.9c-1.4,0.1-2.3,0-2.3-1.9c0.1-6,0.1-12.1,0-18.1
		c0-1.4-0.1-2.5,2-2.5c1.9,0,2.5,0.7,2.3,2.5C85.1,247.6,85.2,247.7,85.5,248.2z"/>
	<path fill="#F9BE0D" d="M94.1,137.7c-28.1,0-56.2,0-84.3,0c0.4-1.3,1.5-0.7,2.3-0.7c26.6,0,53.2,0,79.8,0
		C92.6,137,93.7,136.4,94.1,137.7z"/>
	<path fill="#F9BE0D" d="M9.8,151c0.1,0.1,0.1,0.2,0.2,0.4c0,0-0.1,0.1-0.2,0.1C9.8,151.4,9.8,151.2,9.8,151z"/>
	<path fill="#9B9B9A" d="M22.8,265.7c0.2-0.2,0.3-0.8,0.6-0.5c0.3,0.2,0.1,0.6-0.3,0.8C23.1,265.8,23,265.8,22.8,265.7z"/>
</g>
</svg>
