<?xml version="1.0" encoding="utf-8"?>
<!-- Generator: Adobe Illustrator 18.1.1, SVG Export Plug-In . SVG Version: 6.00 Build 0)  -->
<svg version="1.1" id="Calque_1" xmlns="http://www.w3.org/2000/svg" xmlns:xlink="http://www.w3.org/1999/xlink" x="0px" y="0px"
	 viewBox="0 0 598 283.5" enable-background="new 0 0 598 283.5" xml:space="preserve">
<rect x="327.6" y="65.3" width="260.9" height="28.7"/>
<rect x="11" y="10.4" width="577.6" height="28.7"/>
<rect x="11" y="240.6" width="577.6" height="28.7"/>
<rect x="327.6" y="122.9" width="260.9" height="28.7"/>
<rect x="327.6" y="180.2" width="260.9" height="28.7"/>
<path d="M216.7,87.2c0-17.8,10-22,26.7-22h29.8c16.8,0,26.7,4.2,26.7,22v18.1c0,17.8-10,22-26.7,22h-29.8c-16.8,0-26.7-4.2-26.7-22
	V87.2z M235.8,99.5c0,8.8,1.8,12.2,10.6,12.2h23.8c8.8,0,10.6-3.4,10.6-12.2V93c0-7.5-1.8-12.2-11.7-12.2h-21.8
	c-9.8,0-11.7,4.6-11.7,12.2V99.5z"/>
<path d="M216.7,148.2h57.5c19.1,0,25.8,6.1,25.8,21.1v18.4c0,15-6.7,21.1-25.8,21.1h-57.5V148.2z M235.7,193.3h33.8
	c8.2,0,11.3-2.3,11.3-10.9v-8.2c0-8.6-3.2-10.9-11.3-10.9h-33.8V193.3z"/>
<path d="M11,65.3h28.8l34.9,44.1h0.2V65.3h18.6v60.7H64.7L29.7,81.9h-0.2v44.1H11V65.3z"/>
<path d="M11,148.2h28.8l34.9,44.1h0.2v-44.1h18.6v60.7H64.7l-34.9-44.1h-0.2v44.1H11V148.2z"/>
<path d="M142.9,65.3h24.2l33.4,60.7h-20.7l-5.8-10.7h-37.7l-5.4,10.7H110L142.9,65.3z M143.2,102.1H167l-12.1-22.8L143.2,102.1z"/>
<path d="M114.6,148.2h79.9v14.1H137v9.7h54.5v12.6H137v9.7h58.8v14.6h-81.2V148.2z"/>
</svg>
