<?xml version="1.0" encoding="utf-8"?>
<!-- Generator: Adobe Illustrator 18.1.1, SVG Export Plug-In . SVG Version: 6.00 Build 0)  -->
<svg version="1.1" id="spi_vide" xmlns="http://www.w3.org/2000/svg" xmlns:xlink="http://www.w3.org/1999/xlink" x="0px" y="0px"
	 viewBox="0 0 273 163.5" enable-background="new 0 0 273 163.5" xml:space="preserve">
<path fill="#004B93" d="M108.8,91.5h-8.7v-8h8.7V91.5z M108.8,121.4h-8.7V93.3h8.7V121.4z"/>
<path fill="#004B93" d="M136.8,121.4h-10.2c-1.3,0-2.4-0.1-3.4-0.2c-1-0.1-1.9-0.3-2.8-0.5c-1.6-0.5-3-1.4-4.3-2.6
	c-0.6-0.6-1.1-1.3-1.6-2.1c-0.5-0.8-1-1.7-1.4-2.6c-0.3-0.9-0.6-1.8-0.8-2.8c-0.2-0.9-0.3-2-0.3-3.1c0-2.1,0.3-4.1,1-5.9
	c0.7-1.8,1.7-3.4,3-4.9c1.2-1.1,2.6-1.9,4.3-2.5c1.7-0.6,3.7-0.8,6.2-0.8h10.2v7.1h-8.1c-1.7,0-3,0.1-4.1,0.3
	c-1,0.3-1.8,0.7-2.3,1.2c-1.2,1.1-1.7,2.9-1.7,5.5c0,1.5,0.3,2.7,0.8,3.7c0.4,1,1.1,1.8,2.1,2.5l1.7,0.6c0.5,0.1,0.9,0.1,1.4,0.2
	c0.5,0,1.2,0.1,2.2,0.1h8.1V121.4z"/>
<path fill="#004B93" d="M166.8,121.4h-8.4v-16.9c0-1.7-0.3-2.8-0.8-3.3c-0.4-0.3-0.7-0.5-1.2-0.6c-0.5-0.1-1.2-0.2-2-0.2l-4.9,0.1
	v20.9h-8.3V83.5h8.3v9.8h5.5c4.2,0,7.1,0.8,9,2.4c1.8,1.6,2.7,4.3,2.7,8L166.8,121.4z"/>
<path fill="#004B93" d="M198.8,121.4h-19.6c-2.7,0-4.9-0.7-6.5-2.2c-1.6-1.4-2.4-3.5-2.4-6.2c0-3.3,0.9-5.6,2.7-7.1
	c1.8-1.4,4.6-2.1,8.6-2.1h8.6c0-1.3-0.4-2.3-1.2-2.9c-0.8-0.5-2.3-0.8-4.6-0.8h-12.3v-6.8h15c3.8,0,6.7,0.9,8.7,2.6c2,1.8,3,4.4,3,8
	V121.4z M190.2,114.6v-4.2h-7.6c-1.5,0-2.5,0.1-3,0.4c-0.5,0.3-0.7,0.9-0.7,1.8c0,0.7,0.2,1.2,0.5,1.5c0.2,0.1,0.5,0.2,0.9,0.3
	c0.4,0.1,1,0.1,1.7,0.1H190.2z"/>
<path fill="#004B93" d="M224.2,105.8h-8v-4.2c0-0.8-0.1-1.3-0.3-1.5c-0.2-0.2-0.5-0.3-0.8-0.3c-0.3,0-0.8-0.1-1.4-0.1h-1.8v21.7
	h-8.3V93.3H216c3,0,5.1,0.6,6.2,1.7c0.6,0.5,1,1.3,1.4,2.2c0.3,1,0.5,2.1,0.5,3.5L224.2,105.8z"/>
<path fill="#004B93" d="M255.1,121.4H241c-4.3,0-7.6-1.3-10-3.8c-2.4-2.5-3.6-6.1-3.6-10.7c0-1.9,0.2-3.6,0.7-5.1
	c0.2-0.8,0.5-1.5,0.9-2.2c0.4-0.7,0.8-1.4,1.4-2.1c1.3-1.6,2.7-2.7,4.4-3.4c1.7-0.6,4-0.9,6.7-0.9h5.4v-9.8h8.2V121.4z M246.9,114.4
	v-14.1h-3.7c-2.7,0-4.5,0.5-5.6,1.6c-1,1.1-1.6,3-1.6,5.6c0,2.5,0.5,4.2,1.4,5.3c0.5,0.5,1.2,0.9,2.1,1.2c0.9,0.3,1.9,0.4,3.1,0.4
	H246.9z"/>
<g>
	<path fill="#004B93" d="M73.5,139.3c-15.6,1.1-27.9-2.2-30.6-3c-3.8-4.8-23.8-32.1-23.8-61.4c0-3.7,0.3-7.5,1.1-11.2
		c5.5-28.6,31.4-39.2,36.5-41c15,11.5,20.4,26.1,23.1,40.6l4.5,3.2c-2.5-16.4-8-34.1-26-47.5l-0.8-0.6l-0.9,0.3
		c-0.3,0.1-33.6,10.4-40.1,44.3C9.4,98.8,37,135.2,40.2,139.2l0.4,0.5l0.6,0.2c0.8,0.3,19.2,6.3,41.7,2.2L73.5,139.3z"/>
</g>
<g>
	<g>
		<path fill="#004B93" d="M45.4,75l6.8,22.4c0,0,4.6-34.5,11.7-34.6c6.9-0.1,12.1,34.6,12.1,34.6L82.5,75c0,0,11.7,6.3,12,8.9
			c0.6,5.1-10.1,37.3-11.6,37.5c-5.7,1.1-12.6,0-12.6,0l-6.2-19.5l-6.3,19.5c0,0-10.7,1.3-12.6,0c-2.9-1.9-12.9-33.8-11.6-37.7
			C35.1,79.9,45.4,75,45.4,75z"/>
	</g>
</g>
<g>
	<path fill="#004B93" d="M90.7,62.9c1.8,0,3.3,1.5,3.3,3.3c0,1.8-1.4,3.3-3.3,3.3c-1.8,0-3.3-1.5-3.3-3.3
		C87.4,64.4,88.8,62.9,90.7,62.9L90.7,62.9z M90.6,63.6c-1.4,0-2.5,1.2-2.5,2.6c0,1.5,1.1,2.6,2.5,2.6c1.4,0,2.5-1.2,2.5-2.6
		C93.2,64.8,92,63.6,90.6,63.6L90.6,63.6z M90.1,68.1h-0.8v-3.6c0.3,0,0.6-0.1,1.2-0.1c0.6,0,1,0.1,1.3,0.3c0.2,0.2,0.3,0.4,0.3,0.8
		c0,0.4-0.3,0.7-0.7,0.8v0c0.3,0.1,0.5,0.4,0.6,0.9c0.1,0.6,0.1,0.8,0.2,0.9h-0.8c-0.1-0.1-0.1-0.5-0.2-0.9
		c-0.1-0.4-0.3-0.6-0.7-0.6h-0.4V68.1z M90.1,66h0.4c0.5,0,0.8-0.1,0.8-0.5c0-0.3-0.2-0.5-0.7-0.5c-0.2,0-0.3,0-0.4,0V66z"/>
</g>
</svg>
