<?xml version="1.0" encoding="utf-8"?>
<!-- Generator: Adobe Illustrator 18.1.1, SVG Export Plug-In . SVG Version: 6.00 Build 0)  -->
<svg version="1.1" xmlns="http://www.w3.org/2000/svg" xmlns:xlink="http://www.w3.org/1999/xlink" x="0px" y="0px"
	 viewBox="3623 1302.9 49 64.7" enable-background="new 3623 1302.9 49 64.7" xml:space="preserve">
<g id="Fond_bleu" display="none">
	<rect x="3623" y="1302.9" display="inline" fill="#033352" width="49" height="64.7"/>
</g>
<g id="Calque_1">
	<g>
		<path fill="#C43433" d="M3664,1363.3c0,0-0.1,0-0.2,0c-5.5-0.1-11,0-16.5,0c-5.5,0-11-0.1-16.5,0c-2,0-2.4-0.6-2.4-2.5
			c0-1.7,0.3-2.4,2.2-2.4c1.1,0,2.1,0,3.2,0c10.1,0.1,20.1,0.1,30.2,0c2,0,2.2,0.9,2.2,2.4C3666.2,1362.6,3665.8,1363.3,3664,1363.3
			z"/>
		<path fill="#C43433" d="M3651.9,1318.3c3.9,12.3,7.9,24.7,12,37.4c-3.9,0-7.5,0-11.1,0c-1.2,0-1.4-0.7-1.4-1.7
			C3651.3,1342.2,3651.3,1330.3,3651.9,1318.3z"/>
		<path fill="#C43433" d="M3649,1309.8c0,6.9,0,13.9,0,20.9c0,0-0.1,0-0.2,0c0,7.4-0.1,14.7,0,22.1c0.1,2.4-0.8,3-3,2.9
			c-4-0.2-8-0.1-12.1,0c-1.3,0-2-0.2-1.9-1.7c0.8-14,2.1-27.8,7.4-41c0.8-2,2-3.8,3-5.7c0.4-0.8,1-1.2,1.8-1.4
			c0.3,0,0.6-0.1,0.9-0.1C3649,1305.7,3649,1305.7,3649,1309.8z"/>
	</g>
</g>
<g id="_x30_">
</g>
<g id="Calque_6">
</g>
<g id="Layer_1">
</g>
<g id="Logo">
</g>
</svg>
