<?xml version="1.0" encoding="utf-8"?>
<!-- Generator: Adobe Illustrator 18.1.1, SVG Export Plug-In . SVG Version: 6.00 Build 0)  -->
<svg version="1.1" xmlns="http://www.w3.org/2000/svg" xmlns:xlink="http://www.w3.org/1999/xlink" x="0px" y="0px"
	 viewBox="1365.1 1008 595.3 841.9" enable-background="new 1365.1 1008 595.3 841.9" xml:space="preserve">
<g id="Fond_bleu" display="none">
	<rect x="1365.1" y="1008" display="inline" fill="#033352" width="595.3" height="841.9"/>
</g>
<g id="Calque_1">
</g>
<g id="_x30_">
	<g id="LWPOLYLINE_151_">
		<polyline fill="none" stroke="#FFFFFF" stroke-linecap="round" stroke-linejoin="round" stroke-miterlimit="10" points="
			1402.7,1392.2 1402.1,1392.2 1401.7,1392.2 1401.6,1391.9 1401.5,1391.8 1401.1,1391.7 1400.9,1391.4 1401,1391.2 1401.3,1391 
			1401.8,1391.1 1401.9,1390.8 1402.1,1390.8 1402.3,1391 1402.4,1391.1 1402.8,1391.2 1402.8,1391.3 1402.7,1391.6 1402.6,1391.8 
			1402.7,1392 1402.7,1392.2 		"/>
	</g>
	<g id="LWPOLYLINE_146_">
		<polyline fill="none" stroke="#FFFFFF" stroke-linecap="round" stroke-linejoin="round" stroke-miterlimit="10" points="
			1403.7,1391.6 1403.3,1391.8 1403.1,1392 1403.1,1392.1 1403.2,1392.6 1403.5,1392.9 1403.8,1392.9 1403.9,1393.1 1404.1,1393.1 
			1404.2,1392.9 1404.4,1393.1 1405.2,1393.1 1405.3,1393.4 1405.4,1393.5 1405.8,1393.2 1406,1393.1 1406.3,1393.2 1406.7,1393.3 
			1407,1393.1 1407.1,1392.9 1406.8,1392.7 1406.4,1392.7 1406,1392.8 1405.7,1392.5 1405.5,1392.3 1405.3,1392.3 1405.2,1392.1 
			1404.8,1391.9 1404.4,1391.8 1404.2,1391.7 1403.9,1391.6 1403.7,1391.6 		"/>
	</g>
	<g id="LWPOLYLINE_2_">
		<polyline fill="none" stroke="#FFFFFF" stroke-linecap="round" stroke-linejoin="round" stroke-miterlimit="10" points="
			1404.8,1389.8 1404.9,1390.1 1405.5,1390.3 1405.6,1390.7 1406.3,1390.9 1406.9,1391.2 1407.3,1391.5 1407.6,1391.4 1408.4,1392 
			1408.8,1392 1409.1,1391.8 1409.1,1391.6 1408.5,1391.3 1406.4,1390.2 1405.4,1389.8 1404.8,1389.8 		"/>
	</g>
	<g id="LWPOLYLINE_39_">
		<polyline fill="none" stroke="#FFFFFF" stroke-linecap="round" stroke-linejoin="round" stroke-miterlimit="10" points="
			1406.8,1386.6 1406.6,1387.1 1407,1387.4 1407.4,1387.5 1407.6,1387.1 1407.4,1386.8 1407.1,1386.6 1406.8,1386.6 		"/>
	</g>
	<g id="LWPOLYLINE_40_">
		<polyline fill="none" stroke="#FFFFFF" stroke-linecap="round" stroke-linejoin="round" stroke-miterlimit="10" points="
			1413.7,1389.6 1414.3,1390 1414.2,1390.5 1414,1391 1413.5,1391 1412.9,1390.9 1412.1,1390.6 1411.7,1390.1 1411.7,1389.8 
			1412.1,1389.4 1412.8,1389.3 1413.4,1389.5 1413.7,1389.6 		"/>
	</g>
	<g id="LWPOLYLINE_41_">
		<polyline fill="none" stroke="#FFFFFF" stroke-linecap="round" stroke-linejoin="round" stroke-miterlimit="10" points="
			1423.7,1397.8 1422.9,1398.4 1422.9,1398.7 1423.8,1399.3 1424.3,1399.6 1424.7,1399.4 1424.9,1399.6 1425.3,1399.7 
			1425.8,1399.9 1426.7,1399.7 1427.2,1399.4 1427.4,1399.4 1427.8,1399.5 1428.1,1399.5 1428.5,1398.5 1428.1,1398.1 
			1427.4,1398.2 1426.7,1398.3 1426.4,1398.6 1425.9,1398.6 1425.7,1398.4 1425.4,1398.7 1425.2,1398.8 1424.7,1398.8 
			1424.4,1398.4 1424.2,1398.4 1424.1,1398 1423.9,1397.8 1423.7,1397.8 		"/>
	</g>
	<g id="LWPOLYLINE_42_">
		<polyline fill="none" stroke="#FFFFFF" stroke-linecap="round" stroke-linejoin="round" stroke-miterlimit="10" points="
			1429.2,1407.1 1428.9,1407.2 1428.6,1406.9 1428.4,1406.8 1428.1,1406.9 1427.9,1406.5 1427.9,1406.2 1428.2,1406 1428.4,1406.2 
			1428.7,1406.1 1429,1406.1 1429,1406.4 1429.2,1406.7 1429.2,1407.1 		"/>
	</g>
	<g id="LWPOLYLINE_43_">
		<polyline fill="none" stroke="#FFFFFF" stroke-linecap="round" stroke-linejoin="round" stroke-miterlimit="10" points="
			1580.5,1297.1 1581.3,1297.4 1581.2,1297.8 1581,1297.9 1581.3,1298.1 1582.3,1298.1 1582.6,1298.1 1583,1297.8 1582.6,1297.7 
			1582.8,1297.4 1583,1297.5 1583.2,1297.5 1583.5,1297.4 1583.7,1297.5 1584.2,1297.6 1584.2,1297.1 1584.6,1297.4 1584.6,1297.6 
			1584.8,1297.9 1585.1,1298.1 1585.7,1298.2 1585.8,1298.1 1585.8,1297.8 1586.1,1298 1586.2,1298.2 1586.4,1298.3 1587,1298.5 
			1587.2,1298.5 1587.5,1298.4 1587.6,1298.9 1587.8,1299.3 1588.2,1299.1 1588.5,1299.1 1588.7,1299.1 1589.3,1299.4 
			1589.6,1299.7 1589.7,1300 1589.8,1300.1 1590.1,1300.1 1590.3,1300.5 1590.2,1300.9 1590.1,1301.4 1590.4,1301.6 1590.5,1301.7 
			1590.7,1301.7 1590.7,1301.5 1590.6,1301.4 1590.5,1301.1 1590.6,1300.7 1590.8,1300.6 1591.2,1300.7 1591.4,1300.7 
			1591.7,1300.9 1591.9,1300.9 1591.9,1300.6 1591.7,1300.5 1591.8,1300.3 1592.1,1300.6 1592.3,1300.4 1592.3,1300.3 1592.6,1300 
			1593,1300 1593.2,1300.1 1593.3,1300.4 1593.3,1300.6 1593.1,1300.8 1592.6,1300.8 1592.4,1300.8 1592.3,1300.7 1592,1300.7 
			1592,1300.9 1592.4,1301 1592.4,1301.3 1592.4,1301.5 1592.7,1301.6 1593.2,1301.5 1593.2,1301.3 1593.6,1301.4 1593.8,1301.3 
			1593.9,1301.1 1594.2,1301.1 1594.5,1301.2 1594.6,1301.2 1594.7,1301 1595.1,1301.1 1595.3,1301.4 1594.9,1301.6 1595.1,1301.8 
			1595.2,1302 1595.3,1302 1595.1,1302.3 1594.9,1302.5 1594.6,1302.6 1594.5,1302.8 1594.7,1302.8 1594.8,1302.9 1594.8,1303.2 
			1594.8,1303.4 1594.8,1303.5 1594.6,1303.6 1594.6,1303.7 1595,1303.9 1595.3,1304 1595.4,1304.1 1595.6,1304.1 1595.6,1303.9 
			1595.7,1303.7 1595.8,1303.7 1596,1303.8 1596.2,1303.9 1596.3,1304.1 1596.3,1304.2 1596.3,1304.2 1596.4,1304.3 1596.5,1304.3 
			1596.6,1304.3 1596.7,1304.2 1596.8,1304.1 1596.9,1304 1597,1304 1597.2,1303.9 1597.2,1303.8 1597.3,1303.7 1597.5,1303.7 
			1597.4,1303.9 1597.3,1304 1597.2,1304.2 1597.2,1304.3 1597.2,1304.4 1597.4,1304.4 1597.4,1304.5 1597.4,1304.8 1597.3,1305 
			1597.2,1305.1 1596.9,1305 1596.9,1305.2 1596.9,1305.4 1597.3,1305.5 1597.5,1305.5 1597.6,1305.6 1598.3,1305.8 1598.4,1306 
			1598.6,1306.3 1598.6,1306.3 1598.4,1306.7 1598.3,1307.1 1598.1,1307.4 1597.9,1307.6 1597.8,1307.8 1597.7,1307.8 
			1597.7,1307.4 1597.5,1307.2 1597.2,1307.1 1597.1,1307.1 1597.2,1306.8 1597,1306.5 1596.7,1306.4 1596.5,1306.6 1596.5,1306.8 
			1596.6,1307.1 1596.9,1307.3 1597.1,1307.3 1597.3,1307.5 1597.5,1307.9 1597.5,1308.3 1597.5,1308.7 1597.9,1309 1598.8,1309.9 
			1599.1,1310.2 1599.8,1311.3 1600.3,1311.6 1600.8,1312.2 1601,1312.8 1601.3,1313 1602.2,1313.1 1602.5,1313.4 1602.6,1313.9 
			1602.8,1313.9 1603.2,1313.8 1603.5,1313.9 1603.6,1314.3 1603.9,1314.5 1604,1314.3 1604.3,1314.6 1604.5,1314.7 1604.6,1314.3 
			1604.9,1314.2 1605.3,1314.4 1605.3,1314.8 1604.7,1315.1 1604.4,1315.5 1604.4,1315.9 1604.6,1316 1604.8,1316 1605.1,1316.5 
			1605.6,1317 1605.5,1317.4 1605.2,1317.6 1605.4,1318.2 1605.4,1318.6 1605.1,1318.9 1604.8,1319.1 1604.9,1319.4 1604.7,1319.6 
			1604.5,1319.6 1604.5,1319.5 1604.7,1318.9 1604.6,1318.5 1604.4,1318.2 1604.5,1317.5 1604.3,1317.3 1603.7,1317.4 
			1603.5,1317.2 1603,1316.9 1602.9,1317.2 1603.1,1317.4 1603,1317.7 1603.1,1318 1603.8,1318.5 1604.2,1319 1604.2,1319.4 
			1604.3,1320.9 1604.5,1320.7 1605.2,1321.3 1605.9,1321.6 1606,1321.9 1606.2,1322.3 1606.6,1322.2 1606.7,1322.6 1607.3,1322.8 
			1607.6,1323.4 1607.8,1323.7 1608.1,1324.8 1608.3,1325.7 1608.4,1326.2 1608.8,1327.4 1609.1,1328.1 1608,1326.3 1607.9,1325.1 
			1607.6,1324.4 1606.9,1324 1605.6,1322.7 1605.6,1322.6 1605.8,1322.3 1605.6,1322.2 1605.3,1322.2 1605.1,1322.4 1604.9,1322.8 
			1604.8,1323.2 1604.3,1330.5 1604.1,1331.8 1604.2,1332 1604.6,1331 1604.9,1330.5 1605.2,1330.6 1605.7,1331.3 1605.9,1331.7 
			1605.2,1331.7 1604.9,1331.5 1604.6,1331.6 1604.5,1332 1604.4,1332.2 1604.1,1332.6 1604.1,1333 1603.7,1337 1602.9,1340.6 
			1602.9,1341.9 1602.1,1343.3 1601.6,1344.2 1600.7,1344.7 1600.3,1344.7 1600.1,1344.6 1599.5,1345 1599.2,1345.3 1597.9,1345.4 
			1597.7,1345.6 1597.3,1345.4 1597.2,1345.4 1596.3,1345.4 1596,1345.2 1595.7,1345 1595.2,1344.8 1594.9,1344.5 1594.4,1344.5 
			1594,1344.4 1593.7,1344.3 1593.5,1344.3 1593.2,1344 1592.9,1344.1 1592.5,1344.1 1592,1344 1591.8,1344 1591.5,1344.3 
			1591.1,1344.5 1591.1,1344.8 1590.9,1345 1590.7,1344.7 1590.5,1344.8 1590.1,1344.8 1589.8,1344.6 1589.6,1344.3 1589.3,1344.2 
			1588.5,1344.3 1588,1344.3 1587.8,1344.2 1587.9,1344 1588.3,1344.1 1588.3,1343.7 1588.1,1343.7 1587.7,1343.6 1587.4,1343.3 
			1587.1,1343.3 1586.8,1343.5 1586.4,1343.6 1586,1343.7 1585.8,1343.9 1585.4,1344.2 1585.3,1344.1 1585.3,1343.9 1585.6,1343.8 
			1585.8,1343.5 1585.5,1343.3 1585.1,1343.5 1585,1343.7 1584.3,1343.8 1583.9,1344 1583.5,1344.2 1583,1344.2 1582.8,1344.5 
			1582.2,1344.6 1581.7,1344.6 1581.2,1344.6 1580.3,1344.4 1579.8,1344.4 1579.1,1344.4 1578.5,1344.3 1577.9,1344 1577.1,1344 
			1576.8,1343.8 1576.1,1343.8 1575.8,1343.5 1575.3,1343.7 1574.6,1343.2 1574,1342.9 1573.6,1342.9 1571.6,1342.8 1570.6,1341.7 
			1569.5,1342.6 1568.8,1342.6 1568.3,1342.8 1567.7,1342.5 1566.6,1343 1565.7,1342.9 1564.2,1342.9 1563.5,1342.8 1562.3,1342.6 
			1561,1342.7 1560.6,1342.7 1559.8,1342.1 1559.3,1341.6 1558.2,1341.1 1557.6,1341.1 1557.3,1341.4 1557.1,1340.9 1556.9,1340.5 
			1556,1341.4 1555.6,1340.9 1554.6,1341.1 1554,1341.5 1553.3,1342.3 1552.3,1342.8 1552,1343.4 1552.1,1343.9 1553,1344.2 
			1552.9,1344.6 1552.8,1344.9 1552.2,1344.3 1551.7,1344.4 1550.4,1345.1 1549.4,1345.1 1548.6,1345 1548.6,1344.8 1547.4,1345.5 
			1547.7,1346.1 1546.6,1346.5 1545.5,1346.4 1545,1347.5 1544.9,1348.4 1545.3,1348.6 1544.8,1349.2 1544.8,1349.5 1545.3,1349.7 
			1545.7,1349.2 1546.1,1349.5 1546,1349.8 1546.3,1350.2 1546.2,1350.4 1546,1350.5 1546.6,1351 1547,1350.6 1547.4,1350.7 
			1546.9,1351.4 1546.7,1351.8 1546.7,1352.4 1546.5,1353 1546.8,1353.1 1546.9,1353.4 1547.3,1353.2 1547.7,1352.4 1547.9,1352.2 
			1548.3,1352.6 1548.5,1351.8 1548.8,1352.6 1548.5,1353.1 1548.4,1353.8 1548,1354.1 1548.5,1354.9 1548.9,1354.4 1549.2,1354.2 
			1549.5,1354.3 1548.8,1355.2 1548,1355.4 1548,1355.9 1548.2,1356.2 1549.1,1355.5 1549.7,1355.5 1548.6,1356.6 1548.3,1357.2 
			1547.8,1357.2 1547.8,1361.1 1548.3,1361.8 1548.7,1364 1548.7,1364.2 1549.2,1366.2 1549.9,1368.2 1547.8,1376.3 1548.6,1376.8 
			1548,1376.8 1546.5,1381.6 1546.6,1382.2 1544.5,1384.1 1544.6,1384.6 1544.6,1385.2 1544.3,1386.4 1544,1386.8 1544,1387.7 
			1544,1387.9 1543.4,1389.4 1543.5,1389.8 1543.5,1390.3 1543.8,1390.6 1544.6,1390.5 1544.9,1390.7 1545.3,1390.4 1546,1390.3 
			1546.3,1390.2 1546.7,1388.9 1547.5,1389 1547.8,1389.7 1547,1390.2 1546.6,1390.5 1546.1,1390.8 1545.5,1390.7 1545.2,1390.8 
			1545.6,1391.3 1545.8,1391.7 1545.8,1392.6 1545.5,1393.2 1545.9,1393 1546.7,1393 1547.6,1392.5 1548,1392.2 1548.6,1392.6 
			1549,1392.4 1549,1392 1549.4,1393 1548.7,1393 1548.4,1393.2 1548.7,1394.1 1548.7,1395.9 1548.2,1396.9 1548,1397.2 
			1547.8,1397.5 1548.2,1397.5 1548.5,1397.9 1548.6,1398.4 1548.5,1398.9 1548.5,1399.5 1548.7,1399.8 1548.5,1400.6 
			1548.5,1400.8 1548.6,1401.4 1548.6,1401.8 1548.5,1402.5 1548.3,1403 1548,1403.5 1548.1,1403.7 1548,1403.9 1547.9,1404.2 
			1547.6,1404.5 1547.7,1405 1547.5,1405.2 1547.4,1405.7 1547.4,1405.9 1547.6,1406.2 1548.2,1405.8 1548.7,1405.7 1549.1,1405.7 
			1549.2,1405.5 1549.4,1405.6 1549.6,1405.4 1549.9,1404.9 1550.2,1405.1 1550.6,1405.3 1550.7,1405.2 1551.1,1405.5 
			1551.5,1405.6 1551.8,1405.4 1552.2,1405.5 1552.4,1405.6 1553,1405.4 1554,1405.7 1554.6,1406 1555.2,1406.2 1556.3,1405.8 
			1556.9,1405.2 1558,1404.7 1559.6,1404.5 1560.3,1404.6 1561.1,1404.3 1561.8,1404.5 1562.4,1404.7 1563.2,1405.3 1565.2,1406.2 
			1565.6,1406.7 1566,1407.5 1566.4,1408.3 1566.2,1408.9 1566.5,1409.8 1567.1,1409.9 1567.3,1410.4 1567.5,1410.9 1567.5,1411.1 
			1567.4,1411.3 1568.3,1412.9 1568.7,1413.2 1568.7,1413.9 1569.7,1413.5 1570.2,1414.1 1570.8,1414.5 1571.2,1414.8 
			1571.8,1415.4 1572.5,1415.3 1573.2,1415.3 1573.4,1414.7 1573.4,1414.2 1573.7,1414 1574,1414.4 1574.1,1414.4 1574.2,1413.7 
			1574.7,1412.6 1575,1411.9 1575.8,1411.1 1576.7,1411.2 1577.4,1410.6 1578.1,1410.8 1579.3,1410.9 1579.7,1410.3 1580.1,1410 		
			"/>
	</g>
	<g id="LWPOLYLINE_44_">
		
			<path fill="none" stroke="#FFFFFF" stroke-linecap="round" stroke-linejoin="round" stroke-miterlimit="10" stroke-dasharray="2,4" d="
			M1408,1387.7c59.8-35.3,124.9-60.9,192.7-75.6"/>
	</g>
	<g id="LWPOLYLINE_45_">
		<path fill="none" stroke="#FFFFFF" stroke-linecap="round" stroke-linejoin="round" stroke-miterlimit="10" d="M1408,1387.7
			c-1.3,0.8-2.7,1.6-3.9,2.5c-0.1,0.1-0.2,0.2-0.3,0.3c-0.4,0.5-0.7,1-1,1.5"/>
	</g>
	<g id="LWPOLYLINE_46_">
		<polyline fill="none" stroke="#FFFFFF" stroke-linecap="round" stroke-linejoin="round" stroke-miterlimit="10" points="
			1711.7,1465.1 1709.4,1468.2 1709.2,1469.7 1710.7,1470.1 1709.2,1471.4 1707.6,1475.6 1706.2,1476.2 1699.2,1481.8 
			1704.8,1479.5 1707.7,1479 1709.7,1480.1 1714.6,1479.2 1716,1476.9 1718.4,1474.8 1720.7,1477.3 1720.7,1479.2 1716.4,1479.3 
			1711.7,1481.4 1709,1481.4 1706.2,1481.6 1704.6,1481.6 1703.9,1483.3 1702,1485.8 1699.2,1485.8 1699,1487.1 1701.3,1488.1 
			1700.5,1490.3 1702.4,1491.1 1702.3,1491.8 1698.6,1492.1 1697.4,1491 1695.1,1491.9 1694.8,1490.6 1693,1491.8 1691.3,1492.7 
			1690.1,1492.3 1690.3,1493.4 1689,1494.4 1689,1496.6 1691.6,1495.6 1695.2,1496.1 1698.1,1495.2 1698.6,1496.1 1699.7,1495 
			1701.9,1494.7 1701.9,1495.8 1701.1,1496.4 1700.1,1495.6 1699.5,1496.9 1698.7,1497.7 1695.7,1498.8 1694.8,1499.2 
			1693.5,1500.1 1692.5,1500.6 1692.1,1501.4 1692.8,1502.1 1692.3,1502.8 1691,1503.5 1691.5,1502.2 1691.2,1502 1689.2,1502.9 
			1690.5,1504.5 1691,1506 1691.6,1506.1 1693.8,1503.8 1694,1505.4 1694.7,1506.5 1694.8,1507.9 1696.2,1507.5 1698.7,1506.2 
			1699.8,1505.9 1701.3,1505 1704.4,1503.9 1705.1,1504.2 1703.7,1505.2 1701.5,1506.6 1701.5,1507 1701.6,1507.4 1700,1507.8 
			1698.8,1508 1698.3,1508.8 1698.3,1509.2 1696.2,1510.6 1695.8,1512.1 1694.9,1512.3 1695.8,1512.8 1699.1,1511.6 1700,1510.6 
			1702.6,1510.2 1705.2,1510.3 1706.9,1508.5 1706.9,1507.9 1708,1508.6 1708.8,1508.6 1708.8,1509.3 1705.1,1511.4 1704.5,1511.8 
			1702.2,1513.2 1702.2,1513.9 1705.9,1512.1 1704.5,1514 1703.2,1514.5 1701.7,1516.4 1702.5,1517 1705.2,1515.4 1706.4,1515.9 
			1708.8,1514.5 1709.1,1514.1 1709.3,1514.3 1709.4,1515.4 1709.8,1515.9 1710,1516.1 1711.6,1515.9 1712.9,1515.5 1714.9,1514.7 
			1715.5,1514 1716.3,1513.9 1717.6,1513.7 1717.8,1513.6 1718.3,1514.4 1719.1,1514.4 1719.4,1513.9 1720.5,1512.2 1723,1513.5 
			1723.4,1512.4 1723.3,1511.2 1724.1,1511.1 1726.4,1511.7 1727.2,1509.9 1727.9,1510 1730.8,1508.8 1731.5,1507.3 1731.8,1506.4 
			1731,1505.1 1733.5,1504.5 1732.4,1505.3 1732.1,1506.3 1732.2,1506.7 1734.2,1506.6 1735.3,1505.5 1737,1504.9 1736.9,1504.4 
			1738.6,1504 1739.4,1503.8 1739.4,1502.9 1740.3,1502 1740,1500.9 1740.3,1500.6 1740.6,1501.1 1740.5,1501.8 1742.7,1501.6 
			1742.9,1500.6 1745.4,1499.9 1745.8,1498.6 1744.3,1498 1744.5,1497.2 1745.4,1497 1745.9,1497.6 1747.1,1496.4 1750.4,1495.4 
			1752.9,1495.4 1753.8,1494.9 1755.1,1494.8 1754.8,1495.4 1756.1,1495.5 1757,1495.1 1757.5,1494.3 1757.5,1491.9 1758.8,1493.4 
			1758.8,1494.6 1758.7,1495.3 1760.9,1492 1761.4,1491.3 1761.6,1492.3 1760.7,1493.4 1763.6,1493.2 1766.3,1494.3 1766.5,1493.9 
			1767.7,1493.8 1768.2,1493.9 1768.9,1492.9 1768.9,1493.6 1768.7,1494.2 1769.6,1493.9 1769.8,1493.2 1770.1,1492.4 
			1766.7,1488.6 1767.9,1488.5 1768.1,1488.4 1768.9,1488.4 1770.2,1485.7 1772.1,1482.7 1772.4,1481.3 1772.1,1480.4 1771.9,1480 
			1772.9,1477.8 1773.4,1476.7 1773.8,1474.3 1774.3,1473.1 1775.2,1472.2 1776.6,1468.7 1775.5,1468 1775.6,1466.8 		"/>
	</g>
	<g id="LWPOLYLINE_47_">
		<polyline fill="none" stroke="#FFFFFF" stroke-linecap="round" stroke-linejoin="round" stroke-miterlimit="10" points="
			1808.5,1466.3 1805.4,1469.4 1804,1469.9 1801.5,1472.8 1800.9,1474.3 1801.4,1474.7 1804.3,1473.2 1805.2,1473.7 1805.4,1474.2 
			1806,1474.2 1806,1472.9 1807.3,1471.5 1809.7,1470.9 1809.8,1470.4 1811.8,1470.4 1813,1471 1813.6,1473.2 1813,1473.5 
			1813.7,1474.8 1814.6,1476.4 1814.6,1477.4 1814.3,1478.1 1813.9,1478.1 1813.3,1480.2 1814.3,1482.2 1814.7,1484.5 
			1812.7,1490.1 1809.7,1492.8 1808.5,1492.9 1805.1,1495.2 1802.4,1495.2 1800.1,1497.1 1796.9,1499.8 1796.4,1499.1 
			1795.4,1498.9 1794.6,1499.7 1794.4,1500.9 1790.1,1503 1790,1504.4 1790.7,1503.9 1792.6,1503.9 1793.6,1504.4 1793.9,1506.8 
			1791.3,1508.3 1792.4,1509.2 1792.9,1509.4 1792.7,1508.7 1797,1509.2 1796.1,1510 1795.5,1509.9 1795,1511.8 1797.2,1512.7 
			1799.1,1510.9 1800.1,1511.3 1801.2,1510.6 1802.3,1508.9 1804.1,1508.1 1804.9,1507.8 1807.4,1508 1806.9,1507 1807.3,1507.2 
			1807.6,1507.5 1808,1507.3 1809.1,1505.9 1809.6,1504.8 1809.8,1505.7 1809.8,1506.6 1808.2,1507.7 1809.4,1509.8 1812.1,1509.7 
			1813.3,1510.9 1812.5,1511.4 1811.8,1511 1810,1512.3 1810,1513.6 1811.1,1514.4 1813,1514.3 1814,1513.4 1815.8,1513.4 
			1816.1,1512.2 1818.9,1512 1819.9,1513.7 1820.8,1516 1824.1,1518 1824.4,1518.7 1827.4,1519.4 1828.9,1518.9 1830.8,1519 
			1831.8,1518.5 1832.7,1517.3 1833.3,1515.4 1835,1515.1 1836.3,1513.6 1836.8,1514.4 1837.5,1514.4 1838.9,1513.8 1841.6,1512.5 
			1847.2,1506.8 1847.7,1507.5 1844.4,1510.2 1843,1512.5 1842,1514.5 1840.7,1515.5 1840.1,1516.2 1839,1516.3 1837.9,1517.7 
			1837,1519 1836.1,1519.2 1835.4,1520.8 1835.4,1524.2 1834.3,1525.2 1832.8,1525.2 1827.2,1525.8 1825.7,1524.7 1823.9,1524.1 
			1822.5,1524.1 1819.8,1523.6 1818.2,1524.5 1815.8,1524.8 1813.7,1524.8 1812.3,1525.3 1811.4,1525.4 1811.3,1527.4 
			1812.1,1529.4 1811,1530.3 1810.1,1530.7 1809.3,1531.7 1806.9,1530.7 1805.5,1530.7 1805.2,1532.2 1804.8,1534.6 1804.8,1538.4 
			1803.3,1539.4 1802.1,1540.9 1800.9,1541.9 1800.4,1543.5 1797,1544.6 1795.5,1545.5 1795,1549.1 1793.4,1549.8 1789.1,1554.9 
			1788.2,1555 1786.7,1556.2 1785.6,1555.8 1783.6,1556.7 1782.6,1558.5 1782.6,1561.4 1785.6,1560.1 1785.6,1558.6 1788.6,1559.3 
			1791.1,1561.1 1791.1,1562.3 1792.4,1563.9 1792.8,1561.7 1794.3,1562 1795.5,1560.2 1794.7,1559.5 1794.8,1557.3 1795.5,1555.5 
			1795.9,1558.2 1797.1,1555.8 1799.3,1555.1 1800.3,1555.4 1800.9,1554.1 1800.9,1552.2 1802.1,1551.9 1802.9,1552.7 		"/>
	</g>
	<g id="LWPOLYLINE_48_">
		<polyline fill="none" stroke="#FFFFFF" stroke-linecap="round" stroke-linejoin="round" stroke-miterlimit="10" points="
			1802.9,1552.7 1806.5,1552 1807.1,1551.2 1810.3,1551.2 1812.1,1552.5 1812.1,1551.6 1813,1551.3 1813.3,1551.7 1813.6,1552.5 
			1815,1553.4 1817.6,1553.4 1818.7,1555.4 1821.7,1555.8 1822.6,1555.4 1822.6,1553.4 1824.3,1551.9 1825.5,1550.4 1824.7,1548.8 
			1825.3,1547.5 1825.7,1545.7 1826.8,1543.7 1826.5,1542.1 1827.8,1543.3 1829.9,1542.5 1830.2,1541.6 1830.9,1541.2 
			1835.8,1540.7 1837,1539.6 1841.9,1540.9 1846.1,1543.2 1846.9,1542.5 1850.4,1543.2 1851.6,1542.9 1855.2,1544 1856.2,1544 
			1856.5,1541.2 1855.6,1541.5 1854.4,1539.9 1856.9,1540.7 1860.3,1540.2 1862,1539.6 1863.6,1540.5 1864.5,1539.5 1867.7,1538.3 
			1868.3,1537.1 1867.2,1534.9 1867,1534 1869,1536.5 1870.9,1537.2 1872.5,1536.9 1872.4,1539.1 1872,1539.7 1867.8,1539.3 
			1867.2,1539.9 1864.6,1540.8 1864.1,1541.5 1865.1,1541.5 1868.7,1544 1868.6,1544.5 1869.6,1544.6 1871.4,1543.5 1871.7,1542.3 
			1872.7,1541.7 1873.1,1537.1 1873.9,1536.6 1877,1537.6 1876.9,1538.4 1878,1539.2 1879.2,1540.2 1880.7,1537.9 1886.2,1537.4 
			1889.6,1536.5 1893.3,1537.6 1896.8,1538.5 1899.2,1539.1 1900.4,1537.8 1902.9,1536.5 1906.6,1535.7 1909.8,1533.3 
			1911.7,1533.1 1913.7,1533.9 1913.8,1531.4 1914.9,1530.1 1917.6,1527.8 1921.7,1527.4 1922.3,1527.1 		"/>
	</g>
	<g id="LWPOLYLINE_49_">
		<polyline fill="none" stroke="#FFFFFF" stroke-linecap="round" stroke-linejoin="round" stroke-miterlimit="10" points="
			1919.9,1561.5 1915.3,1564.6 1908.1,1566 1904.6,1567.5 1899.8,1570.1 1897.4,1571.6 1895.4,1575.4 1896.2,1577.3 1899.6,1579.1 
			1897.6,1579.9 1896,1581.1 1894.5,1582.8 1888.6,1583.6 1886.2,1582.6 1881.2,1582.3 1879.6,1582.2 1877.7,1581 1876.4,1580.8 
			1875.1,1580.5 1873.6,1580.8 1872.7,1581.9 1871.9,1581.9 1871.3,1581.3 1871.5,1579.8 1868.5,1575.8 1869,1574.9 1870.3,1574 
			1869.1,1572.1 1867.3,1571.3 1865.6,1571.6 1864.3,1572.6 1863.3,1573 1860.5,1572.1 1858.6,1571.9 1858.1,1570.7 1856.2,1570.7 
			1855.9,1571.3 1856.3,1571.8 1856.5,1572.2 1857.8,1572.9 1858.5,1575.6 1857.4,1576.3 1857.7,1577 1858.1,1577.3 1859.3,1581.7 
			1860.7,1582.6 1861,1582.6 1861,1583.7 1861.2,1584.1 1862.4,1586 1862.5,1586 1863.1,1585.6 1863.4,1585.8 1862.9,1586.4 
			1862.9,1589.7 1863,1591 1863.4,1592.4 1864,1591.7 1863.9,1592.6 1863.6,1594.7 1863.5,1596.9 1863.7,1598.3 1863.9,1600.5 
			1864.4,1601.3 1865.9,1603.2 1863.5,1603.8 1860.8,1604.5 1858.9,1604.6 1858.1,1603.9 1857.9,1602.3 1858,1601.3 1855.4,1602.4 
			1855,1604.5 1855.5,1605.8 1853.4,1603.2 1852.1,1604.6 1850.9,1604.5 1850.6,1603.4 1849.8,1603.5 1849,1604.1 1849.3,1602.8 
			1849,1602.1 1845.7,1603.1 1845.7,1604 1844.1,1604.6 1842.5,1606.8 1841.1,1606.2 1840.6,1605.9 1839.4,1604.8 1838.9,1604.8 
			1838.5,1602.2 1836.3,1600.6 1836.3,1599.6 1835.3,1599.4 1834.7,1598.8 1835,1598.1 1835,1597.8 1834.3,1597.9 1833.5,1596.8 
			1830.9,1597.6 1828.9,1597.6 1828.5,1597.9 1827.9,1597.9 1826.7,1598.8 1826.4,1598.1 1825,1597.9 1824.2,1598.7 1824.4,1600.9 
			1824.1,1601.1 1823.6,1601.9 1823.4,1602.2 1822.8,1601.8 1820.9,1601.4 1819.7,1601.4 1819.2,1601.5 1818.8,1602.1 
			1818.7,1602.7 1818.7,1603.4 1818,1602.4 1817.2,1603.1 1816.4,1602.6 1815.8,1600.9 1814,1602 1812.8,1602 1811.7,1603 
			1810.3,1603.1 1809.1,1602.2 1807.6,1603.3 1806.3,1603.6 1805.3,1603.6 1804.8,1603.8 1804.7,1604.4 1804.2,1604.6 
			1803.3,1605.2 1801.8,1605.7 1801.3,1606.2 1800.9,1606.8 1800.7,1608.2 1800.6,1610.8 1800.6,1611.8 1800.6,1612.6 
			1800.9,1612.3 1801.9,1611.8 1803.3,1611.8 1804.4,1612 1806.1,1611.1 1807.8,1610.6 1807.3,1612 1807.7,1612.5 1808.8,1612.2 
			1810.4,1611.9 1810.1,1612.3 1810,1612.5 1811.5,1613.3 1811,1613.8 1810.4,1613.4 1810,1613.5 1809.4,1613.7 1807.7,1614.1 
			1807.7,1613.7 1807.3,1613.7 1807,1613.4 1806.5,1613.5 1805.8,1613.9 1805.4,1613.8 1805.4,1613.4 1805.3,1612.8 1805.2,1612.6 
			1804.7,1612.9 1804.6,1613.3 1804.4,1615.2 1804.9,1616.8 1806.9,1614.9 1808.2,1615.6 1809,1616.2 1809.8,1616.3 1810.3,1617.8 
			1809.8,1619.5 1805.5,1620 1802,1620.7 1801.7,1621.5 1805.2,1621.9 1807.3,1623.4 1809,1626.1 1809,1628.2 1812.5,1628.3 
			1812.5,1626.7 1813.7,1626.1 1815.1,1626.8 1816.1,1626.3 1816.3,1625.7 1816.3,1625.2 1816.9,1625.5 1817.5,1626.3 1817.9,1627 
			1818.1,1627.7 1818.7,1628 1819.4,1628.3 1819.7,1628.4 1820.8,1628.4 1821.8,1628.4 1822.3,1628.7 1822.9,1628.9 1824.8,1628.9 
			1825.3,1629.1 1827.5,1631 1828.1,1630.9 1829,1629.9 1829,1631 1829.8,1631.4 1832.8,1634.7 1833,1635 1835.4,1634.5 
			1836.3,1635.3 1836.7,1634.4 1837,1634.2 1840.7,1633.5 1840.6,1633.9 1841.3,1634.3 1841,1635 1840.8,1635.5 1840.1,1635.7 
			1838,1635.7 1837.7,1635.9 1839,1636.6 1839.7,1637.3 1842.3,1636.8 1842.4,1636.3 1845.3,1636 1846,1637.3 1845.7,1638.5 
			1846.1,1639 1844.9,1640.1 1844.4,1640.4 1845.2,1641 1845.2,1642.4 1845.7,1643.2 1846.4,1643.9 1847.3,1643.6 1848,1643.5 
			1848.8,1644.2 1849.9,1644.6 1851.9,1642.7 1854.8,1642.4 1856,1642.7 1857.6,1643.1 1853,1643.3 1852.1,1643.6 1852,1646.4 
			1850.5,1647.8 1854,1648.3 1855.6,1650.4 1852.3,1654.8 1852.3,1653 1850.7,1651.8 1850.1,1650.6 1849.4,1650.7 1850,1652.5 
			1850.7,1652.6 1852.3,1654.8 1852.8,1656.8 1854.8,1658.2 1857.3,1661.7 1858.8,1664.3 1859,1666.3 1863.3,1668.5 1864.8,1668.7 
			1866.1,1670.4 1869,1670.3 1870.2,1671.9 1870.9,1671.9 1871.9,1670.9 1872.4,1672 1871.3,1674.5 1870.9,1675.2 1872.8,1677.7 
			1873.4,1679.8 1873.1,1680.8 1873.1,1683.3 1871.9,1684 1872.1,1685.3 1870.8,1685.8 1870,1688.3 1871.1,1689.5 1874.1,1690.7 
			1875,1691.9 		"/>
	</g>
	<g id="LWPOLYLINE_50_">
		<polyline fill="none" stroke="#FFFFFF" stroke-linecap="round" stroke-linejoin="round" stroke-miterlimit="10" points="
			1869.4,1675.8 1868.8,1674.5 1866.6,1674 1865.9,1673.4 1865.5,1674.4 1869.4,1675.8 		"/>
	</g>
	<g id="LWPOLYLINE_51_">
		<polyline fill="none" stroke="#FFFFFF" stroke-linecap="round" stroke-linejoin="round" stroke-miterlimit="10" points="
			1847.6,1659 1848.1,1660.3 1849.4,1660.3 1847.6,1659 		"/>
	</g>
	<g id="LWPOLYLINE_52_">
		<polyline fill="none" stroke="#FFFFFF" stroke-linecap="round" stroke-linejoin="round" stroke-miterlimit="10" points="
			1866.9,1678.7 1867.4,1680.3 1867,1681.2 1869.6,1683.4 1870,1684.5 1870.8,1684.7 1871.1,1683.5 1870.3,1681.6 1870.2,1680.7 
			1866.9,1678.7 		"/>
	</g>
	<g id="LWPOLYLINE_53_">
		<polyline fill="none" stroke="#FFFFFF" stroke-linecap="round" stroke-linejoin="round" stroke-miterlimit="10" points="
			1831.2,1640.6 1832.3,1641.5 1832.5,1641.9 1832.8,1642.5 1832.5,1642.8 1832,1642.8 1831.5,1642.4 1831.2,1642 1831.2,1641.5 
			1831.2,1640.8 1831.2,1640.6 		"/>
	</g>
	<g id="LWPOLYLINE_54_">
		<polyline fill="none" stroke="#FFFFFF" stroke-linecap="round" stroke-linejoin="round" stroke-miterlimit="10" points="
			1825.6,1632.6 1825.8,1633.1 1826.5,1633.3 1827.1,1633.3 1826.9,1633.1 1826.4,1632.6 1826,1632.5 1825.6,1632.6 		"/>
	</g>
	<g id="LWPOLYLINE_55_">
		<polyline fill="none" stroke="#FFFFFF" stroke-linecap="round" stroke-linejoin="round" stroke-miterlimit="10" points="
			1795.1,1608.5 1795.1,1609 1794.7,1609.1 1793.8,1609 1793.8,1608.9 1794.6,1608.5 1794.7,1608.4 1795.1,1608.5 		"/>
	</g>
	<g id="LWPOLYLINE_56_">
		<polyline fill="none" stroke="#FFFFFF" stroke-linecap="round" stroke-linejoin="round" stroke-miterlimit="10" points="
			1851,1587.2 1851.2,1584.9 1852.5,1585.3 1854.5,1586.6 1854.4,1587.4 1852.6,1587.3 1851,1587.2 		"/>
	</g>
	<g id="LWPOLYLINE_57_">
		<polyline fill="none" stroke="#FFFFFF" stroke-linecap="round" stroke-linejoin="round" stroke-miterlimit="10" points="
			1844.7,1579.6 1844.7,1578.2 1844.9,1577.4 1844.9,1577.1 1843.6,1578.3 1842.7,1578.7 1842.3,1579.4 1842.4,1580 1843.7,1579.7 
			1844.7,1579.6 		"/>
	</g>
	<g id="SPLINE">
		
			<path fill="none" stroke="#FFFFFF" stroke-linecap="round" stroke-linejoin="round" stroke-miterlimit="10" stroke-dasharray="2,4" d="
			M1806,1618c-2.3-0.9-4.6-1.7-6.5-3.1c-5.3-3.7-7.8-10.8-10.2-17.2c-8.1-21.9-14.6-34.6-19.8-65.9c-2.7-16.4-5.1-37.8-14.4-32.9
			c-1.5,0.8-3.3,2.3-4.3,4c-1.9,3-1.6,6.6-1.6,10.3c0.8,42.1-17.6,105.9,48.8,106.9c5.6,0.1,11.8-0.3,9.8-1.4
			C1807.4,1618.5,1806.7,1618.3,1806,1618z"/>
	</g>
	<g>
		<g id="LWPOLYLINE_58_">
			<polyline fill="none" stroke="#FFFFFF" stroke-linecap="round" stroke-linejoin="round" stroke-miterlimit="10" points="
				1876.3,1116.1 1874.1,1120.5 1872.6,1123.2 1874.6,1126.8 1874,1130.3 1873.8,1131.1 1875.2,1133.3 1878,1133.9 1878,1135.7 
				1878.8,1136.8 1881.5,1137.8 1883.3,1139 1887.1,1137.6 1888.5,1137.4 1887.7,1139.8 1887.7,1140.7 1890.3,1143.2 1888.7,1143.2 
				1886.5,1142.7 1883,1143.3 1879.3,1145.1 1877.3,1145.2 1876.2,1142.7 1874.7,1142.4 1870.9,1144.9 1867.3,1145.9 1864.1,1146 
				1859.3,1145.9 1855.7,1145.9 1854.2,1144.7 1852.9,1142.5 1852.4,1140.6 1852.6,1139.4 1853.9,1137.1 1854.1,1136 1852.9,1136.4 
				1850.6,1137.6 1848.6,1137.4 1846.4,1137.8 1845.6,1139.2 1844.5,1139.2 1843.2,1140 1842.1,1141 1841.7,1142.7 1842.6,1144.9 
				1844.3,1144.9 1845.1,1146.9 1846.7,1148.6 1846.7,1149.4 1847.2,1152 1846.1,1153.8 1844.1,1154.2 1841.2,1157.5 1842.4,1156.2 
				1842.8,1153 1842.7,1149.7 1841.3,1146.7 1840.7,1145.3 1839.9,1143.7 1838.8,1142.8 1837.6,1141.8 1835.9,1141.8 1834.6,1142.5 
				1833.3,1142.5 1832.4,1143.5 1832.8,1146.2 1832.2,1147.2 1830.7,1147.7 1828.8,1149.1 1826.9,1148 1826.9,1145.1 1826.8,1143.2 
				1826.8,1142.5 1823.4,1142.5 1821,1142.5 1818.1,1143.6 1816.7,1143.5 1816.7,1142.9 1820.6,1139.2 1820.7,1138.1 1819.4,1138.2 
				1816.7,1139.8 1814.4,1141.3 1812.5,1141.6 1810,1141.6 1807.9,1142.5 1807.9,1143.7 1805.6,1146 1802.7,1147.1 1801.5,1148.8 
				1799.9,1150.1 1799,1151.4 1798.3,1152.8 1796.3,1153 1794.3,1152.3 1793.3,1154.2 1792.2,1155.1 1791.1,1152.6 1790.6,1149.7 
				1789.9,1147.8 1787.3,1148.2 1786,1147.3 1785.2,1146.2 1783.8,1143.6 1783.3,1142.2 1776.7,1136.1 1774.9,1134.2 1775.2,1132.7 
				1774.9,1132 1773.4,1130.5 1772.1,1131 1770.3,1131.3 1768.8,1131.3 1767.6,1130.1 1767.9,1127.8 1769.5,1127 1769.1,1126.2 
				1768.7,1127.4 1766.5,1126.6 1765.6,1126.3 1764.1,1127.4 1763,1128.4 1763.2,1124.6 1763.7,1121.8 1761.2,1121.6 1757.2,1123.5 
				1755.9,1127 1755.4,1128.3 1753.9,1128.5 1754.6,1125.6 1754.6,1123.5 1753.9,1121.3 1753,1120.6 1751.7,1123 1751.7,1124.2 
				1749.7,1124.6 1748.4,1124.9 1746.8,1124.9 1745.8,1125.4 1743.1,1126.9 1741.8,1127.3 1738.5,1127.3 1738.1,1126.3 
				1736.8,1125.7 1735.3,1125 1733.7,1126.4 1732.7,1125.3 1732.2,1124.8 1731.5,1127.2 1729.8,1128.6 1727.8,1129 1729.3,1131.5 
				1731.1,1131.9 1730.7,1131.9 1730.3,1134.6 1729,1134.8 1728.9,1137.6 1728.5,1139.2 1725.8,1138.7 1722.6,1138.4 1719.7,1135.3 
				1715.3,1137.4 1713.6,1138.1 1710.9,1137.7 1709.1,1136.1 1708.2,1136.9 1704.9,1137.5 1703.4,1136 1702.6,1136 1698.6,1137.2 
				1696.6,1135.3 1694.9,1135.2 1691.3,1136.3 1688.8,1136.7 1687.3,1137 1685.7,1138.7 1682.2,1140.1 1682.2,1141 1678.9,1141.2 
				1677,1142.3 1676.5,1139.5 1676.7,1138.7 1674,1137.7 1672.4,1137.7 1670.1,1140.5 1668,1141.7 1665.2,1142.3 1663.3,1142.8 
				1661.8,1142.8 1660.2,1142.1 1658.6,1142.6 1657.6,1143.7 1658.4,1143.7 1660.5,1145 1661.6,1145.7 1663.4,1147.1 1662.2,1148.5 
				1660.8,1148.7 1659.7,1147.2 1658.3,1146.1 1656.9,1145.4 1654.8,1146 1653.8,1145.8 1658.4,1148.6 1657,1150.1 1656.2,1150.8 
				1655.9,1151.4 1655.4,1150.4 1654.6,1148.8 1653.8,1147.7 1652.8,1148 1651.5,1148.8 1650.4,1148.5 1649.5,1148.3 1646.9,1149.6 
				1645.7,1150.1 1644.5,1151.6 1643.8,1153.8 1643.4,1155 1644.7,1156.8 1643.7,1157.9 1642.5,1159 1642.5,1160.2 1640,1161.7 
				1641,1163.9 1641.8,1165.4 1642.8,1166.2 1643,1166.6 1641.9,1168 1641.9,1169.5 1646,1168.8 1647.9,1167.3 1650,1167.8 
				1652.4,1167.8 1654.4,1168.6 1656,1168 1657.5,1166.8 1658.4,1166.5 1660.2,1166.5 1661.3,1165.4 1663.7,1165.4 1667,1164.2 
				1668.3,1163.8 1669.9,1163.6 1671.3,1163 1672.7,1161.7 1674.6,1161.4 1675.6,1162.8 1674.9,1163.8 1672.8,1164.1 1670.9,1164.4 
				1669.1,1165.7 1666.4,1168.4 1666.2,1169.7 1668.1,1169.4 1669.4,1169.3 1669.8,1169.8 1671.6,1169.3 1672.8,1167.1 
				1674.3,1167.2 1675.3,1165.9 1676.1,1167.3 1676.1,1168.2 1678.3,1168.2 1677.1,1169.4 1676,1170 1675,1170.2 1677,1171.4 
				1677.8,1171.5 1678.5,1170.6 1679,1170.1 1680.1,1169.9 1680.4,1171.6 1681.1,1171.5 1681.3,1172.4 1682.8,1172.9 1684.2,1172.9 
				1685.3,1173 1685.1,1173.6 1683.6,1173.7 1682.6,1173.8 1681.8,1173.9 1680.8,1174.4 1680.8,1174.9 1682.3,1175.8 1682.9,1175.8 
				1683.7,1175.3 1684.7,1176.6 1684.8,1177.4 1683.7,1177.9 1682.8,1177.7 1681.6,1177.4 1680.3,1177.2 1678.7,1176.3 
				1677.7,1175.3 1677.6,1174.4 1678.2,1173.4 1677.2,1173.1 1675.3,1173.3 1673.4,1174.1 1671.4,1174.5 1669.6,1174.9 
				1668.6,1175.1 1667.7,1174 1667.3,1173.4 1665.7,1173.8 1664.5,1174.3 1660.2,1174.3 1659.4,1174.3 1658.6,1173.8 1658.3,1172.5 
				1658.9,1171.6 1659.7,1170.3 1659.2,1169.6 1657.6,1170 1656.8,1170.8 1656.9,1172.3 1657.4,1173 1657.1,1174.2 1656.3,1175.2 
				1655.3,1174.9 1654.8,1174.2 1654,1174.6 1655,1176.2 1655.7,1176.6 1656.8,1176.5 1657.8,1176.3 1658.8,1176.3 1659.5,1177 
				1659.2,1178.1 1658.6,1178.6 1658.3,1179 1658.4,1179.2 1658.9,1181.8 1658.7,1182.6 1658.3,1183.4 1658.1,1184.1 1658.2,1184.3 
				1659.7,1182.8 1661.3,1180.6 1662.1,1179.5 1662.2,1178.2 1662.2,1177.7 1663.4,1177.4 1665,1177.6 1665.9,1178.1 1666.4,1178.1 
				1667.1,1177.6 1668.2,1177.1 1669.1,1177.7 1668.7,1178.6 1668,1179 1668.6,1179.4 1670,1179.4 1671.1,1179.4 1671.6,1179.4 
				1671.9,1180.5 1673,1180.7 1674.2,1180.1 1674.9,1180.2 1675.5,1180.2 1676.8,1181.4 1676.9,1182.3 1677.3,1182.9 1677.3,1184 
				1677.5,1184.9 1678.3,1185 1679,1185.4 1679.3,1186 1679.4,1186.6 1679,1187.7 1679.1,1189.3 1677.9,1191 1676.9,1191.6 
				1675.4,1192.1 1674.1,1191.1 1672.3,1190.9 1670.8,1190.9 1668.5,1190.6 1666.5,1191.2 1664.8,1191.5 1663.9,1191.7 1662.3,1192 
				1660.3,1191.8 1659,1192.3 1658,1193.1 1656.5,1193.1 1654.3,1193.6 1650.4,1193.6 1648.4,1194.5 1646.3,1194.5 1647.5,1197.4 
				1652.3,1197.4 1653.4,1197.2 1654.5,1198.3 1656.2,1198.3 1657.1,1199 1658.4,1199 1659.1,1197.7 1660,1197.1 1660.6,1198.2 
				1660.6,1199.1 1661.6,1199.1 1662.7,1199.1 1663.7,1199.5 1663.7,1200.4 1664.3,1201.2 1665.2,1200.9 1666.4,1200.9 
				1668.7,1203.1 1669.7,1204.2 1670.5,1205.6 1671.3,1207.1 1672,1209.8 1672.3,1211.3 1673.2,1214.6 1673.2,1215.4 1672.3,1215.8 
				1671.6,1216.1 1671.4,1217 1671.8,1218.1 1673.1,1218.1 1674.9,1217.3 1675.4,1217.1 1677.7,1218.4 1678.8,1218.3 1679.9,1218.5 
				1681.7,1218.5 1683.2,1217.7 1684.5,1217.3 1685.5,1217.3 1686.6,1214.9 1686.6,1213.9 1685.1,1213.5 1684.3,1212.8 1684,1212.1 
				1684.4,1210.9 1685,1209.8 1685.7,1209.8 1686.5,1211.2 1686.6,1212.3 1686.7,1213 1688.8,1211.8 1689.4,1210.8 1688.6,1210.1 
				1687.6,1209.4 1687.2,1209.1 1687.5,1207.2 1687.8,1206.6 1688.9,1207.6 1689.6,1209.4 1690.3,1210 1691.4,1212 1692.9,1212.4 
				1694.5,1212.4 1695.8,1213.2 1697.7,1211.9 1698.4,1212 1698.9,1211.2 1698.8,1209.5 1697.8,1208.8 1699,1207.7 1701,1208.5 
				1702.3,1209.5 1703.3,1210.5 1703.7,1212.1 1704.8,1213.5 1705.6,1214.6 1706.1,1216.1 1707.2,1216.3 1708.1,1216.9 
				1709.2,1217.3 1709.7,1217.8 1711.9,1218.4 1713,1218.7 1714.6,1218.6 1716.4,1217.5 1716.9,1217.2 1716.3,1215.1 1715.8,1213.8 
				1716.1,1212.5 1717,1212.8 1717.7,1214.6 1717.4,1215.7 1718,1216.8 1718.6,1216.5 1718.7,1216 1719.5,1215.5 1720.6,1215.3 
				1721.8,1215 1722.4,1214.8 1723.4,1215 1724.5,1215.1 1724,1216 1723.5,1216.3 1722.5,1216.1 1721.4,1215.8 1720.6,1216.3 
				1720.1,1216.7 1719.6,1217.1 1719.5,1217.7 1720.6,1218.1 1721.1,1218.3 1721.5,1218.6 1722.7,1218 1723.2,1218 1724.5,1218.5 
				1724.4,1219.4 1725.4,1220 1726.3,1219.9 1726.9,1219.1 1728.3,1219.6 1729.1,1220.2 1730,1220 1731.3,1220.8 1731.9,1220.4 
				1731.8,1218.9 1731.7,1218.1 1732.6,1216.3 1733.2,1216.3 1733.1,1218.6 1733.3,1220.7 1733.8,1221.6 1734.3,1222 1734.4,1223.5 
				1735.8,1224.4 1738.2,1226.3 1739.2,1226.6 1740.5,1225.9 1742.3,1226.3 1743.2,1225.7 1744,1224.4 1747.5,1224.7 1748.3,1225.9 
				1749.4,1226.1 1750.3,1227.1 1749.9,1228.2 1750.7,1228.5 1753.2,1229.4 1754.2,1229.9 1755.1,1230.1 1755.1,1228.1 
				1754.6,1227.1 1755.6,1226.6 1757,1226.9 1757.4,1225.9 1758.1,1225.6 1757.4,1223.8 1757.1,1222.7 1758.7,1222.7 1759.5,1223 
				1760.7,1222.7 1760.9,1224.3 1762.3,1224.5 1762.1,1226.3 1761.4,1227.2 1760.7,1227.9 1759.3,1228.6 1758.4,1228.9 
				1757.3,1228.6 1756.2,1230.6 1756.4,1232.8 1758.9,1234.1 1760.5,1234.7 1760.4,1235.7 1762.1,1235.5 1762.4,1236 1762.7,1236.2 
				1763,1237.7 1764.6,1238.6 1766.5,1237.5 1768,1237.2 1768,1234.8 1768,1232.4 1769.2,1232.6 1769.2,1235.2 1768.9,1237 
				1768.9,1237.8 1770.8,1238.2 1771.3,1237.5 1772.8,1238.1 1773.7,1239.1 1773.9,1237.2 1772.2,1234.7 1772.9,1233.4 
				1771.9,1232.2 1771.6,1230.5 1773.2,1230.9 1774.2,1233.4 1774.3,1235.1 1775,1236.8 1777.1,1236.8 1777.4,1236.8 1778.9,1234.7 
				1780.8,1233.6 1781.8,1232.8 1784.4,1233.6 1787.1,1233.2 1788.2,1230.7 1788.7,1232.8 1788.1,1233.9 1787.8,1234.6 
				1790.9,1235.7 1791.5,1235.8 1791.5,1233.6 1792.7,1233.2 1792.7,1236 1792.7,1237 1791.3,1238 1790.6,1239.8 1789.8,1241.1 
				1787.7,1241.1 1784.3,1241.2 1782.9,1241.2 1781.4,1240.8 1779.8,1239.1 1779.1,1238.9 1777.5,1239.7 1778.8,1241.1 
				1779.4,1241.4 1781.6,1242.5 1781.7,1243.8 1782.3,1244.9 1784.9,1245.3 1786.3,1244.7 1787.7,1243.9 1790,1244.5 1793.4,1244.5 
				1794.3,1244.1 1794.5,1241.9 1796.8,1242.5 1797.6,1241.2 1799.7,1241.5 1799.2,1243.1 1801,1242.7 1801.7,1243 1802.5,1243.4 
				1803.2,1242.3 1804.5,1242.1 1806.9,1242.7 1808,1242.5 1809,1243.6 1810,1244.5 1813,1244.1 1814.3,1244 1815.8,1244 
				1816.9,1242.9 1818.2,1242.4 1819.4,1242.1 1819.9,1239.9 1819.7,1238.7 1823,1237.6 1826.5,1236.7 1821.7,1240.9 1820.2,1243.9 
				1816.7,1244.7 1815.8,1245 1815,1245.2 1813,1245.9 1812.3,1245.7 1811.7,1245.8 1811.1,1244.9 1810.6,1245.1 1809.9,1245.6 
				1809.1,1245.6 1808.2,1245.1 1807.6,1244.8 1806.9,1245.4 1807.1,1246.5 1807.1,1246.8 1807.1,1248.6 1807.6,1249.4 
				1809.3,1248.5 1809.9,1249.1 1809.9,1249.7 1809.9,1250.5 1810.4,1251.6 1812.1,1252 1813.2,1252.8 1815,1251.7 1816.3,1251.4 
				1817.3,1252.4 1819.2,1253.4 1819.4,1254.4 1817.3,1255.2 1814.9,1254.1 1814,1254.1 1811.7,1253.6 1809.8,1252.9 1807.5,1253.4 
				1806,1253.9 1804.8,1254.8 1803,1255.9 1803.5,1256.5 1804.3,1256.6 1805,1256.8 1805.8,1258.3 1806.1,1260.5 1806.7,1260.9 
				1807.6,1260.8 1808.9,1261.5 1809.3,1262.6 1808.9,1263.1 1807.8,1263.8 1807.5,1264.4 1808.4,1265.1 1809.2,1265.4 
				1809.8,1265.8 1811.3,1265.8 1812.6,1265.2 1815.5,1263.5 1817.9,1264.2 1817.7,1265 1818.6,1265.7 1819.1,1266.3 1820.8,1266.1 
				1822.8,1265.7 1824.1,1265.9 1825.7,1265.9 1826.9,1265.6 1827.7,1264.4 1829.3,1263.4 1831.3,1262.2 1832.8,1261.2 
				1834.9,1261.2 1836.5,1261.5 1838,1261.6 1839.4,1261 1840,1260.9 1843.3,1261.7 1844.6,1261.8 1845.8,1262.3 1846.7,1262.6 
				1847.8,1262.5 1848.4,1263.3 1853.1,1265.1 1855.1,1266.4 1855.1,1267.5 1855.3,1268.8 1857.1,1269.1 1858.3,1269.1 1859,1268.9 
				1862.4,1270 1864.4,1270.3 1865.6,1271.1 1867.1,1271.5 1869.9,1271.7 1872,1271.3 1871.7,1272.8 1869.3,1272.7 1867.6,1272.8 
				1865.6,1272.8 1864.6,1271.8 1863.8,1271.8 1861.7,1271.8 1860.5,1271.2 1859,1271.1 1857.6,1270.5 1856.3,1270.1 1855.2,1269.6 
				1854.1,1269.1 1850.6,1268.3 1850,1267.8 1848.3,1266.3 1846.8,1265.5 1844.6,1264.7 1841.3,1264.4 1838,1264.7 1836.3,1264.9 
				1834.3,1265.4 1832.7,1265.4 1831.9,1265.5 1831,1265.9 1831,1266.7 1830.9,1268.2 1830.3,1269.1 1831.1,1270.3 1831.6,1271.6 
				1831.6,1271.8 1830.5,1274 1830.5,1274.5 1829.1,1276.2 1828.8,1276.2 1827.2,1276 1826,1276.7 1825.5,1277.8 1826.4,1278.1 
				1828.6,1278.3 1830.8,1278.7 1833.7,1279.4 1835.3,1279.7 1837.3,1280.2 1839.9,1282.1 1841.5,1283.6 1841.8,1283.6 
				1843.2,1284.8 1843.6,1286.1 1844,1286.6 1843.2,1287.9 1842.9,1288.4 1841.5,1289.1 1839.9,1290.5 1839.7,1292.4 1840.2,1293.8 
				1838.5,1294.9 1837.2,1296 1836.2,1296.3 1835.1,1296.9 1833.8,1298.7 1832.8,1299.5 1832.5,1299.7 1831.6,1299.6 1831.4,1296.2 
				1831.8,1294.8 1831,1293.6 1829.4,1292.6 1828.4,1292.1 1826.1,1291 1826,1289.3 1825.5,1288.2 1824,1287.5 1822.6,1287.1 
				1821.5,1288.6 1822.6,1291 1824,1292.5 1825.9,1293.1 1828.1,1293.9 1829,1294.9 1829.6,1296.9 1830.2,1299 1830.9,1301.1 
				1833,1302.5 1832.4,1305 1834.5,1308.4 1837.4,1309.1 1839.1,1310.7 1841.5,1313.3 1844,1315.1 1844.5,1317 1846.4,1317.3 
				1847.4,1317.5 1851.6,1323 1853.9,1325.5 1854.4,1327 1854,1328.7 1854.7,1331.8 1855.4,1334.2 1856,1335.6 1858.3,1335.6 
				1859.3,1335.2 1862.4,1338 1863.5,1339.3 1864.7,1339.9 1866.1,1340.7 1867.7,1339.8 1869,1340 1870,1341.1 1869.7,1342.4 
				1871.4,1342.6 1872.7,1342.7 1874.5,1343.3 1875.1,1342.4 1876.8,1342.3 1878.3,1343.3 1879.2,1344.3 1880.2,1345.5 
				1881.2,1346.3 1881.3,1347.8 1881.7,1348.2 1882.8,1348.8 1883.9,1348.7 1885.1,1348.5 1887,1348.9 1887.9,1348.3 1888.9,1348.4 
				1890.3,1348.6 1891.2,1347.7 1891.9,1348.5 1892.3,1349.3 1895.3,1351.4 1896.1,1352.5 1897.6,1353 1898.4,1353.2 1899,1352.9 
				1899.1,1351.1 1900.3,1350.6 1902,1350.8 1903.8,1350.9 1905.3,1351.1 1906.4,1350.8 1906.6,1351.5 1906.7,1352.3 1906.5,1352.7 
				1906.8,1353.7 1906.3,1354.3 1907.2,1354.7 1907.4,1356.5 1905.7,1357.6 1904.3,1358.1 1903.2,1358.5 1901.3,1360.5 
				1902.1,1366.3 1902.2,1366.9 1909,1371.2 1908.3,1372.5 1909.3,1373.9 1911.2,1376.7 1911.2,1380.8 1909.2,1381 1908.7,1382.9 
				1909.6,1384 1912.6,1382.7 1915.2,1382.9 1915.4,1385.1 1914.8,1386.9 1913.2,1385.2 1910.6,1386.2 1909.4,1388.3 1909.1,1389.4 
							"/>
		</g>
		<g id="LWPOLYLINE_59_">
			<polygon fill="none" stroke="#FFFFFF" stroke-linecap="round" stroke-linejoin="round" stroke-miterlimit="10" points="
				1900.9,1390.6 1899,1387.4 1898.4,1381.4 1895.9,1380 1893.3,1380 1889.5,1378.4 1885.9,1376.9 1885.4,1377.4 1888.7,1385.9 
				1891.2,1387.7 1895.6,1390.2 1898.7,1391.4 			"/>
		</g>
		<g id="LWPOLYLINE_60_">
			<polyline fill="none" stroke="#FFFFFF" stroke-linecap="round" stroke-linejoin="round" stroke-miterlimit="10" points="
				1878.5,1361.5 1878.4,1359.8 1879.1,1359.1 1880.2,1358.6 1880.1,1357.6 1879.2,1356.7 1879,1356.7 1876.8,1357.6 1876.3,1358.6 
				1876.5,1361 1877.3,1362 1878.5,1361.5 			"/>
		</g>
		<g id="LWPOLYLINE_61_">
			<polyline fill="none" stroke="#FFFFFF" stroke-linecap="round" stroke-linejoin="round" stroke-miterlimit="10" points="
				1880.5,1361.7 1882.1,1359.6 1882.9,1359.2 1884.1,1360.5 1885.6,1360.7 1888.8,1360.6 1890.6,1362.8 1893,1362.6 1894.3,1363.7 
				1894.2,1366.2 1892.7,1366.5 1888.2,1364.7 1884.7,1362.8 1883.2,1362.6 1880.5,1361.7 			"/>
		</g>
		<g id="LWPOLYLINE_62_">
			<polyline fill="none" stroke="#FFFFFF" stroke-linecap="round" stroke-linejoin="round" stroke-miterlimit="10" points="
				1821.2,1316.6 1820.2,1317 1819.5,1317.6 1817.2,1317.1 1816.3,1316.9 1814.7,1316.4 1814,1315 1814.3,1313.9 1815.6,1314 
				1817.6,1315 1818.5,1315.1 1819.9,1315.5 1821.2,1316.6 			"/>
		</g>
		<g id="LWPOLYLINE_63_">
			<polyline fill="none" stroke="#FFFFFF" stroke-linecap="round" stroke-linejoin="round" stroke-miterlimit="10" points="
				1752.6,1254.1 1757.8,1256.4 1758.7,1257.1 1759.3,1258 1759.7,1258.9 1761.1,1260.4 1762.7,1260.4 1763.9,1260.6 1765.3,1260.6 
				1765.6,1261.3 1765.6,1262.2 1764.5,1263.9 1763.5,1263.7 1763.1,1262.9 1762.3,1262.8 1761.4,1262.8 1760.3,1262.7 
				1758.6,1261.6 1757.3,1261.6 1756.7,1262.3 1755.7,1261.9 1754.6,1261.4 1754,1260.9 1754.1,1260.4 1754.1,1259.8 1753.5,1259.2 
				1752.9,1258.7 1752.7,1258.3 1752.6,1257.4 1752.6,1256.7 1752.4,1254.4 1752.6,1254.1 			"/>
		</g>
		<g id="LWPOLYLINE_64_">
			<polyline fill="none" stroke="#FFFFFF" stroke-linecap="round" stroke-linejoin="round" stroke-miterlimit="10" points="
				1760.4,1235.7 1761,1238.9 1760.2,1241.4 1759.3,1244.1 1760.7,1246.6 1761.7,1246.7 1762.8,1247 1763.5,1247.4 1763.7,1246.6 
				1763,1245.9 1762,1244.1 1761,1241.9 1760.2,1241.4 			"/>
		</g>
		<g id="LWPOLYLINE_65_">
			<polyline fill="none" stroke="#FFFFFF" stroke-linecap="round" stroke-linejoin="round" stroke-miterlimit="10" points="
				1735,1231.2 1735.5,1231 1736.1,1231.3 1737.4,1231.2 1738.7,1231.7 1739.7,1231.7 1740.2,1232 1740.1,1232.9 1739.1,1233.3 
				1738.2,1233.4 1737.3,1233.5 1736.1,1233 1735.1,1232.8 1734.9,1232.8 1734.2,1231.6 1735,1231.2 			"/>
		</g>
	</g>
	<g id="LWPOLYLINE_150_">
		<polyline fill="none" stroke="#FFFFFF" stroke-linecap="round" stroke-linejoin="round" stroke-miterlimit="10" points="
			1551.1,1556.7 1553,1557.7 1552.7,1558.6 1552.3,1559 1553,1559.4 1555.6,1559.4 1556.5,1559.4 1557.5,1558.7 1556.6,1558.3 
			1556.9,1557.6 1557.5,1558 1557.9,1558 1558.8,1557.7 1559.3,1558 1560.6,1558.2 1560.6,1556.9 1561.5,1557.6 1561.7,1558.1 
			1562.1,1558.9 1563,1559.5 1564.5,1559.7 1564.8,1559.3 1564.7,1558.6 1565.5,1559.1 1565.7,1559.6 1566.2,1560 1567.8,1560.6 
			1568.4,1560.6 1569,1560.3 1569.5,1561.4 1569.9,1562.4 1571,1562.1 1571.6,1561.9 1572.3,1562 1573.8,1562.7 1574.6,1563.6 
			1574.9,1564.4 1575.1,1564.6 1575.9,1564.7 1576.3,1565.5 1576.1,1566.6 1575.9,1568 1576.5,1568.5 1576.9,1568.7 1577.5,1568.7 
			1577.5,1568.3 1577.1,1568 1576.9,1567.2 1577.2,1566.3 1577.6,1565.8 1578.8,1566.2 1579.3,1566 1580,1566.6 1580.4,1566.7 
			1580.4,1565.9 1580,1565.6 1580.2,1565.2 1581.1,1565.8 1581.5,1565.4 1581.6,1565.1 1582.3,1564.4 1583.3,1564.4 1583.8,1564.7 
			1584.1,1565.5 1584.1,1566 1583.6,1566.5 1582.2,1566.4 1581.7,1566.3 1581.5,1566.1 1580.7,1566.1 1580.7,1566.8 1581.9,1567.1 
			1581.9,1567.6 1581.8,1568.3 1582.6,1568.6 1583.8,1568.1 1584,1567.7 1584.9,1568 1585.5,1567.7 1585.8,1567.2 1586.4,1567.1 
			1587.1,1567.6 1587.5,1567.6 1587.8,1567 1588.8,1567.3 1589.2,1567.9 1588.3,1568.4 1588.7,1569 1589,1569.4 1589.3,1569.6 
			1588.8,1570.3 1588.3,1570.7 1587.5,1570.9 1587.3,1571.5 1587.8,1571.6 1588.1,1571.9 1588.1,1572.6 1588.1,1573 1588.1,1573.4 
			1587.5,1573.7 1587.6,1574 1588.5,1574.4 1589.3,1574.7 1589.6,1574.9 1589.9,1574.9 1589.9,1574.5 1590.3,1574 1590.6,1574 
			1591.2,1574.2 1591.7,1574.5 1591.8,1575 1591.9,1575.3 1592,1575.3 1592.2,1575.4 1592.5,1575.5 1592.8,1575.4 1593,1575.2 
			1593.3,1574.8 1593.5,1574.8 1593.7,1574.7 1594.1,1574.4 1594.3,1574.1 1594.6,1573.9 1594.9,1574 1594.6,1574.4 1594.4,1574.8 
			1594.2,1575.2 1594.2,1575.5 1594.2,1575.6 1594.8,1575.7 1594.8,1575.9 1594.8,1576.8 1594.6,1577.3 1594.2,1577.4 
			1593.5,1577.4 1593.4,1577.8 1593.5,1578.4 1594.3,1578.6 1595,1578.6 1595.2,1578.9 1597.1,1579.3 1597.2,1579.8 1597.9,1580.5 
			1597.9,1580.8 1597.4,1581.7 1597.1,1582.8 1596.5,1583.4 1595.9,1583.9 1595.7,1584.4 1595.4,1584.5 1595.4,1583.5 1595,1582.9 
			1594.2,1582.6 1593.9,1582.6 1594.1,1581.9 1593.8,1581.2 1593,1581 1592.4,1581.3 1592.4,1581.9 1592.6,1582.7 1593.3,1583.1 
			1594,1583.1 1594.4,1583.8 1594.9,1584.9 1594.9,1585.9 1595.1,1586.8 1595.9,1587.7 1598.2,1589.9 1599.1,1590.7 1600.9,1593.5 
			1602.2,1594.3 1603.5,1595.8 1604,1597.4 1604.9,1598.1 1607.2,1598.2 1607.9,1599 1608.3,1600.4 1608.7,1600.3 1609.7,1600 
			1610.6,1600.2 1610.8,1601.2 1611.5,1601.8 1611.9,1601.2 1612.5,1602 1613.1,1602.4 1613.5,1601.3 1614.1,1601 1615.1,1601.6 
			1615.1,1602.7 1613.7,1603.4 1612.9,1604.5 1612.8,1605.4 1613.4,1605.7 1614,1605.7 1614.6,1607 1616,1608.3 1615.6,1609.3 
			1615,1609.9 1615.4,1611.4 1615.5,1612.4 1614.7,1613.1 1614,1613.8 1614.2,1614.5 1613.6,1615 1613.2,1615 1613.2,1614.8 
			1613.5,1613.2 1613.4,1612.2 1612.8,1611.5 1613.1,1609.7 1612.7,1609.1 1611.1,1609.5 1610.4,1608.8 1609.3,1608.1 
			1608.8,1608.8 1609.4,1609.5 1609.2,1610.1 1609.4,1610.9 1611.3,1612.2 1612.2,1613.5 1612.2,1614.5 1612.5,1618.3 1613,1617.9 
			1614.8,1619.5 1616.6,1620.3 1617,1621.1 1617.5,1621.9 1618.5,1621.8 1618.8,1622.8 1620.3,1623.2 1621.2,1624.8 1621.6,1625.7 
			1622.4,1628.6 1623,1630.7 1623.3,1632.1 1624.1,1635.2 1624.9,1637.1 1622.2,1632.3 1621.8,1629.4 1621.1,1627.5 1619.4,1626.3 
			1616,1623.2 1615.8,1622.7 1616.4,1622 1615.9,1621.6 1615.2,1621.7 1614.7,1622.4 1614,1623.3 1614,1624.4 1612.7,1643.3 
			1612.1,1646.6 1612.3,1647 1613.4,1644.5 1614,1643.2 1614.8,1643.5 1616.1,1645.2 1616.6,1646.3 1614.9,1646.4 1614.1,1645.7 
			1613.4,1645.9 1613,1647.1 1612.9,1647.7 1612,1648.7 1612.2,1649.7 1611,1660 1608.9,1669.4 1608.9,1672.6 1606.9,1676.3 
			1605.7,1678.6 1603.2,1679.9 1602.1,1679.9 1601.8,1679.6 1600.2,1680.8 1599.4,1681.4 1596,1681.8 1595.4,1682.3 1594.5,1681.8 
			1594.1,1681.6 1591.8,1681.7 1591.2,1681.1 1590.2,1680.8 1588.9,1680.3 1588.2,1679.5 1586.9,1679.5 1585.8,1679.1 
			1585.1,1678.9 1584.7,1678.9 1583.8,1678 1583,1678.3 1582,1678.4 1580.8,1678 1580.1,1678.1 1579.4,1678.9 1578.5,1679.4 
			1578.4,1680.1 1577.9,1680.7 1577.4,1680 1577,1680.1 1575.9,1680.1 1575.1,1679.6 1574.5,1678.9 1573.7,1678.7 1571.8,1678.8 
			1570.5,1678.8 1569.8,1678.5 1570.2,1678.2 1571.1,1678.3 1571.2,1677.4 1570.8,1677.2 1569.7,1677.2 1568.8,1676.4 
			1568.2,1676.4 1567.3,1676.7 1566.4,1677.1 1565.3,1677.2 1564.6,1677.9 1563.8,1678.7 1563.4,1678.4 1563.4,1677.9 
			1564.2,1677.5 1564.6,1676.9 1563.9,1676.3 1563,1676.7 1562.7,1677.2 1560.8,1677.7 1559.8,1678 1558.8,1678.5 1557.5,1678.5 
			1556.9,1679.5 1555.4,1679.8 1554.2,1679.7 1552.9,1679.6 1550.6,1679.1 1549.3,1679.1 1547.5,1679.2 1545.7,1678.8 
			1544.3,1678.1 1542.2,1678.1 1541.4,1677.5 1539.8,1677.5 1538.8,1676.9 1537.7,1677.4 1535.8,1675.9 1534.3,1675.3 
			1533.1,1675.3 1528.1,1675.1 1525.4,1672.1 1522.5,1674.5 1520.7,1674.5 1519.4,1675 1518.1,1674.2 1515.2,1675.4 1512.7,1675.2 
			1508.8,1675.2 1507.2,1674.9 1503.9,1674.5 1500.7,1674.8 1499.7,1674.8 1497.5,1673.3 1496.2,1671.9 1493.3,1670.7 
			1491.9,1670.6 1491.1,1671.5 1490.4,1670.2 1489.9,1669.2 1487.7,1671.5 1486.6,1670.2 1484.1,1670.5 1482.4,1671.6 
			1480.6,1673.7 1478.1,1675 1477.4,1676.7 1477.7,1677.8 1480.1,1678.5 1479.6,1679.7 1479.5,1680.4 1477.8,1679 1476.6,1679 
			1473.1,1681 1470.5,1681 1468.4,1680.8 1468.4,1680.1 1465.6,1681.9 1466.1,1683.5 1463.5,1684.5 1460.6,1684.4 1459.3,1687.1 
			1458.9,1689.6 1460.1,1690.1 1458.8,1691.6 1458.8,1692.3 1460.1,1693 1461.1,1691.7 1462,1692.3 1462,1693 1462.6,1694.1 
			1462.3,1694.6 1461.7,1695 1463.3,1696.3 1464.4,1695.1 1465.5,1695.5 1464.2,1697.1 1463.7,1698.4 1463.5,1700 1463,1701.3 
			1464,1701.7 1464.2,1702.4 1465.2,1701.9 		"/>
	</g>
	<g id="SPLINE_2_">
		
			<path fill="none" stroke="#FFFFFF" stroke-linecap="round" stroke-linejoin="round" stroke-miterlimit="10" stroke-dasharray="2,4" d="
			M1599.7,1608.5c-1.6-5.1-3.3-10.3-6.9-15.5c-1-1.5-2.3-3-3.6-3.4c-2-0.5-4.4,1.7-6.5,4c-25.2,25.9-35.2,48.6-36.7,80.1
			c0,0.6-0.1,1.3,0,1.8c0.5,4.5,7.5-2.1,13.9-7.7c27.4-24.5,43.3-33.2,40.5-55.1C1600.2,1611.3,1600,1609.9,1599.7,1608.5z"/>
	</g>
</g>
<g id="Calque_6">
</g>
<g id="Layer_1">
</g>
<g id="Logo">
</g>
</svg>
