<?xml version="1.0" encoding="utf-8"?>
<!-- Generator: Adobe Illustrator 18.1.1, SVG Export Plug-In . SVG Version: 6.00 Build 0)  -->
<svg version="1.1" id="Calque_1" xmlns="http://www.w3.org/2000/svg" xmlns:xlink="http://www.w3.org/1999/xlink" x="0px" y="0px"
	 viewBox="0 0 732 568.9" enable-background="new 0 0 732 568.9" xml:space="preserve">
<g>
	<g>
		<g>
			<path fill="#5F5E5E" d="M52.8,537.9h-4.1l-4.1-11.6l-4.1,11.6h-4.1l-6.1-18.6h5.2l3.2,11.5l4-11.5h3.6l4.1,11.5l3.2-11.5h5.2
				L52.8,537.9z"/>
			<path fill="#5F5E5E" d="M96.9,537.9h-4.1l-4.1-11.6l-4.1,11.6h-4.1l-6.1-18.6h5.2l3.2,11.5l4-11.5h3.6l4.1,11.5l3.2-11.5h5.2
				L96.9,537.9z"/>
			<path fill="#5F5E5E" d="M140.9,537.9h-4.1l-4.1-11.6l-4.1,11.6h-4.1l-6.1-18.6h5.2l3.2,11.5l4-11.5h3.6l4.1,11.5l3.2-11.5h5.2
				L140.9,537.9z"/>
			<path fill="#5F5E5E" d="M163.4,537.9v-5.3h5.7v5.3H163.4z"/>
			<path fill="#5F5E5E" d="M193.5,530c0,2.4,1.6,4.1,4.3,4.1c2.2,0,3.2-0.6,4.5-1.7l3,2.7c-2,1.9-4,2.9-7.5,2.9
				c-4.7,0-9.2-2-9.2-9.5c0-6.1,3.5-9.5,8.6-9.5c5.5,0,8.6,3.8,8.6,8.9v2.1H193.5z M200.6,524.9c-0.5-1.1-1.6-1.9-3.3-1.9
				c-1.7,0-2.8,0.8-3.3,1.9c-0.3,0.7-0.4,1.2-0.5,2h7.5C201,526.1,200.9,525.6,200.6,524.9z"/>
			<path fill="#5F5E5E" d="M237.1,537.9v-1.7c-1.3,1.3-3.1,1.9-4.9,1.9c-2,0-3.6-0.6-4.7-1.6c-1.6-1.5-2-3.2-2-5.3v-11.9h4.9v11.2
				c0,2.5,1.7,3.4,3.3,3.4c1.6,0,3.3-0.9,3.3-3.4v-11.2h4.9v18.6H237.1z"/>
			<path fill="#5F5E5E" d="M273.4,524.4c-0.8-0.7-1.4-1.1-2.6-1.1c-1.5,0-3.2,1.1-3.2,3.4v11.2h-4.9v-18.6h4.8v1.8
				c0.9-1.1,2.9-2,5-2c1.9,0,3.3,0.5,4.7,1.7L273.4,524.4z"/>
			<path fill="#5F5E5E" d="M307.7,535.8c-1.2,1.2-3.2,2.3-6.2,2.3c-2.9,0-4.9-1.1-6.1-2.3c-1.8-1.7-2.2-3.8-2.2-7.2
				c0-3.3,0.5-5.4,2.2-7.2c1.2-1.2,3.2-2.3,6.1-2.3c2.9,0,4.9,1.1,6.2,2.3c1.8,1.7,2.2,3.8,2.2,7.2
				C309.9,532,309.5,534.1,307.7,535.8z M303.9,524.1c-0.6-0.5-1.3-0.8-2.3-0.8c-1,0-1.7,0.3-2.3,0.8c-1,1-1.1,2.6-1.1,4.5
				c0,1.9,0.1,3.6,1.1,4.5c0.6,0.5,1.3,0.8,2.3,0.8c1,0,1.8-0.3,2.3-0.8c1-1,1.1-2.6,1.1-4.5C305,526.7,304.9,525.1,303.9,524.1z"/>
			<path fill="#5F5E5E" d="M340.8,537.9v-1.7c-1.4,1.4-2.8,2-4.9,2c-1.9,0-3.8-0.6-4.9-1.7c-2-1.9-2-5.1-2-7.8c0-2.8,0-5.9,2-7.8
				c1.1-1,2.9-1.7,4.8-1.7c2,0,3.5,0.5,4.8,1.9v-8.4h4.9v25.4H340.8z M337.3,523.3c-3,0-3.3,2.3-3.3,5.3c0,3,0.4,5.3,3.3,5.3
				c3,0,3.4-2.3,3.4-5.3C340.7,525.6,340.3,523.3,337.3,523.3z"/>
			<path fill="#5F5E5E" d="M377.2,524.4c-0.8-0.7-1.4-1.1-2.6-1.1c-1.5,0-3.2,1.1-3.2,3.4v11.2h-4.9v-18.6h4.8v1.8c1-1.1,2.9-2,5-2
				c1.9,0,3.3,0.5,4.7,1.7L377.2,524.4z"/>
			<path fill="#5F5E5E" d="M408.7,537.9v-1.6c-1.3,1.2-2.6,1.8-4.9,1.8c-2.2,0-3.9-0.5-5.1-1.6c-1.1-1-1.6-2.5-1.6-4.2
				c0-3,2.2-5.4,6.8-5.4h4.7v-0.9c0-2-1.1-2.9-3.7-2.9c-1.9,0-2.8,0.4-3.8,1.5l-3.2-2.9c1.9-2,3.8-2.6,7.1-2.6
				c5.5,0,8.4,2.2,8.4,6.6v12.2H408.7z M408.6,530h-3.9c-1.8,0-2.8,0.8-2.8,2.1c0,1.3,0.9,2.1,2.9,2.1c1.4,0,2.2-0.1,3.1-0.9
				c0.5-0.5,0.7-1.2,0.7-2.3V530z"/>
			<path fill="#5F5E5E" d="M448.6,536.4c-1.1,1-2.9,1.7-4.8,1.7c-2,0-3.5-0.5-4.8-1.9v8.4H434v-25.4h4.8v1.7c1.4-1.4,2.8-2,4.9-2
				c1.9,0,3.7,0.6,4.8,1.7c2,1.9,2,5,2,7.8C450.6,531.4,450.6,534.6,448.6,536.4z M442.3,523.3c-3,0-3.3,2.3-3.3,5.3
				c0,3,0.4,5.3,3.3,5.3c3,0,3.3-2.3,3.3-5.3C445.7,525.6,445.3,523.3,442.3,523.3z"/>
			<path fill="#5F5E5E" d="M474.4,530c0,2.4,1.6,4.1,4.3,4.1c2.2,0,3.2-0.6,4.5-1.7l3,2.7c-2,1.9-4,2.9-7.5,2.9
				c-4.7,0-9.2-2-9.2-9.5c0-6.1,3.5-9.5,8.6-9.5c5.5,0,8.6,3.8,8.6,8.9v2.1H474.4z M481.5,524.9c-0.5-1.1-1.6-1.9-3.3-1.9
				c-1.7,0-2.8,0.8-3.3,1.9c-0.3,0.7-0.4,1.2-0.5,2h7.5C481.9,526.1,481.8,525.6,481.5,524.9z"/>
			<path fill="#5F5E5E" d="M516.7,537.9v-1.6c-1.3,1.2-2.6,1.8-4.9,1.8c-2.2,0-3.9-0.5-5.1-1.6c-1.1-1-1.6-2.5-1.6-4.2
				c0-3,2.2-5.4,6.8-5.4h4.7v-0.9c0-2-1.1-2.9-3.7-2.9c-1.9,0-2.8,0.4-3.8,1.5l-3.2-2.9c1.9-2,3.8-2.6,7.1-2.6
				c5.6,0,8.4,2.2,8.4,6.6v12.2H516.7z M516.6,530h-3.9c-1.8,0-2.8,0.8-2.8,2.1c0,1.3,0.9,2.1,2.9,2.1c1.4,0,2.2-0.1,3.1-0.9
				c0.5-0.5,0.7-1.2,0.7-2.3V530z"/>
			<path fill="#5F5E5E" d="M553.5,537.9v-1.7c-1.3,1.3-3.1,1.9-4.9,1.9c-2,0-3.6-0.6-4.7-1.6c-1.6-1.5-2-3.2-2-5.3v-11.9h4.9v11.2
				c0,2.5,1.7,3.4,3.3,3.4c1.6,0,3.3-0.9,3.3-3.4v-11.2h4.9v18.6H553.5z"/>
			<path fill="#5F5E5E" d="M578.9,537.9v-5.3h5.7v5.3H578.9z"/>
			<path fill="#5F5E5E" d="M613,538.1c-4,0-8.9-2-8.9-9.5c0-7.5,4.9-9.5,8.9-9.5c2.7,0,4.8,0.8,6.5,2.5l-3.3,3.1
				c-1-1-1.9-1.5-3.2-1.5c-1.2,0-2.1,0.4-2.8,1.2c-0.8,0.9-1.1,2.1-1.1,4.1c0,2,0.3,3.2,1.1,4.1c0.7,0.8,1.6,1.2,2.8,1.2
				c1.3,0,2.2-0.4,3.2-1.5l3.3,3.1C617.8,537.3,615.7,538.1,613,538.1z"/>
			<path fill="#5F5E5E" d="M651.6,535.8c-1.2,1.2-3.2,2.3-6.2,2.3s-4.9-1.1-6.1-2.3c-1.8-1.7-2.2-3.8-2.2-7.2c0-3.3,0.5-5.4,2.2-7.2
				c1.2-1.2,3.2-2.3,6.1-2.3s4.9,1.1,6.2,2.3c1.8,1.7,2.2,3.8,2.2,7.2C653.8,532,653.4,534.1,651.6,535.8z M647.7,524.1
				c-0.6-0.5-1.3-0.8-2.3-0.8s-1.7,0.3-2.3,0.8c-1,1-1.1,2.6-1.1,4.5c0,1.9,0.1,3.6,1.1,4.5c0.6,0.5,1.3,0.8,2.3,0.8
				s1.8-0.3,2.3-0.8c1-1,1.1-2.6,1.1-4.5C648.9,526.7,648.8,525.1,647.7,524.1z"/>
			<path fill="#5F5E5E" d="M696.8,537.9v-11.2c0-2.5-1.7-3.4-3.3-3.4c-1.5,0-3.3,0.9-3.3,3.3v11.3h-4.9v-11.2c0-2.5-1.7-3.4-3.3-3.4
				c-1.6,0-3.3,0.9-3.3,3.4v11.2h-4.9v-18.6h4.8v1.7c1.3-1.2,3.1-1.9,4.9-1.9c2.2,0,4,0.7,5.2,2.4c1.7-1.6,3.5-2.4,5.9-2.4
				c2,0,3.8,0.6,4.9,1.6c1.6,1.5,2.2,3.2,2.2,5.3v11.9H696.8z"/>
		</g>
		<g>
			<g>
				<g>
					<g>
						<g>
							<path fill="#292B63" d="M39.1,437.2l20.5-36.3h8.2l20.8,36.3h-9.5l-4.4-7.9h-23l-4.2,7.9H39.1z M55.4,422.7h15.9l-7.8-14.8
								L55.4,422.7z"/>
						</g>
					</g>
					<g>
						<g>
							<path fill="#292B63" d="M117.2,407.3v29.8h-8.4v-29.8H92.1v-6.5h41.9v6.5H117.2z"/>
						</g>
					</g>
					<g>
						<g>
							<path fill="#292B63" d="M144.3,437.2v-36.3h37.2v6.2h-28.7v8.1h16.7v6.2h-16.7v9h29.1v6.8H144.3z"/>
						</g>
					</g>
					<g>
						<g>
							<path fill="#292B63" d="M197.4,437.2v-36.3h8.4v29.5h27.2v6.8H197.4z"/>
						</g>
					</g>
					<g>
						<g>
							<path fill="#292B63" d="M245.5,437.2v-36.3h8.4v36.3H245.5z"/>
						</g>
					</g>
					<g>
						<g>
							<path fill="#292B63" d="M272.5,437.2v-36.3h37.2v6.2h-28.7v8.1h16.8v6.2h-16.8v9H310v6.8H272.5z"/>
						</g>
					</g>
					<g>
						<g>
							<path fill="#292B63" d="M325.6,437.2v-36.3h31.1c5.4,0,8.2,2.3,8.2,7v8.5c0,4.7-2.7,7-8.2,7h-4.8l16.7,13.7h-12.1l-14.6-13.7
								h-8v13.7H325.6z M352.9,407.1h-19v10.1h19c1.3,0,2.2-0.1,2.7-0.4c0.7-0.4,1.1-1.2,1.1-2.5V410c0-1.2-0.4-2-1.1-2.5
								C355.1,407.2,354.2,407.1,352.9,407.1z"/>
						</g>
					</g>
					<g>
						<g>
							<path fill="#292B63" d="M409.3,437.2v-36.3h8.5v29.5H445v6.8H409.3z"/>
						</g>
					</g>
					<g>
						<g>
							<path fill="#292B63" d="M457.4,437.2v-36.3h37.2v6.2h-28.7v8.1h16.7v6.2h-16.7v9h29.1v6.8H457.4z"/>
						</g>
					</g>
					<g>
						<g>
							<path fill="#292B63" d="M537.6,437.2v-36.3h6.8l17.1,22l16.7-22h6.8v36.3h-7.8v-22.5c0-0.9,0.1-2.2,0.3-3.9
								c-0.9,1.8-1.6,3.1-2.1,3.8l-13.7,18.2h-1.7l-13.7-18.2c-1-1.3-1.7-2.6-2.2-3.7c0.1,1.5,0.2,2.8,0.2,3.9v22.5H537.6z"/>
						</g>
					</g>
					<g>
						<g>
							<path fill="#292B63" d="M602.9,437.2v-36.3H640v6.2h-28.7v8.1h16.7v6.2h-16.7v9h29.1v6.8H602.9z M616.6,397l7-11.9h7.6
								L621.1,397H616.6z"/>
						</g>
					</g>
					<g>
						<g>
							<path fill="#292B63" d="M656,437.2v-36.3h37.2v6.2h-28.7v8.1h16.7v6.2h-16.7v9h29.1v6.8H656z"/>
						</g>
					</g>
				</g>
			</g>
			<g>
				<path fill="#5F5E5E" d="M220.4,467.2c3.8,0,6.5,0.6,8.2,1.7c1.4,0.9,2.5,2.1,3.3,3.7c0.8,1.6,1.2,3.3,1.2,5.2
					c0,4.2-1.5,7.3-4.5,9.2c-1.7,1.1-4.4,1.7-8.2,1.7h-11.8v-21.5H220.4z M219.9,470.1h-7.8v15.6h7.8c3.3,0,5.7-0.6,7.1-1.7
					c1.6-1.2,2.4-3.3,2.4-6.2c0-2.8-0.8-4.9-2.4-6C225.5,470.7,223.2,470.1,219.9,470.1z"/>
				<path fill="#5F5E5E" d="M243.2,488.7v-21.5h20.7v2.9h-17.1v6h10.4v2.8h-10.4v6.8H264v3H243.2z"/>
				<path fill="#5F5E5E" d="M273.6,488.7v-21.5h17.3c1.6,0,2.7,0.3,3.4,1c0.7,0.7,1.1,1.7,1.1,3.2v4.8c0,1.5-0.4,2.5-1.1,3.2
					c-0.7,0.7-1.9,1-3.4,1h-13.7v8.4H273.6z M289.5,470h-12.3v7.5h12.3c0.9,0,1.5-0.2,1.8-0.5c0.3-0.3,0.5-0.9,0.5-1.8v-3
					c0-0.9-0.2-1.5-0.5-1.8C290.9,470.2,290.3,470,289.5,470z"/>
				<path fill="#5F5E5E" d="M308.8,467.2v18.5h15.6v-18.5h3.5v16.4c0,2-0.3,3.3-1,4c-0.7,0.7-2,1.1-4,1.1h-12.7
					c-1.9,0-3.3-0.4-4-1.1c-0.7-0.7-1.1-2-1.1-4v-16.4H308.8z"/>
				<path fill="#5F5E5E" d="M340.2,488.7v-21.5h3.6v21.5H340.2z"/>
				<path fill="#5F5E5E" d="M374.2,470.1h-15.2v6h13.5c1.9,0,3.3,0.4,3.9,1.1c0.7,0.7,1.1,2.1,1.1,4v2.4c0,2-0.3,3.3-1,4
					c-0.7,0.7-2,1.1-4,1.1h-12.5c-1.9,0-3.3-0.4-4-1.1c-0.7-0.7-1.1-2.1-1.1-4V483l3.3-0.8v3.4h16v-6.4h-13.5
					c-1.9,0-3.2-0.4-3.9-1.1c-0.7-0.7-1.1-2.1-1.1-4v-1.9c0-2,0.4-3.3,1.1-4c0.7-0.7,2-1,3.9-1h11.4c1.8,0,3.1,0.3,3.9,1
					c0.8,0.7,1.1,1.9,1.1,3.7v0.5l-3.1,0.9V470.1z"/>
				<path fill="#5F5E5E" d="M415.1,488.7v-18.1h-4.6v-2.2l7.9-1.4v21.6H415.1z"/>
				<path fill="#5F5E5E" d="M440.4,486.3c0.7,0.1,1.1,0.1,1.3,0.1c8.3,0,12.8-2.1,13.4-6.4c-3.1,0.6-6.3,0.9-9.6,0.9
					c-3.2,0-5.5-0.4-6.7-1.2c-1.3-0.8-1.9-2.3-1.9-4.4v-2.9c0-3.5,2.3-5.2,6.9-5.2h8.5c2.5,0,4.3,0.5,5.2,1.4c1,0.9,1.4,2.7,1.4,5.2
					v2.8c0,4-1.3,7.1-3.9,9.2c-2.6,2.1-6.2,3.2-10.9,3.2c-0.7,0-1.2,0-1.5-0.1L440.4,486.3z M455.4,477.3c0.1-0.6,0.1-1,0.1-1.3
					c0-2.8-0.2-4.5-0.6-5.1c-0.4-0.6-1.7-0.8-3.9-0.8h-6.5c-1.6,0-2.7,0.2-3.3,0.7c-0.6,0.4-0.9,1.3-0.9,2.7v1.4
					c0,1.3,0.4,2.2,1,2.6c0.7,0.5,2,0.7,4,0.7C449,478.1,452.3,477.9,455.4,477.3z"/>
				<path fill="#5F5E5E" d="M470.6,484.6c4,0.9,7.6,1.4,10.9,1.4c2.5,0,4.4-0.3,5.6-1c1.2-0.6,1.7-1.7,1.7-3.2
					c0-1.6-0.6-2.7-1.8-3.4c-1.2-0.7-3.1-1-5.7-1c-3.2,0-6.7,0.5-10.6,1.3l1.1-11.4h17.4l-0.2,2.9h-14.4l-0.8,5.2
					c2.7-0.6,5.3-0.9,7.9-0.9c7.2,0,10.8,2.5,10.8,7.4c0,2.6-0.9,4.5-2.8,5.5c-1.8,1.1-4.8,1.6-8.8,1.6c-2.6,0-5.6-0.3-9.2-0.9
					L470.6,484.6z"/>
				<path fill="#5F5E5E" d="M520.2,469.6c-0.3,0-0.8,0-1.3,0c-8.3,0-12.7,2.1-13.3,6.4c3.1-0.6,6.3-0.9,9.5-0.9
					c3.3,0,5.5,0.4,6.8,1.2c1.3,0.8,1.9,2.2,1.9,4.4v2.9c0,3.5-2.3,5.2-6.9,5.2h-8.5c-2.5,0-4.3-0.5-5.2-1.4
					c-0.9-0.9-1.4-2.7-1.4-5.2v-2.8c0-4,1.3-7.1,3.9-9.3c2.6-2.2,6.2-3.3,11-3.3c0.4,0,0.8,0,1.5,0.1L520.2,469.6z M505.2,478.6
					c-0.1,0.5-0.1,1-0.1,1.3c0,2.8,0.2,4.5,0.6,5.1c0.4,0.6,1.7,0.9,3.9,0.9h6.5c1.6,0,2.7-0.2,3.3-0.7c0.6-0.4,0.9-1.3,0.9-2.7
					v-1.4c0-1.3-0.3-2.2-1-2.6c-0.7-0.4-2-0.7-4-0.7C511.6,477.8,508.3,478,505.2,478.6z"/>
			</g>
		</g>
	</g>
	<path fill="#292B63" d="M137,341.1c0,7.6,6.1,13.7,13.7,13.7H585c7.6,0,13.7-6.1,13.7-13.7V37.9c0-7.6-6.1-13.7-13.7-13.7H150.7
		c-7.6,0-13.7,6.1-13.7,13.7V341.1z"/>
	<path fill="#FFFFFF" d="M258.9,114.9h-25.7c0,0-6.1-0.4-6.1,8.8c0,9.2,0,131.8,0,131.8s-0.8,7.3,7.7,7.3c8.4,0,149,0,149,0V146.3
		h31.8v116.4h31.4V146.3h31.4v116.4h24.9c0,0,6.5,1.9,6.5-9.6c0-11.5,0-130.6,0-130.6s1.5-7.7-8.4-7.7H352.7v116h-93.8V114.9z"/>
</g>
</svg>
