<?xml version="1.0" encoding="utf-8"?>
<!-- Generator: Adobe Illustrator 18.1.1, SVG Export Plug-In . SVG Version: 6.00 Build 0)  -->
<svg version="1.1" xmlns="http://www.w3.org/2000/svg" xmlns:xlink="http://www.w3.org/1999/xlink" x="0px" y="0px"
	 viewBox="2699.4 472.6 39.6 39.2" enable-background="new 2699.4 472.6 39.6 39.2" xml:space="preserve">
<g id="Fond_bleu" display="none">
	<rect x="2699.4" y="472.6" display="inline" fill="#033352" width="39.6" height="39.2"/>
</g>
<g id="Calque_1">
	<g>
		<g id="XMLID_3_">
			<g>
				<path fill="#FFFFFF" d="M2729.2,498c0,0.1,0,0.2,0,0.3l0,0.5h-19.9l0-0.5c0-0.1,0-0.2,0-0.3c0-3.5,2.8-6.6,6.8-7.7
					c-1.1-0.9-1.7-2.3-1.7-3.7c0-2.7,2.2-4.9,4.9-4.9c2.7,0,4.9,2.2,4.9,4.9c0,1.4-0.6,2.8-1.7,3.7
					C2726.4,491.4,2729.2,494.5,2729.2,498z M2710,497.9h18.4c0-3.3-2.9-6.2-7.1-7l-1.1-0.2l1-0.6c1.3-0.7,2.1-2.1,2.1-3.5
					c0-2.2-1.8-4-4-4s-4,1.8-4,4c0,1.4,0.8,2.8,2.1,3.5l1,0.6l-1.1,0.2C2712.9,491.7,2710,494.6,2710,497.9z"/>
				<path fill="#FFFFFF" d="M2728.3,497.9H2710c0-3.3,2.9-6.2,7.1-7l1.1-0.2l-1-0.6c-1.3-0.7-2.1-2.1-2.1-3.5c0-2.2,1.8-4,4-4
					s4,1.8,4,4c0,1.4-0.8,2.8-2.1,3.5l-1,0.6l1.1,0.2C2725.4,491.7,2728.3,494.6,2728.3,497.9z"/>
			</g>
		</g>
	</g>
	<circle fill="none" stroke="#FFFFFF" stroke-width="1.5" stroke-miterlimit="10" cx="2719.2" cy="492.3" r="17"/>
</g>
<g id="_x30_">
</g>
<g id="Calque_6">
</g>
<g id="Layer_1">
</g>
<g id="Logo">
</g>
</svg>
