<?xml version="1.0" encoding="utf-8"?>
<!-- Generator: Adobe Illustrator 18.1.1, SVG Export Plug-In . SVG Version: 6.00 Build 0)  -->
<svg version="1.1" xmlns="http://www.w3.org/2000/svg" xmlns:xlink="http://www.w3.org/1999/xlink" x="0px" y="0px"
	 viewBox="2858.2 472.6 39.6 39.2" enable-background="new 2858.2 472.6 39.6 39.2" xml:space="preserve">
<g id="Fond_bleu" display="none">
	<rect x="2858.2" y="472.6" display="inline" fill="#033352" width="39.6" height="39.2"/>
</g>
<g id="Calque_1">
	<g>
		<g>
			<path fill="#FFFFFF" d="M2869.8,502.2c-2.4,0-4.4-5.1-4.4-5.2c-0.2-0.7,0-1.5,0.2-2.4c0.1-0.5,0.3-1.4,0.2-1.7
				c-0.4,0-1.1,0.3-1.8,0.5c-0.9,0.4-1.8,0.7-2.4,0.7c-0.8,0-1.3-0.5-1.3-1.1c-0.3-2.2,0.8-6.8,2.2-8.4c0.2-0.3,0.7-0.6,1.5-0.6
				c1,0,2.1,0.5,3,0.8c0.8,0.4,1.2,1,1.5,1.5c0.3,0.5,0.5,0.8,0.9,0.9c0,0,0.1,0,0.2,0c0.3,0,0.7-0.1,1.2-0.2
				c0.6-0.1,1.4-0.3,2.1-0.3c0.5,0,1,0.1,1.5,0.2c0.5,0.2,1,0.8,1.3,1.8c0.5,1.5,0.9,4.2,0.2,5.4c-0.5,0.8-1.4,1.2-2.2,1.6
				c-0.6,0.3-1.3,0.6-1.6,1c-0.2,0.3-0.2,1-0.1,1.7c0,1.4,0.1,3.4-1.9,3.8C2870,502.1,2869.9,502.2,2869.8,502.2z"/>
		</g>
		<g>
			<path fill="#FFFFFF" d="M2888.2,501.4c-0.4,0-0.7-0.1-1-0.4c-0.9-0.7-0.8-2.1-0.7-3.3c0.1-1.4,0.2-2.3-0.5-2.7
				c-0.6-0.4-1.2-0.6-1.7-0.6c-0.8,0-1.5,0.5-2.1,0.9c-0.5,0.4-1,0.7-1.5,0.7c-0.4,0-0.8-0.2-1.1-0.5c-1.2-1.4-0.1-3,0.7-4.3
				c0.6-0.9,1.2-1.8,1.2-2.6c0-0.5-0.2-1.3-0.5-2.1c-0.5-1.9-1.1-3.9,0.1-4.8c0.4-0.3,0.9-0.5,1.5-0.5c1.5,0,2.9,1.3,3.6,2
				c0.3,0.3,0.6,0.6,1,1c0.8,0.9,2.4,2.6,3.1,2.7h0c1.5,0,2-2.1,2-2.1l0.2-0.7l0.7,0.2c0.5,0.2,2.3,1.2,2.3,8c0,5.2-1.7,7.7-1.7,7.8
				l-0.3,0.4l-0.5-0.1c-0.4-0.1-1.5-0.5-2.1-0.5c-0.1,0-0.1,0-0.1,0c-0.3,0.1-0.6,0.4-1,0.6C2889.4,501,2888.9,501.4,2888.2,501.4z"
				/>
		</g>
		<path fill="#FFFFFF" d="M2878,510.1c-9.8,0-17.8-8-17.8-17.8s8-17.8,17.8-17.8s17.8,8,17.8,17.8
			C2895.8,502.4,2888.1,510.1,2878,510.1z M2878,475.8c-9.1,0-16.4,7.4-16.4,16.4s7.4,16.4,16.4,16.4c10.8,0,16.4-8.3,16.4-16.4
			C2894.4,483.2,2887.1,475.8,2878,475.8z"/>
	</g>
</g>
<g id="_x30_">
</g>
<g id="Calque_6">
</g>
<g id="Layer_1">
</g>
<g id="Logo">
</g>
</svg>
