<?xml version="1.0" encoding="utf-8"?>
<!-- Generator: Adobe Illustrator 18.1.1, SVG Export Plug-In . SVG Version: 6.00 Build 0)  -->
<svg version="1.1" xmlns="http://www.w3.org/2000/svg" xmlns:xlink="http://www.w3.org/1999/xlink" x="0px" y="0px"
	 viewBox="2780.2 472.6 39.6 39.2" enable-background="new 2780.2 472.6 39.6 39.2" xml:space="preserve">
<g id="Fond_bleu" display="none">
	<rect x="2780.2" y="472.6" display="inline" fill="#033352" width="39.6" height="39.2"/>
</g>
<g id="Calque_1">
	<path fill="#FFFFFF" stroke="#FFFFFF" stroke-width="0.5" stroke-miterlimit="10" d="M2811.9,487.2c-0.1-0.1-0.2-0.1-0.3-0.1
		l-9.8,2.9l-1.5-2.7c-0.1-0.1-0.2-0.2-0.3-0.2c-0.1,0-0.2,0.1-0.3,0.2l-1.5,2.7l-9.8-2.9c-0.1,0-0.2,0-0.3,0.1
		c-0.1,0.1-0.1,0.2-0.1,0.3l4.9,12.1c0,0.1,0.2,0.2,0.3,0.2h13.5c0.1,0,0.2-0.1,0.3-0.2l4.9-12.1
		C2812,487.4,2812,487.3,2811.9,487.2z M2811,488.2l-4.4,10.7l-6.2-1.8L2811,488.2z M2800.2,496.8v-8.4l3.2,5.7L2800.2,496.8z
		 M2799.8,488.4v8.4l-3.2-2.7L2799.8,488.4z M2799.6,497.2l-6.2,1.8l-4.4-10.7L2799.6,497.2z M2800,497.4l6.1,1.8h-12.2L2800,497.4z
		 M2803.7,493.9l-1.8-3.2l8.7-2.6L2803.7,493.9z M2796.4,493.9l-6.9-5.8l8.7,2.6L2796.4,493.9z"/>
	<circle fill="none" stroke="#FFFFFF" stroke-width="1.5" stroke-miterlimit="10" cx="2800" cy="492.2" r="17"/>
</g>
<g id="_x30_">
</g>
<g id="Calque_6">
</g>
<g id="Layer_1">
</g>
<g id="Logo">
</g>
</svg>
