<?xml version="1.0" encoding="utf-8"?>
<!-- Generator: Adobe Illustrator 18.1.1, SVG Export Plug-In . SVG Version: 6.00 Build 0)  -->
<svg version="1.1" xmlns="http://www.w3.org/2000/svg" xmlns:xlink="http://www.w3.org/1999/xlink" x="0px" y="0px"
	 viewBox="87.1 1233.9 415.5 396" enable-background="new 87.1 1233.9 415.5 396" xml:space="preserve">
<g id="Fond_bleu" display="none">
	<rect x="87.1" y="1233.9" display="inline" fill="#033352" width="415.5" height="396"/>
</g>
<g id="Calque_1">
	<g>
		<path fill="#FFFFFF" d="M326.2,1250h-89.7c-11.6,0-20.3,5-26.1,14.9l-36.9,64.1l75.9,44.1l60-104.5
			C313.7,1261,319.4,1254.9,326.2,1250z"/>
		<path fill="#FFFFFF" d="M400,1365.9l29.2-84.1l-22.1,13.3c-9.9-17.1-16-27-18.4-29.7c-8.5-9.6-18.9-14.3-31.3-14.3
			c-13,0-23.5,4.1-31.8,12.3c-3.7,4.1-10,13.8-18.9,29.2l27.2,48.7l-19.5,10.3L400,1365.9z"/>
		<path fill="#FFFFFF" d="M201.7,1453.5l19,12.3l-29.7-81.5l-88.1,15.9l23,13.3c-8.2,12.7-12.5,19.4-12.8,20
			c-3.8,7.2-5.6,14.5-5.6,22c0,9.2,5.8,24.6,17.4,46.1c8.5,16.1,17.3,31.9,26.1,47.7c1.4-10.3,9.1-27.1,23.1-50.7
			C183.2,1483.6,192.5,1468.5,201.7,1453.5z"/>
		<path fill="#FFFFFF" d="M160.2,1556c0,9.3,4,18.6,12,27.9c8,9.4,16.5,14.1,25.4,14.1h73.8v-87.1h-92.3
			C166.5,1531,160.2,1546.1,160.2,1556z"/>
		<path fill="#FFFFFF" d="M454.9,1378.1l-75.4,43.6l46.1,79.9h10.8c39,0,58.4-15.5,58.4-46.6c0-7.5-5.5-20.7-16.4-39.4
			C470.5,1403.2,462.7,1390.8,454.9,1378.1z"/>
		<path fill="#FFFFFF" d="M399.5,1510.9c-15.7,0-27.5,0-35.4,0l1-23.1l-55.3,66.6l57.9,68.6v-26.6l26.2,1
			c14,0.7,29.2-11.1,45.6-35.4c11.3-18.4,22.4-36.9,33.4-55.3c-7.9,3-20.5,4.6-37.9,4.6C427,1511.4,415.2,1511.2,399.5,1510.9z"/>
	</g>
</g>
<g id="_x30_">
</g>
<g id="Calque_6">
</g>
<g id="Layer_1">
</g>
<g id="Logo">
</g>
</svg>
