<?xml version="1.0" encoding="utf-8"?>
<!-- Generator: Adobe Illustrator 18.1.1, SVG Export Plug-In . SVG Version: 6.00 Build 0)  -->
<svg version="1.1" xmlns="http://www.w3.org/2000/svg" xmlns:xlink="http://www.w3.org/1999/xlink" x="0px" y="0px"
	 viewBox="2754.9 0 595.3 841.9" enable-background="new 2754.9 0 595.3 841.9" xml:space="preserve">
<g id="Fond_bleu" display="none">
	<rect x="2754.9" display="inline" fill="#137EB2" width="595.3" height="841.9"/>
</g>
<g id="Calque_1">
	<g>
		<g>
			<path fill="#FFFFFF" d="M3219.5,454.2c7.5,5.6-1.3,18.1-3.3,25.5c-1.3,5-1,7.9-4.4,10.3c0.4,2.2-0.5,3.1-0.5,4.9
				c-2.8,2.5-4.2,6.3-9.2,6.5c-3.6-6.6-1.2-13.4,2.8-17.8c-2-3.4-1.1-10.3,1.6-14.1c2.5-3.4,8.6-4,10.8-8.2
				C3218.7,458.7,3216.8,456.7,3219.5,454.2z"/>
			<path fill="#FFFFFF" d="M3216.6,326.5c-0.1-3-1-5.2-2.3-7.2c-0.2-0.3-0.3-0.6-0.6-1c-0.4-0.6-0.9-1.2-1.3-1.7
				c-0.1-0.1-0.1-0.2-0.1-0.3c-3.7-5.6-7.6-11-11.8-16.1c1.3,5,4.4,10,7.8,13.3C3205.7,320.8,3208.7,326.9,3216.6,326.5z
				 M3088.8,325.5c0-2.9,1.6-4.3,3.1-5.7c-1.7-2.2-6.2-1.7-9.3-2.5c-1.2-6.1,2.5-12.4-0.5-18.7c4.2-4.6,12.4,0.6,19.7-0.6
				c3.1-8.4-3.7-11.1-8.3-13.5c0-1.4-0.2-3,0.5-3.6c6.1,1,6.3-3.7,11.4-1.1c0-0.6-0.3-0.9-0.7-1.1l2.3-0.5c1.1,0.2,1.8-2.7,0.8-2.7
				l1.2-1.9c4.2,0.4,4.5-3.2,6.3-5.2c2.8-1,6.5-0.9,8.8-1.1c-2.4-4.6-3.3-12.1,3.6-12.5c1.2,3.1,1.4,4.9,0.7,7.4
				c-0.2,0.6-0.4,1.2-0.7,2c1.4,1.9,5.3,1.7,3.7,5.2c5.2,4.8,10.9-0.2,17.1,2.1c1.7-2.9,0.7-8.3,4.1-9.4c2.6-0.3,1.7,2.8,4.2,2.6
				c0-2.5-1.8-3.6-2.4-5.3c-2.6-1.7-5.2-3.2-7.9-4.8l0.8-1.5c42.6,24.2,75.1,64.1,89.5,111.9c-2.5-0.5-6.3-2.4-9-2.6
				c0,3.7,4.4,4.9,4.7,8.3c0.3,3-2.1,3.5-2.1,7.3c-4.8,4.6-11.5,7.1-17.1,10.9c0,1.5,0.4,3.5-1,3.6c-0.2,0-0.4,0-0.6,0
				c-0.9-0.2-1.5-0.7-2-1.4c-1-1.5-1.3-3.7-2.7-4.8c-0.4-8.1-5.6-11.2-7.6-17.7c-0.4-1.2-0.6-2.6-0.7-4.1c-0.9-1.7-3.2-2.1-3.6-4.2
				c-1-3.3-2-9-5.2-8.3c0.5,5.7,4.4,12.6,7.8,17.1c-1.5,8.8,7.2,15.8,11.4,22.3c-0.6,1.3-2.9,2.5-1.5,4.2c1.6-0.3,3.3-0.6,5.1-0.9
				c2.5-0.5,5.1-1.1,7.4-2.2c0.8,9.8-5.6,16.9-7.3,26c-1.2,0.6-1.7,1.7-3.1,2.1c-0.9,8.8-11.7,11-10.4,19.2c0.3,2.1,3.3,3.3,4.1,5.7
				c1.7,5-0.8,9.1-1,15.6c-4.1,3.2-8.6,6-10.9,10.9c2.1,2.8,1.9,8.6,0,11.4c-0.9,0-1.7,0-2.6,0c-3.4,5.8-3.7,14.6-10.4,17.2
				c-1.7,6.5-7.5,8.8-12.5,11.9c-5-1.9-13.6,6.6-15.6-1.5c-0.7-2.1,1.1-1.6,1-3.1c-4.8-7.2-7.7-14.2-8.8-23.9
				c-0.6-4.9-4.8-8.4-5.2-13c-0.9-9.2,10.3-19.6,0.5-26.5c-1.3-7.3-6.3-11-8.3-17.7c1.7-3.1,2.5-10.4,0.6-14c-5.4,4-8.5-3.8-13-4.7
				c-5.4-0.9-10.3,3.7-15.6,5.2c-3.5-0.2-4.5-2.7-7.8-2.6c-3.4,0.2-5.5,3.6-9.4,3.1c-8.9-1-13-11.5-16.6-19.7
				c-2.5-1.5-5.2-2.8-6.8-5.2c0.6-3.2-0.7-4.4-1.6-6.2c2.9-4.6,5-14.8,0.5-19.3c5.3-7.4,7.8-17.7,17.2-21.2
				C3082.2,337.7,3081.2,327.3,3088.8,325.5z M3092.5,320.3c5.4,4.6,11,0.2,16.6-1c6-1.4,11.7-0.8,18.2,0c1.3-0.5,2.1-1.4,3.6-1.6
				c1.1,1,2.6,1.5,4.2,2.1c-1.4,2.8,2.2,3.6,1,7.8c7.9,3.2,12.6,9.6,20.8,12.5c0.3-2.4-0.9-3.2-0.5-5.7c1.3-1.7,5.7-0.5,7.3-2
				c5.3,6.7,15.3,7.5,25.4,8.3c0.9-5.2,0.5-9.1,1-14c-2.4-0.2-3.5,1-5.7,1c-1.4-0.3-1.3-2.2-3.1-2.1c-6,1.8-9.5-2.9-11.9-6.2
				c0.1-2.5,0.4-8.8-3.7-8.8c0,4.6,0.6,6.3,1.7,9.5c0.1,0.4,0.3,0.9,0.5,1.4c-1.9-0.8-0.3,1.7-1.6,1.5c-0.6,0.1-1.6-2.1-2.1-0.5
				c0.9-0.3,0.9,2.5,0,2.1c-5.7-2.3-8.8-7.2-10.5-13.5c-0.4-1.5-0.7-3-0.9-4.6c-2.1-1.2-3.1-2.5-6.2-1.6c0.7,3.3,4.8,3.2,5.6,6.5
				c0.1,0.4,0.1,0.8,0.1,1.3c-1.6,1.4-2.4-1-4.1-1c-0.1,1.6,1.4,1.7,1,3.6c-1.7,0.2-2.8,1-3.1,2.6c-1,1-2.1-0.6-3.7-0.6
				c0.3,1.3,0.7,2.4,0.5,4.2c-1.2-0.1-1.5,0.9-3.1,0.5c-0.8-0.9-1.8-1.9-2.7-3c-1.1-1.4-2-3.1-1.4-4.8c2.7,1.8,5.1,1,7.8,0.5
				c-1.9-8.8-11.4-10.1-15.6-16.7c-3.7,2.1-7.5,3.4-12.5,1.6c-1.2,6.4-8.9,6.3-7.8,15.1C3103.9,318.2,3099.2,319.9,3092.5,320.3z
				 M3226.5,358.2c-2,0-2.4,1.7-4.6,1.5c-1.4-0.4-2.3-1.2-3.1-2.3c-2.3-3.1-2.6-8-6.9-9.1c0.2,4,2.3,6,3.2,9.4c1.1-0.2,2-0.9,3-0.1
				c0,0,0.1,0.1,0.1,0.1c0,2.5,0.4,4.8,1.5,6.3C3224.2,364.2,3224.8,360.8,3226.5,358.2z M3192.7,311.2c2.4,0.8,4.9,1.4,7.8,1.3
				c-0.4-2-1.4-3.2-2.8-4.3c-1.3,1.1-3.5,1.1-4.8,2.2c-2-1.4-4.1-2.6-3.8-6.3c0.7-0.3,1.4-0.5,2.2-0.5c-0.7-0.7-1.3-1.5-1.7-2.6
				c0.7-0.2,2.6,0.6,2.6-0.5c-0.9-0.1-1.2-0.9-1-2.1c-1,0.9-3.9,0-4.7,1c1,0.6,2.5,0.6,2.1,2.6c-2.2-0.5-4.5-1.7-6.8-0.5
				c-0.6-1.4-1.1-1.6-0.5-3.2c-2.9,0.6-2.8-1.7-5.2-1.5c-1.9,2.5-3,5.7-4.7,8.3c1.3,1,2.1,2.4,3.1,3.7
				C3182.3,306.7,3187.3,309.4,3192.7,311.2z"/>
			<path fill="#FFFFFF" d="M3114.9,238.5c11.4,3.9,22.3,8.8,32.6,14.7l-0.8,1.5c-0.9-0.5-1.8-1-2.7-1.5c0.1,0.3,0.1,0.7,0,1.2
				c-3.8,1.5-3.6,6.9-4.2,11.4c-2.2,1.2-9.4,1.1-10.4-2.1c-0.1-0.5-0.1-0.9,0-1.2c0.5-1.5,3.2-0.8,3.1-2.9c-1.4-1.7-2.9-3.2-4-5.2
				c-0.5-0.9-0.9-1.9-1.1-3.1c-3.9,0.9-4.8,3.7-8.3,3.1C3114.4,253.6,3113.2,243.5,3114.9,238.5L3114.9,238.5z"/>
			<path fill="#FFFFFF" d="M3107,278.2C3107,278.2,3107,278.2,3107,278.2l-2.2,0.5c-0.7-0.3-1.5-0.4-0.8-2c-3.2,1-9.4,1.7-13,0.5
				c0.6-1.8,2.9-2,3.1-4.1c-1.9,0.3-3-0.2-3.1-1.5c0.6-0.6,1.8-0.6,3.1-0.5c0.3-1.7-0.6-2.1-0.6-3.4c0-0.2,0-0.5,0.1-0.7
				c0.6-0.6,1.8-0.6,3.1-0.5c0.5-2-1.5-1.6-1-3.6c-1.9-0.2-2.9,0.6-4.2,1c0,1.3,0,2.6,0,3.8c0,0.3,0,0.5,0,0.8
				c-1.4,2.3-3.7,3.6-6.8,4.2c-1-1.6-3.3-1.8-4.6-3.1c0.2-2.6-0.1-4.8-0.5-6.7c4.1,0.6,4.9-2.3,8.3-3.6c0.1,0.7,2.9,2.1,2.6,0
				c0.5-1.9-2.3-0.4-2.1-2.1c2.1-2,1.7-6.3,4.1-7.8c1.7,0.1,3.8-0.3,4.7,0.5c0.2,1.2-1,1.1-0.5,2.6c2-0.3,3.3,0.2,3.6,1.5
				c0.1,2.1-1.9,2-1.5,4.2c2.8-0.1,2.5,1.7,2.1,3.6c2.6,1.1,4.6,2.7,4.7,6.3c1,0.8,2.9,0.5,3.6,1.5c1.8,1.6-1.6,2.8,0,4.2l-1.2,1.9
				c-0.1,0-0.2,0-0.4,0.1C3107.9,277.1,3106.7,277,3107,278.2z"/>
			<path fill="#FFFFFF" d="M3048.8,611.3c2.9-0.3,5.4,0.3,7.9,0c5.4-0.9,13-7.2,17.6-7.8c1.5-0.2,3.7,0.8,5.2,0.5
				c2.3-0.5,4-3,6.3-4.2c6.3-3.3,14-4.1,22.3-5.2c0.2,2.6,5.3,0.3,5.2,3.2c2.9-1.6,4,0.1,7.3,0.5c2.4-3.2,8.8-2.8,13.8-2.6
				c-24.8,11.7-52.6,18.2-81.8,18.2c-2.3,0-4.7,0-7-0.1C3046.2,613.4,3048.1,611.6,3048.8,611.3z"/>
			<path fill="#FFFFFF" d="M3011.6,232.5L3011.6,232.5c-0.6,1.4-2,4.6-3.2,5.2c1.6,4.9-3.8,8.5-7.8,10.9c-1.3-0.4-1.6-1.9-2.6-2.6
				c-1.7,0-2.6,0.9-4.7,0.5c-1.5-1.6-1.5-2.5-0.5-4.6c-1.3-0.1-2.5-2.5-3.1-3.3C2996.8,236.2,3004.1,234.1,3011.6,232.5z"/>
			<path fill="#FFFFFF" d="M2976.6,593c-3.1,0.6-7.9,0.9-9.9-2c1.1-1.9,1.1-2.9,0-4.7c-2.2,1.7-6.5,0.6-6.7-2.6c2.1-0.6,2.1,0,4.7,0
				c1.1-0.8-0.3-4.1,2.1-3.7c2.2,0.1,2.5,2.7,1,3.7c3,0.4,3.4,3.6,5.7,4.7c-0.3-3-2-2.9-2.1-5.2c-0.5-6.9,10.4-9.1,12.5-4.1
				c-3.1,0.7-6.4,1.2-6.3,5.2c7.8,5.4,13.6,12.7,21.8,17.7c0.3,1.4-1,3.5-1.4,4.2c-9.3-2.7-18.3-6.2-27-10.2c1.5-0.2,6.1-1,7.6-1.7
				c-0.3-1.1-1.5-4-2.6-2.6C2976.5,591.6,2977.6,593.2,2976.6,593z"/>
			<path fill="#FFFFFF" d="M2951.2,297.9c-0.7,1.8,2.6,2.2,3.1,1.1C2953.3,298.6,2952.4,298.1,2951.2,297.9z M2948.6,291.7
				c1.4-1.4,4.9-0.6,5.2-3.1c-2.1-0.4-2.7,0.8-4.7,0.5C2949,289.9,2947.1,291.3,2948.6,291.7z M2907.5,304.7c-0.1,0.6-0.9,1.2,0,1.6
				C2907.6,305.6,2908.4,305.1,2907.5,304.7z M2915.8,306.8c0.3,1.8,1.1,3.2,1.6,4.7c0.3-1.5,0.9-4.6,3.1-2.6c0.1-1-0.6-1.1-0.5-2.1
				C2917.7,306.6,2917.4,307.5,2915.8,306.8z M2914.2,305.2c0.1-2.2-0.9-3.2-2.6-3.6c-0.4,1.3-1.8,1.6-2.6,2.6
				c2.1-0.1,2.1-0.1,1.5,1.6C2912.3,306,2912.5,304.8,2914.2,305.2z M2928.8,394.1c-0.2,1-1.1,1.3-1,2.6
				C2929.5,396.9,2930.7,394.5,2928.8,394.1z M2889.3,379.6c6.6,1.3,6-7.9,10-8.4l2-0.1c-0.1,0.1-0.2,0.2-0.2,0.3
				c0.5,0.2,1.1,0.5,1.8,0.9c-0.8,4.5-2.6,8.1-3.6,12.4c13.3-4.1,4.3,11.6,9.9,16.1c3.2-2.3,7.4-1,9.3,0c1.3-5,5.6-6.9,9.9-8.8
				c1,2.3,0.8,0.6,3.2,0.6c0.7,2.1,2.7,2.8,3.6,4.7c2.8-0.2,3.8-0.8,5.7,0.5c1.1-1.8,3.4-2.5,6.7-2.1c0.7,5.2,8,7.3,10.4,12.5
				c12.1-1,15.9,6.3,17.7,15.6c4.8,2.5,11.1,1.7,13.5,7.3c9.5-1.1,23.7,5.5,26,11.9c2.1,5.9-7.9,16.1-9.8,17.7c1,8.3-1,23-5.7,24.9
				c-1.8,0.7-3.9-0.2-6.3,0c-2.6,2.6-6.8,3.6-8.8,6.8c-0.5,2.6,0.7,3.8,0.5,6.2c-4.4,5.4-6.4,13.1-12.5,16.6
				c-0.8-0.8-2.7-0.5-4.2-0.5c3.7,5.7-0.6,11.5-8.3,8.8c0,1.7,0.9,3.4,0,5.2c-1.9,0.2-3.3,0-4.7-0.5c-0.5,2.9,3.8,1,3.6,3.6
				c0,1.4-1.9,0.9-2.6,1.6c0.1,1.6-0.3,3.4,0.5,4.2c-0.8,0.9-3.6-0.1-3.1,2.1c1.2,1.6,3.8,1.7,4.1,4.2c-1.3,2.4-2.6,4.9-4.1,7.2
				c2.6,5.4,6.8,9.1,11.4,12.5c-4.3,1.5-11.3-0.3-13.5-3.6c1.7,0.3,2.1-5.5,1.5-4.1c-1.2,0.1,0,2.8-1.6,2.5
				c-7.1-2.6-8.7-10.7-10.9-18.1c-0.6-1.7-3.4-1-2.6-4.2c0.1-0.7,1.2-0.5,2.1-0.5c0.9-7.6-4.4-12.2-4.6-19.2
				c-0.2-5.1,1.7-10.3,1-15.6c-1.1-9.6-2.5-19.1-2.6-30.1c-2.2-2.9-4-6.4-8.3-7.3c-4.4-5.1-7.4-11.6-9.4-19.2
				c-3.4-1.6-7.6-8.3-3.6-12.5c-4.7-5.1,1.7-11.9,3.6-16.7c0.2-5,0.1-9.7-2.6-11.9c-2-0.2-1.1,2.4-2.1,3.2c-3.3-0.1-3-2.6-5.7-2.1
				c-0.1-2.6-2.5-3-3.6-4.7c-0.3-8.1-10.5-6.5-12-13.4c-2-0.1-1.6,2.2-4.1,1.5c-5.5-4.1-10.3-4.8-10.9-11c-0.2-1.8,1-3.2,0.5-5.2
				c-0.9-3.5-3.7-6.5-4.9-9.8l-1.7-0.5c10.5-32,29.1-60.3,53.4-82.4c0.3,0.1,2,1,2,1.4c-0.6,3.1-1.8,6.6,0,9.4
				c4.1-0.2,3.9-6,2.6-8.8c2.8-2.9,6.9-7.1,7.5-12v0c5.9-4.6,12.2-8.8,18.7-12.7c1,0.6,3.2,2.3,3.7,1.6c0.1,0,0.2,0.1,0.3,0.2
				c0.7-1,1.7-1.7,3.2-1.9c1.7,4.6,3,9.5,4.2,14.6c1.3,0.4,2.8,0.7,4.7,0.5c-0.4,3.4,3.4,2.5,3.6,5.2c-1.2,4.1-3.6,7.1-8.3,7.8
				c-0.5,4.6-6.1,4-9.4,5.7c0.9,1.2,4.6-0.5,4.1,2.1c-2.9,2.1-7.3-0.5-7.7,4.1c1.2,1,4.8-0.3,5.2,1.5c0.1,1.7-2,1.1-2.1,2.6
				c1.7,0.2,3,0.8,2.6,3.1c-3.1,2.6-7.6,3.9-10.9,6.3c-1.5-1.1-0.3-3.3-1-4.1c-2.3,2.5-6.8,2.9-8.3,6.2c-0.6,2.1,1.7,1,1,3.1
				c-3.5,1-4.4,4.5-7.7,5.7c-1.7,3.3-2.6,7.5-5.7,9.4c0.2,1.2,0.8,1.9,0.5,3.6c-1.6,5.5-7,5.5-9.9,9.9c-3.9,6.1,2.8,15-3.1,20.2
				c-1.7-3-2.6-7.1-3.1-11.4c-3.4,0.9-3.8-0.8-7.8,0c0.2,2.1-0.2,3.7-1.5,4.2c-2.1-0.1-2.2-2.3-4.7-2.1c-2.4,0.8-4.1,2.3-5.3,4.4
				c2.6,1.7,4.8,3.7,5.7,5.3v0.6c-2.6,0.7-4.5,2.1-7.9,2c-0.1,1.5-0.2,3-0.1,4.5c1.1-0.3,2.4,0.5,2.9,3.7c-1,0.3-1.7,0.4-2.3,0.5
				C2888.3,376.3,2888.8,378,2889.3,379.6z"/>
			<path fill="#FFFFFF" d="M2915.8,367.1c0.8,3.4-3.8,3.9-5.7,2.5c0-0.9,0-1.7,0-2.5C2911.1,366.2,2914.7,366.2,2915.8,367.1z"/>
			<path fill="#FFFFFF" d="M2895.4,363.3c5.6-1.6,13.4-1.5,13.4,5.7c-3.5-0.3-5.9,0.4-7.4,2.1l-2,0.1c-2.2-1.2-5.3,0.2-6.4-2.8
				c-0.3-2,1.4-2,3.2-1.9c0.1-1.1-0.7-1.4-0.6-2.6V363.3z"/>
			<path fill="#FFFFFF" d="M2870.8,361.8c0.5,3.7,4.1,9.1,0.9,11c-1.8-1.1-2.8-6.3-3.6-8.5c0.3-1.1,0.7-2.3,1.1-3.4l1.7,0.5
				C2870.8,361.5,2870.8,361.7,2870.8,361.8z"/>
		</g>
		<path fill="none" stroke="#FFFFFF" stroke-width="0.25" stroke-miterlimit="10" d="M2910.2,367.1c0,0.9,0,1.7,0,2.5
			c2,1.4,6.5,0.9,5.7-2.5C2914.8,366.2,2911.2,366.2,2910.2,367.1z"/>
		<path fill="none" stroke="#FFFFFF" stroke-width="0.25" stroke-miterlimit="10" d="M3211.5,494.9c0.1-1.8,0.9-2.7,0.5-4.9
			c3.3-2.4,3-5.3,4.4-10.3c2-7.3,10.8-19.9,3.3-25.5c-2.8,2.5-0.8,4.5-2.2,7.1c-2.2,4.2-8.4,4.7-10.8,8.2
			c-2.7,3.8-3.6,10.7-1.6,14.1c-4,4.4-6.4,11.3-2.8,17.8C3207.2,501.1,3208.7,497.4,3211.5,494.9z"/>
		<path fill="none" stroke="#FFFFFF" stroke-width="0.25" stroke-miterlimit="10" d="M2998.1,606c0.4-0.6,1.7-2.8,1.4-4.2
			c-8.2-4.9-14-12.3-21.8-17.7c-0.2-4,3.2-4.4,6.3-5.2c-2.1-4.9-12.9-2.8-12.5,4.1c0.1,2.4,1.8,2.2,2.1,5.2
			c-2.4-1.1-2.7-4.2-5.7-4.7c1.4-1,1.2-3.6-1-3.7c-2.4-0.5-1,2.9-2.1,3.7c-2.6,0-2.5-0.6-4.7,0c0.2,3.2,4.5,4.3,6.7,2.6
			c1.1,1.8,1.1,2.8,0,4.7c2,2.9,6.8,2.6,9.9,2c1,0.2-0.1-1.4-0.5-1.6c1.1-1.4,2.3,1.5,2.6,2.6c-1.6,0.7-6.1,1.5-7.6,1.7"/>
		<path fill="none" stroke="#FFFFFF" stroke-width="0.25" stroke-miterlimit="10" d="M3134.4,595.6c-5-0.2-11.4-0.6-13.8,2.6
			c-3.3-0.4-4.4-2.1-7.3-0.5c0.1-2.9-5-0.5-5.2-3.2c-8.3,1.1-16,2-22.3,5.2c-2.3,1.2-4,3.7-6.3,4.2c-1.5,0.3-3.7-0.7-5.2-0.5
			c-4.6,0.6-12.2,6.9-17.6,7.8c-2.5,0.3-5-0.3-7.9,0c-0.6,0.3-2.6,2.1-3.3,2.4"/>
		<path fill="none" stroke="#FFFFFF" stroke-width="0.25" stroke-miterlimit="10" d="M3115,238.5c-1.7,5-0.5,15.1,4.1,15.8
			c3.6,0.6,4.4-2.2,8.3-3.1c0.2,1.1,0.6,2.1,1.1,3.1c1.1,2,2.6,3.6,4,5.2c0.1,2.1-2.6,1.4-3.1,2.9c-0.1,0.3-0.1,0.7,0,1.2
			c1,3.2,8.2,3.3,10.4,2.1c0.6-4.6,0.4-10,4.2-11.4c0.1-0.5,0.1-0.9,0-1.2c0.9,0.5,1.8,1,2.7,1.5c2.7,1.5,5.3,3.1,7.9,4.8
			c0.6,1.7,2.4,2.8,2.4,5.3c-2.5,0.1-1.6-3-4.2-2.6c-3.4,1.1-2.5,6.5-4.1,9.4c-6.3-2.3-11.9,2.7-17.1-2.1c1.6-3.5-2.3-3.3-3.7-5.2
			c0.3-0.7,0.5-1.4,0.7-2c0.7-2.5,0.6-4.2-0.7-7.4c-6.9,0.4-6,7.9-3.6,12.5c-2.3,0.2-6.1,0.1-8.8,1.1c-1.8,2-2.1,5.6-6.3,5.2
			c-1.6-1.4,1.8-2.6,0-4.2c-0.7-1-2.6-0.8-3.6-1.5c-0.1-3.6-2.1-5.2-4.7-6.3c0.4-1.9,0.7-3.7-2.1-3.6c-0.3-2.2,1.7-2.1,1.5-4.2
			c-0.3-1.3-1.7-1.8-3.6-1.5c-0.5-1.5,0.7-1.3,0.5-2.6c-0.9-0.9-3-0.4-4.7-0.5c-2.5,1.5-2.1,5.9-4.1,7.8c-0.2,1.6,2.5,0.2,2.1,2.1
			c0.3,2.1-2.5,0.7-2.6,0c-3.4,1.3-4.2,4.2-8.3,3.6c0.5,2,0.7,4.2,0.5,6.7c1.3,1.3,3.7,1.5,4.6,3.1c3.1-0.6,5.3-1.9,6.8-4.2
			c0-0.3,0-0.5,0-0.8c0-1.3,0-2.6,0-3.8c1.3-0.5,2.3-1.2,4.2-1c-0.5,2,1.5,1.5,1,3.6c-1.3,0-2.5-0.1-3.1,0.5
			c-0.1,0.3-0.1,0.5-0.1,0.7c0,1.3,0.9,1.8,0.6,3.4c-1.3-0.1-2.5-0.1-3.1,0.5c0.1,1.3,1.2,1.8,3.1,1.5c-0.2,2.2-2.5,2.4-3.1,4.1
			c3.6,1.2,9.8,0.5,13-0.5c-0.6,1.6,0.1,1.7,0.8,2c0.4,0.2,0.8,0.4,0.7,1.1c-5.1-2.6-5.3,2.1-11.4,1.1c-0.7,0.7-0.5,2.2-0.5,3.6
			c4.6,2.4,11.4,5.1,8.3,13.5c-7.3,1.2-15.4-4-19.7,0.6c3,6.3-0.7,12.6,0.5,18.7c3.1,0.8,7.6,0.3,9.3,2.5c-1.6,1.4-3.1,2.8-3.1,5.7
			c-7.6,1.7-6.6,12.2-11.4,16.7c-9.4,3.5-11.8,13.8-17.2,21.2c4.5,4.5,2.4,14.7-0.5,19.3c0.8,1.8,2.2,3,1.6,6.2
			c1.5,2.5,4.2,3.7,6.8,5.2c3.6,8.2,7.7,18.7,16.6,19.7c3.9,0.5,5.9-2.9,9.4-3.1c3.3-0.1,4.3,2.4,7.8,2.6c5.3-1.4,10.2-6.1,15.6-5.2
			c4.5,0.8,7.6,8.6,13,4.7c1.9,3.6,1.1,10.9-0.6,14c2,6.7,7.1,10.3,8.3,17.7c9.8,6.9-1.4,17.3-0.5,26.5c0.5,4.6,4.6,8,5.2,13
			c1.1,9.6,4.1,16.7,8.8,23.9c0.1,1.5-1.8,1-1,3.1c2,8.1,10.6-0.4,15.6,1.5c5-3.1,10.8-5.5,12.5-11.9c6.7-2.5,7-11.4,10.4-17.2
			c0.9,0,1.7,0,2.6,0c1.9-2.8,2.1-8.6,0-11.4c2.4-4.9,6.8-7.8,10.9-10.9c0.2-6.5,2.8-10.6,1-15.6c-0.8-2.4-3.8-3.6-4.1-5.7
			c-1.3-8.2,9.5-10.3,10.4-19.2c1.4-0.3,2-1.5,3.1-2.1c1.7-9.1,8.1-16.2,7.3-26c-2.3,1.1-4.9,1.7-7.4,2.2c-1.8,0.3-3.5,0.6-5.1,0.9
			c-1.4-1.7,0.9-2.9,1.5-4.2c-4.2-6.5-12.9-13.5-11.4-22.3c-3.4-4.5-7.3-11.4-7.8-17.1c3.2-0.7,4.2,5,5.2,8.3
			c0.5,2.1,2.8,2.5,3.6,4.2c0.1,1.5,0.3,2.9,0.7,4.1c1.9,6.5,7.2,9.6,7.6,17.7c1.4,1.1,1.7,3.3,2.7,4.8c0.5,0.7,1.1,1.2,2,1.4
			c0.2,0,0.4,0,0.6,0c1.4-0.2,0.9-2.2,1-3.6c5.6-3.8,12.3-6.3,17.1-10.9c0-3.8,2.4-4.2,2.1-7.3c-0.3-3.3-4.7-4.5-4.7-8.3
			c2.7,0.2,6.6,2.1,9,2.6"/>
		<path fill="none" stroke="#FFFFFF" stroke-width="0.25" stroke-miterlimit="10" d="M2989.8,238.7c0.6,0.7,1.8,3.1,3.1,3.3
			c-1,2.2-1,3,0.5,4.6c2.1,0.4,3-0.5,4.7-0.5c1,0.7,1.3,2.2,2.6,2.6c4-2.4,9.4-6,7.8-10.9c1.3-0.6,2.7-3.8,3.2-5.2"/>
		<path fill="none" stroke="#FFFFFF" stroke-width="0.25" stroke-miterlimit="10" d="M2868.2,364.3c0.7,2.2,1.8,7.3,3.6,8.5
			c3.2-1.9-0.4-7.2-0.9-11c0-0.1,0.1-0.3,0.1-0.4c1.2,3.3,4,6.3,4.9,9.8c0.5,2-0.7,3.4-0.5,5.2c0.6,6.2,5.5,6.9,10.9,11
			c2.6,0.6,2.2-1.6,4.1-1.5c1.5,6.9,11.7,5.3,12,13.4c1,1.7,3.4,2.1,3.6,4.7c2.8-0.5,2.5,2,5.7,2.1c1-0.8,0.1-3.4,2.1-3.2
			c2.6,2.2,2.8,6.9,2.6,11.9c-1.9,4.8-8.3,11.6-3.6,16.7c-4,4.1,0.2,10.8,3.6,12.5c2,7.6,5,14.1,9.4,19.2c4.4,0.9,6.1,4.4,8.3,7.3
			c0.1,11,1.5,20.6,2.6,30.1c0.7,5.2-1.2,10.4-1,15.6c0.3,7.1,5.5,11.6,4.6,19.2c-0.9,0.1-2-0.2-2.1,0.5c-0.9,3.2,2,2.5,2.6,4.2
			c2.2,7.4,3.8,15.6,10.9,18.1c1.6,0.2,0.4-2.4,1.6-2.5c0.5-1.4,0.2,4.4-1.5,4.1c2.2,3.3,9.2,5.1,13.5,3.6
			c-4.6-3.3-8.8-7.1-11.4-12.5c1.5-2.3,2.8-4.8,4.1-7.2c-0.3-2.5-2.9-2.6-4.1-4.2c-0.5-2.2,2.3-1.1,3.1-2.1
			c-0.8-0.7-0.5-2.6-0.5-4.2c0.6-0.7,2.5-0.2,2.6-1.6c0.2-2.6-4.1-0.7-3.6-3.6c1.3,0.5,2.8,0.7,4.7,0.5c0.9-1.8,0-3.4,0-5.2
			c7.7,2.6,12.1-3.2,8.3-8.8c1.5,0.1,3.4-0.3,4.2,0.5c6.1-3.6,8.1-11.3,12.5-16.6c0.2-2.4-1-3.6-0.5-6.2c2-3.2,6.1-4.2,8.8-6.8
			c2.4-0.2,4.4,0.7,6.3,0c4.8-1.9,6.7-16.6,5.7-24.9c2-1.5,11.9-11.8,9.8-17.7c-2.3-6.4-16.4-13-25.9-11.9
			c-2.4-5.6-8.7-4.8-13.5-7.3c-1.8-9.3-5.6-16.5-17.7-15.6c-2.4-5.2-9.7-7.2-10.4-12.5c-3.3-0.4-5.6,0.2-6.7,2.1
			c-2-1.3-2.9-0.7-5.7-0.5c-0.9-1.9-2.9-2.6-3.6-4.7c-2.4,0-2.2,1.7-3.2-0.6c-4.3,2-8.6,3.8-9.9,8.8c-1.9-1-6.1-2.3-9.3,0
			c-5.6-4.5,3.4-20.2-9.9-16.1c1-4.3,2.8-7.9,3.6-12.4c-0.6-0.5-1.3-0.7-1.8-0.9c0.1-0.1,0.2-0.2,0.2-0.3c1.5-1.7,3.9-2.5,7.4-2.1
			c0-7.2-7.8-7.3-13.4-5.7c-0.9-1.7-3.1-3.6-5.7-5.3c1.3-2.1,3-3.6,5.3-4.4c2.5-0.2,2.6,2,4.7,2.1c1.4-0.5,1.7-2.1,1.5-4.2
			c4-0.8,4.4,0.9,7.8,0c0.5,4.4,1.4,8.4,3.1,11.4c5.8-5.2-0.8-14.1,3.1-20.2c2.9-4.4,8.3-4.4,9.9-9.9c0.3-1.7-0.3-2.4-0.5-3.6
			c3.1-2,4-6.1,5.7-9.4c3.3-1.1,4.2-4.7,7.7-5.7c0.7-2.1-1.7-1-1-3.1c1.5-3.3,6-3.7,8.3-6.2c0.7,0.8-0.5,3,1,4.1
			c3.3-2.4,7.8-3.7,10.9-6.3c0.5-2.3-0.9-2.9-2.6-3.1c0.1-1.5,2.2-0.9,2.1-2.6c-0.3-1.8-4-0.6-5.2-1.5c0.4-4.6,4.8-2.1,7.7-4.1
			c0.5-2.6-3.3-0.9-4.1-2.1c3.2-1.8,8.9-1.1,9.4-5.7c4.7-0.7,7.1-3.6,8.3-7.8c-0.2-2.7-4-1.8-3.6-5.2c-1.9,0.2-3.4-0.1-4.7-0.5
			c-1.2-5.1-2.5-10-4.2-14.6c-1.5,0.2-2.4,0.9-3.2,1.9c-0.1-0.1-0.2-0.1-0.3-0.2c-0.5,0.7-2.7-1-3.7-1.6"/>
		<path fill="none" stroke="#FFFFFF" stroke-width="0.25" stroke-miterlimit="10" d="M2948.7,291.7c-1.4-0.5,0.5-1.8,0.5-2.6
			c2,0.3,2.6-0.9,4.7-0.5C2953.6,291.1,2950.1,290.4,2948.7,291.7z"/>
		<path fill="none" stroke="#FFFFFF" stroke-width="0.25" stroke-miterlimit="10" d="M2951.3,297.9c1.2,0.2,2.1,0.6,3.1,1.1
			C2953.9,300.1,2950.6,299.7,2951.3,297.9z"/>
		<path fill="none" stroke="#FFFFFF" stroke-width="0.25" stroke-miterlimit="10" d="M2934.8,268.3c-0.6,4.9-4.8,9.2-7.5,12
			c1.3,2.8,1.6,8.6-2.6,8.8c-1.8-2.8-0.6-6.3,0-9.4c0.1-0.3-1.7-1.3-2-1.4h0"/>
		<path fill="none" stroke="#FFFFFF" stroke-width="0.25" stroke-miterlimit="10" d="M2920.6,308.9c-2.2-2-2.8,1.1-3.1,2.6
			c-0.5-1.6-1.3-2.9-1.6-4.7c1.6,0.7,1.9-0.2,4.2,0C2920,307.8,2920.7,307.9,2920.6,308.9z"/>
		<path fill="none" stroke="#FFFFFF" stroke-width="0.25" stroke-miterlimit="10" d="M2909.2,304.2c0.7-1,2.2-1.3,2.6-2.6
			c1.7,0.5,2.7,1.4,2.6,3.6c-1.8-0.4-2,0.8-3.6,0.5C2911.3,304.1,2911.3,304.1,2909.2,304.2z"/>
		<path fill="none" stroke="#FFFFFF" stroke-width="0.25" stroke-miterlimit="10" d="M2907.6,306.3c-0.9-0.4-0.1-1,0-1.6
			C2908.6,305.1,2907.7,305.6,2907.6,306.3z"/>
		<path fill="none" stroke="#FFFFFF" stroke-width="0.25" stroke-miterlimit="10" d="M2895.5,363.9c-0.1,1.2,0.7,1.4,0.6,2.6
			c-1.8-0.1-3.4-0.1-3.2,1.9c1.1,3,4.2,1.6,6.4,2.8c-4,0.5-3.4,9.8-10,8.4c-0.5-1.5-1-3.3-1.3-5c0.6-0.1,1.3-0.2,2.3-0.5
			c-0.6-3.2-1.8-4-2.9-3.7c-0.1-1.5-0.1-3,0.1-4.5C2891,366,2892.9,364.6,2895.5,363.9z"/>
		<path fill="none" stroke="#FFFFFF" stroke-width="0.25" stroke-miterlimit="10" d="M2927.9,396.6c-0.1-1.3,0.8-1.5,1-2.6
			C2930.8,394.5,2929.6,396.9,2927.9,396.6z"/>
		<path fill="none" stroke="#FFFFFF" stroke-width="0.25" stroke-miterlimit="10" d="M3218.9,357.5c0.7,1,1.7,1.9,3.1,2.3
			c2.2,0.2,2.6-1.5,4.6-1.5c-1.7,2.5-2.3,6-6.8,5.7c-1.1-1.4-1.5-3.7-1.5-6.3c0,0-0.1-0.1-0.1-0.1c-0.9-0.8-1.8,0-3,0.1
			c-0.9-3.3-3-5.3-3.2-9.4C3216.2,349.5,3216.6,354.4,3218.9,357.5z"/>
		<path fill="none" stroke="#FFFFFF" stroke-width="0.25" stroke-miterlimit="10" d="M3212.5,316.3c0,0.1,0,0.2,0.1,0.3
			c0.4,0.6,0.9,1.1,1.3,1.7c0.2,0.3,0.4,0.7,0.6,1c1.3,2,2.2,4.1,2.3,7.2c-7.9,0.3-10.9-5.7-8.3-13c-3.3-3.3-6.4-8.3-7.8-13.3
			C3204.9,305.3,3208.8,310.8,3212.5,316.3z"/>
		<path fill="none" stroke="#FFFFFF" stroke-width="0.25" stroke-miterlimit="10" d="M3169.5,319.3c2.4,3.3,6,8,11.9,6.2
			c1.8-0.1,1.7,1.8,3.1,2.1c2.2,0,3.3-1.2,5.7-1c-0.6,4.9-0.1,8.8-1,14c-10.2-0.8-20.1-1.6-25.4-8.3c-1.6,1.5-6,0.3-7.3,2
			c-0.4,2.5,0.8,3.4,0.5,5.7c-8.2-2.9-12.9-9.3-20.8-12.5c1.2-4.2-2.4-5-1-7.8c-1.5-0.6-3-1.1-4.2-2.1c-1.5,0.2-2.3,1.1-3.6,1.6
			c-6.5-0.8-12.2-1.4-18.2,0c-5.6,1.2-11.2,5.7-16.6,1c6.7-0.4,11.5-2.1,15-5.7c-1.1-8.8,6.6-8.7,7.8-15.1c4.9,1.8,8.7,0.5,12.5-1.6
			c4.2,6.5,13.7,7.8,15.6,16.7c-2.7,0.5-5.1,1.3-7.8-0.5c-0.5,1.7,0.3,3.3,1.4,4.8c0.9,1.1,2,2.2,2.7,3c1.6,0.4,1.9-0.6,3.1-0.5
			c0.2-1.8-0.2-2.9-0.5-4.2c1.6,0,2.6,1.5,3.7,0.6c0.3-1.6,1.4-2.4,3.1-2.6c0.3-1.9-1.1-2-1-3.6c1.7,0,2.5,2.5,4.1,1
			c0-0.5,0-0.9-0.1-1.3c-0.8-3.2-4.9-3.1-5.6-6.5c3.1-0.9,4.1,0.4,6.2,1.6c0.2,1.6,0.5,3.1,0.9,4.6c1.7,6.3,4.8,11.2,10.5,13.5
			c0.9,0.4,0.9-2.4,0-2.1c0.5-1.6,1.4,0.6,2.1,0.5c1.3,0.2-0.3-2.4,1.6-1.5c-0.2-0.5-0.3-1-0.5-1.4c-1-3.1-1.7-4.9-1.7-9.5
			C3169.9,310.5,3169.5,316.8,3169.5,319.3z"/>
		<path fill="none" stroke="#FFFFFF" stroke-width="0.25" stroke-miterlimit="10" d="M3107.2,278.2
			C3107.2,278.2,3107.1,278.2,3107.2,278.2c-0.3-1.3,0.8-1.1,0.4-2.6c0.1-0.1,0.3-0.1,0.4-0.1C3109,275.5,3108.3,278.4,3107.2,278.2
			z"/>
		<path fill="none" stroke="#FFFFFF" stroke-width="0.25" stroke-miterlimit="10" d="M3192.8,311.2c-5.4-1.8-10.4-4.5-18.2-2.3
			c-1-1.3-1.8-2.7-3.1-3.7c1.7-2.6,2.8-5.9,4.7-8.3c2.5-0.2,2.4,2.1,5.2,1.5c-0.6,1.5-0.2,1.8,0.5,3.2c2.3-1.1,4.6,0.1,6.8,0.5
			c0.4-2-1.1-2-2.1-2.6c0.8-1,3.7-0.1,4.7-1c-0.2,1.2,0.1,2,1,2.1c0.1,1.1-1.8,0.2-2.6,0.5c0.3,1.1,1,1.8,1.7,2.6
			c-0.7,0.1-1.5,0.2-2.2,0.5c-0.3,3.7,1.8,4.9,3.8,6.3c1.3-1,3.5-1.1,4.8-2.2c1.3,1,2.4,2.3,2.8,4.3
			C3197.7,312.6,3195.2,312,3192.8,311.2z"/>
		<path fill="none" stroke="#FFFFFF" stroke-miterlimit="10" d="M3237.1,365c5.4,17.7,8.3,36.5,8.3,56c0,77.2-45.4,143.9-111,174.6
			c-24.8,11.7-52.6,18.2-81.8,18.2c-2.3,0-4.7,0-7-0.1h0c-16.4-0.6-32.3-3.2-47.5-7.7c-9.3-2.7-18.3-6.2-27-10.2
			c-65.8-30.7-111.4-97.4-111.4-174.8c0-19.7,3-38.8,8.5-56.7c0.3-1.1,0.7-2.3,1.1-3.4c10.5-32,29.1-60.3,53.4-82.4
			c3.9-3.5,7.9-6.9,12.1-10.1v0c5.9-4.6,12.2-8.8,18.7-12.7c11.4-6.8,23.5-12.5,36.3-16.9c7.1-2.5,14.4-4.5,21.9-6.1
			c13.2-2.9,26.9-4.3,40.9-4.3c21.9,0,42.9,3.6,62.4,10.3c11.4,3.9,22.3,8.8,32.6,14.7C3190.2,277.4,3222.7,317.3,3237.1,365z"/>
		<g>
			<g>
				<path fill="none" stroke="#FFFFFF" stroke-width="1.5" stroke-miterlimit="10" d="M3093.7,284.5c0,0-0.3,0-1,0.2"/>
				<path fill="none" stroke="#FFFFFF" stroke-width="1.5" stroke-miterlimit="10" stroke-dasharray="2.0062,2.0062" d="
					M3090.7,285.2c-9.7,2.8-40.4,17-42.3,83.1"/>
				<path fill="none" stroke="#FFFFFF" stroke-width="1.5" stroke-miterlimit="10" d="M3048.4,369.3c0,0.3,0,0.7,0,1
					c0,0-0.3,0.2-0.8,0.6"/>
				<path fill="none" stroke="#FFFFFF" stroke-width="1.5" stroke-miterlimit="10" stroke-dasharray="2.0063,2.0063" d="
					M3045.9,372.1c-10,6.8-50.8,29.9-115.1,8.3"/>
				<path fill="none" stroke="#FFFFFF" stroke-width="1.5" stroke-miterlimit="10" d="M2929.8,380c-0.3-0.1-0.6-0.2-0.9-0.3"/>
			</g>
		</g>
		<text transform="matrix(1 0 0 1 2924.5405 373.6578)" fill="#FFFFFF" font-family="'Futura-Medium'" font-size="9.9712">Le marin</text>
		<text transform="matrix(1 0 0 1 3036.1838 284.519)" fill="#FFFFFF" font-family="'Futura-Medium'" font-size="9.9712">La Rochelle</text>
		<text transform="matrix(1 0 0 1 2993.8069 370.3308)" fill="#FFFFFF" font-family="'Futura-Medium'" font-size="9.9712">Las Palmas</text>
	</g>
</g>
<g id="_x30_">
</g>
<g id="Layer_1">
</g>
<g id="Logo">
</g>
</svg>
