<?xml version="1.0" encoding="utf-8"?>
<!-- Generator: Adobe Illustrator 18.1.1, SVG Export Plug-In . SVG Version: 6.00 Build 0)  -->
<svg version="1.1" xmlns="http://www.w3.org/2000/svg" xmlns:xlink="http://www.w3.org/1999/xlink" x="0px" y="0px"
	 viewBox="2308.2 345.1 151.2 151.4" enable-background="new 2308.2 345.1 151.2 151.4" xml:space="preserve">
<g id="Fond_bleu" display="none">
	<rect x="2308.2" y="345.1" display="inline" fill="#033352" width="151.2" height="151.4"/>
</g>
<g id="Calque_1">
	<g>
		<g>
			<path fill="#FFFFFF" d="M2446.7,433.5c2.8,2.1-0.5,6.9-1.2,9.6c-0.5,1.9-0.4,3-1.6,3.9c0.2,0.8-0.2,1.2-0.2,1.9
				c-1,0.9-1.6,2.4-3.5,2.4c-1.4-2.5-0.5-5.1,1-6.7c-0.7-1.3-0.4-3.9,0.6-5.3c0.9-1.3,3.3-1.5,4.1-3.1
				C2446.4,435.2,2445.6,434.5,2446.7,433.5z"/>
			<path fill="#FFFFFF" d="M2445.6,385.3c0-1.1-0.4-2-0.9-2.7c-0.1-0.1-0.1-0.2-0.2-0.4c-0.2-0.2-0.3-0.4-0.5-0.6c0,0,0-0.1,0-0.1
				c-1.4-2.1-2.9-4.1-4.5-6.1c0.5,1.9,1.7,3.8,2.9,5C2441.4,383.2,2442.6,385.5,2445.6,385.3z M2397.3,384.9c0-1.1,0.6-1.6,1.2-2.2
				c-0.7-0.8-2.3-0.6-3.5-1c-0.5-2.3,1-4.7-0.2-7.1c1.6-1.7,4.7,0.2,7.4-0.2c1.2-3.2-1.4-4.2-3.1-5.1c0-0.5-0.1-1.1,0.2-1.4
				c2.3,0.4,2.4-1.4,4.3-0.4c0-0.2-0.1-0.3-0.3-0.4l0.9-0.2c0.4,0.1,0.7-1,0.3-1l0.5-0.7c1.6,0.1,1.7-1.2,2.4-2
				c1-0.4,2.5-0.3,3.3-0.4c-0.9-1.7-1.3-4.6,1.4-4.7c0.5,1.2,0.5,1.8,0.2,2.8c-0.1,0.2-0.1,0.5-0.2,0.7c0.5,0.7,2,0.6,1.4,2
				c2,1.8,4.1-0.1,6.5,0.8c0.6-1.1,0.3-3.1,1.6-3.5c1-0.1,0.7,1,1.6,1c0-0.9-0.7-1.4-0.9-2c-1-0.6-2-1.2-3-1.8l0.3-0.6
				c16.1,9.1,28.4,24.2,33.8,42.2c-0.9-0.2-2.4-0.9-3.4-1c0,1.4,1.7,1.9,1.8,3.1c0.1,1.2-0.8,1.3-0.8,2.8c-1.8,1.7-4.4,2.7-6.5,4.1
				c0,0.6,0.2,1.3-0.4,1.4c-0.1,0-0.1,0-0.2,0c-0.3-0.1-0.6-0.3-0.7-0.5c-0.4-0.6-0.5-1.4-1-1.8c-0.1-3-2.1-4.2-2.9-6.7
				c-0.1-0.5-0.2-1-0.3-1.6c-0.3-0.7-1.2-0.8-1.4-1.6c-0.4-1.2-0.8-3.4-2-3.1c0.2,2.1,1.6,4.8,2.9,6.5c-0.6,3.3,2.7,6,4.3,8.4
				c-0.2,0.5-1.1,1-0.6,1.6c0.6-0.1,1.2-0.2,1.9-0.4c0.9-0.2,1.9-0.4,2.8-0.8c0.3,3.7-2.1,6.4-2.8,9.8c-0.4,0.2-0.7,0.7-1.2,0.8
				c-0.3,3.3-4.4,4.1-3.9,7.2c0.1,0.8,1.3,1.3,1.6,2.2c0.6,1.9-0.3,3.4-0.4,5.9c-1.5,1.2-3.2,2.3-4.1,4.1c0.8,1,0.7,3.3,0,4.3
				c-0.3,0-0.6,0-1,0c-1.3,2.2-1.4,5.5-3.9,6.5c-0.6,2.5-2.8,3.3-4.7,4.5c-1.9-0.7-5.1,2.5-5.9-0.6c-0.3-0.8,0.4-0.6,0.4-1.2
				c-1.8-2.7-2.9-5.4-3.3-9c-0.2-1.9-1.8-3.2-2-4.9c-0.3-3.5,3.9-7.4,0.2-10c-0.5-2.8-2.4-4.1-3.1-6.7c0.6-1.2,0.9-3.9,0.2-5.3
				c-2,1.5-3.2-1.5-4.9-1.8c-2-0.3-3.9,1.4-5.9,2c-1.3-0.1-1.7-1-2.9-1c-1.3,0.1-2.1,1.3-3.5,1.2c-3.4-0.4-4.9-4.3-6.3-7.4
				c-1-0.6-2-1-2.6-2c0.2-1.2-0.3-1.7-0.6-2.3c1.1-1.7,1.9-5.6,0.2-7.3c2-2.8,2.9-6.7,6.5-8C2394.8,389.5,2394.4,385.6,2397.3,384.9
				z M2398.7,383c2,1.8,4.2,0.1,6.3-0.4c2.3-0.5,4.4-0.3,6.9,0c0.5-0.2,0.8-0.5,1.4-0.6c0.4,0.4,1,0.6,1.6,0.8
				c-0.5,1.1,0.8,1.3,0.4,2.9c3,1.2,4.7,3.6,7.8,4.7c0.1-0.9-0.3-1.2-0.2-2.2c0.5-0.6,2.2-0.2,2.8-0.8c2,2.5,5.8,2.8,9.6,3.1
				c0.3-2,0.2-3.4,0.4-5.3c-0.9-0.1-1.3,0.4-2.2,0.4c-0.5-0.1-0.5-0.8-1.2-0.8c-2.3,0.7-3.6-1.1-4.5-2.3c0-1,0.2-3.3-1.4-3.3
				c0,1.7,0.2,2.4,0.6,3.6c0.1,0.2,0.1,0.3,0.2,0.5c-0.7-0.3-0.1,0.6-0.6,0.6c-0.2,0-0.6-0.8-0.8-0.2c0.3-0.1,0.3,0.9,0,0.8
				c-2.1-0.9-3.3-2.7-4-5.1c-0.1-0.6-0.3-1.1-0.3-1.7c-0.8-0.5-1.2-1-2.3-0.6c0.3,1.3,1.8,1.2,2.1,2.4c0,0.1,0.1,0.3,0,0.5
				c-0.6,0.5-0.9-0.4-1.6-0.4c0,0.6,0.5,0.6,0.4,1.4c-0.6,0.1-1.1,0.4-1.2,1c-0.4,0.4-0.8-0.2-1.4-0.2c0.1,0.5,0.3,0.9,0.2,1.6
				c-0.5,0-0.6,0.3-1.2,0.2c-0.3-0.3-0.7-0.7-1-1.1c-0.4-0.5-0.7-1.2-0.5-1.8c1,0.7,1.9,0.4,2.9,0.2c-0.7-3.3-4.3-3.8-5.9-6.3
				c-1.4,0.8-2.8,1.3-4.7,0.6c-0.5,2.4-3.4,2.4-2.9,5.7C2403,382.2,2401.2,382.8,2398.7,383z M2449.3,397.3c-0.8,0-0.9,0.6-1.8,0.6
				c-0.5-0.2-0.9-0.5-1.2-0.9c-0.9-1.2-1-3-2.6-3.5c0.1,1.5,0.9,2.3,1.2,3.5c0.4-0.1,0.8-0.3,1.1,0c0,0,0,0,0.1,0
				c0,1,0.2,1.8,0.6,2.4C2448.4,399.6,2448.7,398.3,2449.3,397.3z M2436.5,379.5c0.9,0.3,1.8,0.5,2.9,0.5c-0.2-0.7-0.5-1.2-1-1.6
				c-0.5,0.4-1.3,0.4-1.8,0.8c-0.8-0.5-1.6-1-1.5-2.4c0.3-0.1,0.5-0.2,0.8-0.2c-0.3-0.3-0.5-0.6-0.6-1c0.3-0.1,1,0.2,1-0.2
				c-0.3,0-0.5-0.3-0.4-0.8c-0.4,0.3-1.5,0-1.8,0.4c0.4,0.2,1,0.2,0.8,1c-0.8-0.2-1.7-0.6-2.6-0.2c-0.2-0.5-0.4-0.6-0.2-1.2
				c-1.1,0.2-1-0.6-2-0.6c-0.7,0.9-1.1,2.1-1.8,3.1c0.5,0.4,0.8,0.9,1.2,1.4C2432.6,377.9,2434.5,378.9,2436.5,379.5z"/>
			<path fill="#FFFFFF" d="M2407.2,352.1c4.3,1.5,8.4,3.3,12.3,5.5l-0.3,0.6c-0.3-0.2-0.7-0.4-1-0.6c0,0.1,0,0.3,0,0.4
				c-1.4,0.6-1.3,2.6-1.6,4.3c-0.8,0.5-3.5,0.4-3.9-0.8c0-0.2,0-0.4,0-0.5c0.2-0.6,1.2-0.3,1.2-1.1c-0.5-0.6-1.1-1.2-1.5-2
				c-0.2-0.3-0.3-0.7-0.4-1.2c-1.5,0.3-1.8,1.4-3.1,1.2C2407,357.8,2406.5,354,2407.2,352.1L2407.2,352.1z"/>
			<path fill="#FFFFFF" d="M2404.2,367.1C2404.2,367.1,2404.2,367.1,2404.2,367.1l-0.8,0.2c-0.3-0.1-0.6-0.2-0.3-0.8
				c-1.2,0.4-3.5,0.7-4.9,0.2c0.2-0.7,1.1-0.7,1.2-1.6c-0.7,0.1-1.1-0.1-1.2-0.6c0.2-0.2,0.7-0.2,1.2-0.2c0.1-0.6-0.2-0.8-0.2-1.3
				c0-0.1,0-0.2,0-0.3c0.2-0.2,0.7-0.2,1.2-0.2c0.2-0.8-0.6-0.6-0.4-1.4c-0.7-0.1-1.1,0.2-1.6,0.4c0,0.5,0,1,0,1.4
				c0,0.1,0,0.2,0,0.3c-0.5,0.9-1.4,1.3-2.6,1.6c-0.4-0.6-1.3-0.7-1.8-1.2c0.1-1,0-1.8-0.2-2.5c1.5,0.2,1.9-0.9,3.1-1.4
				c0,0.2,1.1,0.8,1,0c0.2-0.7-0.9-0.2-0.8-0.8c0.8-0.7,0.6-2.4,1.6-2.9c0.6,0,1.4-0.1,1.8,0.2c0.1,0.5-0.4,0.4-0.2,1
				c0.7-0.1,1.2,0.1,1.4,0.6c0,0.8-0.7,0.7-0.6,1.6c1,0,0.9,0.6,0.8,1.4c1,0.4,1.7,1,1.8,2.4c0.4,0.3,1.1,0.2,1.4,0.6
				c0.7,0.6-0.6,1,0,1.6l-0.5,0.7c0,0-0.1,0-0.1,0C2404.5,366.7,2404.1,366.6,2404.2,367.1z"/>
			<path fill="#FFFFFF" d="M2382.2,492.8c1.1-0.1,2,0.1,3,0c2-0.3,4.9-2.7,6.7-2.9c0.6-0.1,1.4,0.3,2,0.2c0.9-0.2,1.5-1.1,2.4-1.6
				c2.4-1.2,5.3-1.6,8.4-2c0.1,1,2,0.1,2,1.2c1.1-0.6,1.5,0,2.8,0.2c0.9-1.2,3.3-1.1,5.2-1c-9.4,4.4-19.9,6.9-30.9,6.9
				c-0.9,0-1.8,0-2.6,0C2381.2,493.6,2381.9,493,2382.2,492.8z"/>
			<path fill="#FFFFFF" d="M2368.1,349.8L2368.1,349.8c-0.2,0.5-0.7,1.7-1.2,2c0.6,1.9-1.5,3.2-2.9,4.1c-0.5-0.2-0.6-0.7-1-1
				c-0.6,0-1,0.3-1.8,0.2c-0.6-0.6-0.6-0.9-0.2-1.8c-0.5,0-0.9-0.9-1.2-1.2C2362.6,351.2,2365.3,350.4,2368.1,349.8z"/>
			<path fill="#FFFFFF" d="M2354.9,486c-1.2,0.2-3,0.3-3.7-0.8c0.4-0.7,0.4-1.1,0-1.8c-0.8,0.7-2.5,0.2-2.5-1c0.8-0.2,0.8,0,1.8,0
				c0.4-0.3-0.1-1.6,0.8-1.4c0.8,0,0.9,1,0.4,1.4c1.1,0.2,1.3,1.3,2.2,1.8c-0.1-1.2-0.7-1.1-0.8-2c-0.2-2.6,3.9-3.4,4.7-1.6
				c-1.2,0.3-2.4,0.5-2.4,1.9c2.9,2,5.1,4.8,8.2,6.7c0.1,0.5-0.4,1.3-0.5,1.6c-3.5-1-6.9-2.3-10.2-3.8c0.6-0.1,2.3-0.4,2.9-0.6
				c-0.1-0.4-0.6-1.5-1-1C2354.9,485.4,2355.3,486,2354.9,486z"/>
			<path fill="#FFFFFF" d="M2345.3,374.5c-0.3,0.7,1,0.8,1.2,0.4C2346.1,374.8,2345.8,374.6,2345.3,374.5z M2344.4,372.2
				c0.5-0.5,1.8-0.2,2-1.2c-0.8-0.2-1,0.3-1.8,0.2C2344.5,371.5,2343.8,372,2344.4,372.2z M2328.9,377.1c0,0.2-0.3,0.5,0,0.6
				C2328.9,377.4,2329.2,377.2,2328.9,377.1z M2332,377.9c0.1,0.7,0.4,1.2,0.6,1.8c0.1-0.6,0.3-1.7,1.2-1c0-0.4-0.2-0.4-0.2-0.8
				C2332.7,377.8,2332.6,378.2,2332,377.9z M2331.4,377.3c0-0.8-0.3-1.2-1-1.4c-0.2,0.5-0.7,0.6-1,1c0.8,0,0.8,0,0.6,0.6
				C2330.7,377.6,2330.7,377.1,2331.4,377.3z M2336.9,410.8c-0.1,0.4-0.4,0.5-0.4,1C2337.1,411.9,2337.6,411,2336.9,410.8z
				 M2322,405.4c2.5,0.5,2.3-3,3.8-3.2l0.8,0c0,0-0.1,0.1-0.1,0.1c0.2,0.1,0.4,0.2,0.7,0.3c-0.3,1.7-1,3.1-1.4,4.7
				c5-1.5,1.6,4.4,3.7,6.1c1.2-0.9,2.8-0.4,3.5,0c0.5-1.9,2.1-2.6,3.7-3.3c0.4,0.9,0.3,0.2,1.2,0.2c0.3,0.8,1,1,1.4,1.8
				c1.1-0.1,1.4-0.3,2.2,0.2c0.4-0.7,1.3-0.9,2.5-0.8c0.3,2,3,2.8,3.9,4.7c4.6-0.4,6,2.4,6.7,5.9c1.8,0.9,4.2,0.7,5.1,2.8
				c3.6-0.4,8.9,2.1,9.8,4.5c0.8,2.2-3,6.1-3.7,6.7c0.4,3.1-0.4,8.7-2.2,9.4c-0.7,0.3-1.5-0.1-2.4,0c-1,1-2.6,1.3-3.3,2.6
				c-0.2,1,0.3,1.4,0.2,2.3c-1.6,2-2.4,4.9-4.7,6.3c-0.3-0.3-1-0.2-1.6-0.2c1.4,2.1-0.2,4.3-3.1,3.3c0,0.6,0.3,1.3,0,1.9
				c-0.7,0.1-1.3,0-1.8-0.2c-0.2,1.1,1.5,0.4,1.4,1.4c0,0.5-0.7,0.3-1,0.6c0,0.6-0.1,1.3,0.2,1.6c-0.3,0.3-1.3,0-1.2,0.8
				c0.5,0.6,1.5,0.6,1.6,1.6c-0.5,0.9-1,1.9-1.6,2.7c1,2,2.6,3.4,4.3,4.7c-1.6,0.6-4.3-0.1-5.1-1.4c0.6,0.1,0.8-2.1,0.6-1.6
				c-0.5,0,0,1-0.6,1c-2.7-1-3.3-4.1-4.1-6.9c-0.2-0.6-1.3-0.4-1-1.6c0-0.3,0.5-0.2,0.8-0.2c0.3-2.9-1.6-4.6-1.8-7.3
				c-0.1-1.9,0.6-3.9,0.4-5.9c-0.4-3.6-1-7.2-1-11.4c-0.8-1.1-1.5-2.4-3.1-2.8c-1.6-1.9-2.8-4.4-3.5-7.2c-1.3-0.6-2.9-3.1-1.4-4.7
				c-1.8-1.9,0.6-4.5,1.4-6.3c0.1-1.9,0-3.7-1-4.5c-0.7-0.1-0.4,0.9-0.8,1.2c-1.2,0-1.1-1-2.2-0.8c0-1-1-1.1-1.3-1.8
				c-0.1-3.1-4-2.5-4.5-5.1c-0.7,0-0.6,0.8-1.6,0.6c-2.1-1.5-3.9-1.8-4.1-4.1c-0.1-0.7,0.4-1.2,0.2-2c-0.3-1.3-1.4-2.4-1.9-3.7
				l-0.6-0.2c4-12.1,11-22.8,20.2-31.1c0.1,0,0.8,0.4,0.7,0.5c-0.2,1.2-0.7,2.5,0,3.5c1.6-0.1,1.5-2.3,1-3.3c1-1.1,2.6-2.7,2.8-4.5
				v0c2.2-1.7,4.6-3.3,7-4.8c0.4,0.2,1.2,0.9,1.4,0.6c0,0,0.1,0,0.1,0.1c0.3-0.4,0.6-0.6,1.2-0.7c0.6,1.7,1.1,3.6,1.6,5.5
				c0.5,0.2,1,0.2,1.8,0.2c-0.2,1.3,1.3,1,1.4,2c-0.5,1.6-1.4,2.7-3.1,2.9c-0.2,1.7-2.3,1.5-3.5,2.2c0.3,0.5,1.8-0.2,1.6,0.8
				c-1.1,0.8-2.8-0.2-2.9,1.6c0.5,0.4,1.8-0.1,2,0.6c0,0.6-0.8,0.4-0.8,1c0.6,0.1,1.1,0.3,1,1.2c-1.2,1-2.9,1.5-4.1,2.4
				c-0.6-0.4-0.1-1.3-0.4-1.6c-0.9,0.9-2.6,1.1-3.1,2.3c-0.2,0.8,0.7,0.4,0.4,1.2c-1.3,0.4-1.7,1.7-2.9,2.1c-0.7,1.3-1,2.8-2.2,3.6
				c0.1,0.5,0.3,0.7,0.2,1.4c-0.6,2.1-2.6,2.1-3.7,3.7c-1.5,2.3,1,5.7-1.2,7.6c-0.7-1.2-1-2.7-1.2-4.3c-1.3,0.3-1.4-0.3-2.9,0
				c0.1,0.8-0.1,1.4-0.6,1.6c-0.8,0-0.8-0.9-1.8-0.8c-0.9,0.3-1.5,0.9-2,1.7c1,0.6,1.8,1.4,2.1,2v0.2c-1,0.3-1.7,0.8-3,0.7
				c0,0.6-0.1,1.1,0,1.7c0.4-0.1,0.9,0.2,1.1,1.4c-0.4,0.1-0.7,0.2-0.9,0.2C2321.6,404.1,2321.8,404.8,2322,405.4z"/>
			<path fill="#FFFFFF" d="M2332,400.6c0.3,1.3-1.4,1.5-2.2,1c0-0.3,0-0.6,0-1C2330.2,400.3,2331.6,400.3,2332,400.6z"/>
			<path fill="#FFFFFF" d="M2324.3,399.2c2.1-0.6,5.1-0.6,5.1,2.1c-1.3-0.1-2.2,0.2-2.8,0.8l-0.8,0c-0.8-0.5-2,0.1-2.4-1.1
				c-0.1-0.7,0.5-0.8,1.2-0.7c0-0.4-0.3-0.5-0.2-1V399.2z"/>
			<path fill="#FFFFFF" d="M2315,398.6c0.2,1.4,1.5,3.4,0.3,4.1c-0.7-0.4-1.1-2.4-1.3-3.2c0.1-0.4,0.3-0.9,0.4-1.3l0.6,0.2
				C2315,398.5,2315,398.6,2315,398.6z"/>
		</g>
		<path fill="none" stroke="#FFFFFF" stroke-width="0.25" stroke-miterlimit="10" d="M2329.9,400.6c0,0.3,0,0.6,0,1
			c0.7,0.5,2.5,0.3,2.2-1C2331.6,400.3,2330.2,400.3,2329.9,400.6z"/>
		<path fill="none" stroke="#FFFFFF" stroke-width="0.25" stroke-miterlimit="10" d="M2443.6,448.9c0-0.7,0.3-1,0.2-1.9
			c1.3-0.9,1.1-2,1.6-3.9c0.7-2.8,4.1-7.5,1.2-9.6c-1,1-0.3,1.7-0.8,2.7c-0.8,1.6-3.2,1.8-4.1,3.1c-1,1.4-1.3,4-0.6,5.3
			c-1.5,1.7-2.4,4.2-1,6.7C2442,451.3,2442.6,449.8,2443.6,448.9z"/>
		<path fill="none" stroke="#FFFFFF" stroke-width="0.25" stroke-miterlimit="10" d="M2363.1,490.9c0.2-0.2,0.6-1.1,0.5-1.6
			c-3.1-1.9-5.3-4.6-8.2-6.7c-0.1-1.5,1.2-1.7,2.4-1.9c-0.8-1.9-4.9-1.1-4.7,1.6c0,0.9,0.7,0.8,0.8,2c-0.9-0.4-1-1.6-2.2-1.8
			c0.5-0.4,0.5-1.3-0.4-1.4c-0.9-0.2-0.4,1.1-0.8,1.4c-1,0-1-0.2-1.8,0c0.1,1.2,1.7,1.6,2.5,1c0.4,0.7,0.4,1.1,0,1.8
			c0.7,1.1,2.6,1,3.7,0.8c0.4,0.1,0-0.5-0.2-0.6c0.4-0.5,0.9,0.6,1,1c-0.6,0.3-2.3,0.6-2.9,0.6"/>
		<path fill="none" stroke="#FFFFFF" stroke-width="0.25" stroke-miterlimit="10" d="M2414.5,486.9c-1.9-0.1-4.3-0.2-5.2,1
			c-1.3-0.2-1.6-0.8-2.8-0.2c0-1.1-1.9-0.2-2-1.2c-3.1,0.4-6,0.7-8.4,2c-0.9,0.5-1.5,1.4-2.4,1.6c-0.6,0.1-1.4-0.3-2-0.2
			c-1.7,0.2-4.6,2.6-6.7,2.9c-0.9,0.1-1.9-0.1-3,0c-0.2,0.1-1,0.8-1.2,0.9"/>
		<path fill="none" stroke="#FFFFFF" stroke-width="0.25" stroke-miterlimit="10" d="M2407.2,352.1c-0.7,1.9-0.2,5.7,1.5,6
			c1.3,0.2,1.7-0.8,3.1-1.2c0.1,0.4,0.2,0.8,0.4,1.2c0.4,0.8,1,1.4,1.5,2c0,0.8-1,0.5-1.2,1.1c0,0.1,0,0.3,0,0.5
			c0.4,1.2,3.1,1.2,3.9,0.8c0.2-1.7,0.2-3.8,1.6-4.3c0-0.2,0-0.3,0-0.4c0.3,0.2,0.7,0.4,1,0.6c1,0.6,2,1.2,3,1.8
			c0.2,0.6,0.9,1.1,0.9,2c-0.9,0.1-0.6-1.1-1.6-1c-1.3,0.4-0.9,2.5-1.6,3.5c-2.4-0.9-4.5,1-6.5-0.8c0.6-1.3-0.9-1.2-1.4-2
			c0.1-0.3,0.2-0.5,0.2-0.7c0.3-0.9,0.2-1.6-0.2-2.8c-2.6,0.1-2.3,3-1.4,4.7c-0.9,0.1-2.3,0-3.3,0.4c-0.7,0.8-0.8,2.1-2.4,2
			c-0.6-0.5,0.7-1,0-1.6c-0.3-0.4-1-0.3-1.4-0.6c0-1.3-0.8-2-1.8-2.4c0.2-0.7,0.3-1.4-0.8-1.4c-0.1-0.8,0.6-0.8,0.6-1.6
			c-0.1-0.5-0.6-0.7-1.4-0.6c-0.2-0.6,0.3-0.5,0.2-1c-0.3-0.3-1.1-0.2-1.8-0.2c-0.9,0.6-0.8,2.2-1.6,2.9c-0.1,0.6,1,0.1,0.8,0.8
			c0.1,0.8-0.9,0.2-1,0c-1.3,0.5-1.6,1.6-3.1,1.4c0.2,0.7,0.3,1.6,0.2,2.5c0.5,0.5,1.4,0.6,1.8,1.2c1.2-0.2,2-0.7,2.6-1.6
			c0-0.1,0-0.2,0-0.3c0-0.5,0-1,0-1.4c0.5-0.2,0.9-0.5,1.6-0.4c-0.2,0.8,0.6,0.6,0.4,1.4c-0.5,0-1,0-1.2,0.2c0,0.1,0,0.2,0,0.3
			c0,0.5,0.3,0.7,0.2,1.3c-0.5,0-1,0-1.2,0.2c0,0.5,0.5,0.7,1.2,0.6c-0.1,0.8-0.9,0.9-1.2,1.6c1.4,0.5,3.7,0.2,4.9-0.2
			c-0.2,0.6,0.1,0.7,0.3,0.8c0.2,0.1,0.3,0.2,0.3,0.4c-1.9-1-2,0.8-4.3,0.4c-0.3,0.3-0.2,0.8-0.2,1.4c1.7,0.9,4.3,1.9,3.1,5.1
			c-2.8,0.5-5.8-1.5-7.4,0.2c1.1,2.4-0.3,4.8,0.2,7.1c1.2,0.3,2.9,0.1,3.5,1c-0.6,0.5-1.2,1.1-1.2,2.2c-2.9,0.7-2.5,4.6-4.3,6.3
			c-3.5,1.3-4.5,5.2-6.5,8c1.7,1.7,0.9,5.6-0.2,7.3c0.3,0.7,0.8,1.1,0.6,2.3c0.6,0.9,1.6,1.4,2.6,2c1.4,3.1,2.9,7.1,6.3,7.4
			c1.5,0.2,2.2-1.1,3.5-1.2c1.3,0,1.6,0.9,2.9,1c2-0.5,3.9-2.3,5.9-2c1.7,0.3,2.9,3.3,4.9,1.8c0.7,1.4,0.4,4.1-0.2,5.3
			c0.8,2.5,2.7,3.9,3.1,6.7c3.7,2.6-0.5,6.5-0.2,10c0.2,1.7,1.7,3,2,4.9c0.4,3.6,1.5,6.3,3.3,9c0,0.6-0.7,0.4-0.4,1.2
			c0.8,3.1,4-0.2,5.9,0.6c1.9-1.2,4.1-2.1,4.7-4.5c2.5-1,2.6-4.3,3.9-6.5c0.3,0,0.7,0,1,0c0.7-1,0.8-3.3,0-4.3
			c0.9-1.9,2.6-2.9,4.1-4.1c0.1-2.5,1-4,0.4-5.9c-0.3-0.9-1.5-1.4-1.6-2.2c-0.5-3.1,3.6-3.9,3.9-7.2c0.5-0.1,0.7-0.6,1.2-0.8
			c0.6-3.4,3.1-6.1,2.8-9.8c-0.9,0.4-1.8,0.6-2.8,0.8c-0.7,0.1-1.3,0.2-1.9,0.4c-0.5-0.6,0.3-1.1,0.6-1.6c-1.6-2.5-4.9-5.1-4.3-8.4
			c-1.3-1.7-2.8-4.3-2.9-6.5c1.2-0.3,1.6,1.9,2,3.1c0.2,0.8,1,0.9,1.4,1.6c0,0.6,0.1,1.1,0.3,1.6c0.7,2.5,2.7,3.6,2.9,6.7
			c0.5,0.4,0.7,1.2,1,1.8c0.2,0.3,0.4,0.5,0.7,0.5c0.1,0,0.2,0,0.2,0c0.5-0.1,0.3-0.8,0.4-1.4c2.1-1.4,4.7-2.4,6.5-4.1
			c0-1.4,0.9-1.6,0.8-2.8c-0.1-1.3-1.8-1.7-1.8-3.1c1,0.1,2.5,0.8,3.4,1"/>
		<path fill="none" stroke="#FFFFFF" stroke-width="0.25" stroke-miterlimit="10" d="M2359.9,352.1c0.2,0.3,0.7,1.2,1.2,1.2
			c-0.4,0.8-0.4,1.1,0.2,1.8c0.8,0.2,1.1-0.2,1.8-0.2c0.4,0.3,0.5,0.8,1,1c1.5-0.9,3.6-2.3,2.9-4.1c0.5-0.2,1-1.4,1.2-2"/>
		<path fill="none" stroke="#FFFFFF" stroke-width="0.25" stroke-miterlimit="10" d="M2314,399.6c0.3,0.8,0.7,2.8,1.3,3.2
			c1.2-0.7-0.2-2.7-0.3-4.1c0,0,0-0.1,0-0.2c0.5,1.3,1.5,2.4,1.9,3.7c0.2,0.8-0.3,1.3-0.2,2c0.2,2.3,2.1,2.6,4.1,4.1
			c1,0.2,0.8-0.6,1.6-0.6c0.6,2.6,4.4,2,4.5,5.1c0.4,0.6,1.3,0.8,1.3,1.8c1-0.2,0.9,0.8,2.2,0.8c0.4-0.3,0-1.3,0.8-1.2
			c1,0.8,1.1,2.6,1,4.5c-0.7,1.8-3.1,4.4-1.4,6.3c-1.5,1.6,0.1,4.1,1.4,4.7c0.8,2.9,1.9,5.3,3.5,7.2c1.6,0.3,2.3,1.6,3.1,2.8
			c0,4.2,0.6,7.8,1,11.4c0.3,2-0.5,3.9-0.4,5.9c0.1,2.7,2.1,4.4,1.8,7.3c-0.3,0-0.8-0.1-0.8,0.2c-0.3,1.2,0.8,0.9,1,1.6
			c0.8,2.8,1.4,5.9,4.1,6.9c0.6,0.1,0.2-0.9,0.6-1c0.2-0.5,0.1,1.7-0.6,1.6c0.8,1.2,3.5,1.9,5.1,1.4c-1.7-1.3-3.3-2.7-4.3-4.7
			c0.6-0.9,1.1-1.8,1.6-2.7c-0.1-1-1.1-1-1.6-1.6c-0.2-0.8,0.9-0.4,1.2-0.8c-0.3-0.3-0.2-1-0.2-1.6c0.2-0.3,1-0.1,1-0.6
			c0.1-1-1.6-0.3-1.4-1.4c0.5,0.2,1,0.3,1.8,0.2c0.3-0.7,0-1.3,0-1.9c2.9,1,4.6-1.2,3.1-3.3c0.6,0,1.3-0.1,1.6,0.2
			c2.3-1.3,3.1-4.2,4.7-6.3c0.1-0.9-0.4-1.3-0.2-2.3c0.7-1.2,2.3-1.6,3.3-2.6c0.9-0.1,1.7,0.3,2.4,0c1.8-0.7,2.5-6.3,2.2-9.4
			c0.7-0.6,4.5-4.5,3.7-6.7c-0.9-2.4-6.2-4.9-9.8-4.5c-0.9-2.1-3.3-1.8-5.1-2.8c-0.7-3.5-2.1-6.2-6.7-5.9c-0.9-2-3.7-2.7-3.9-4.7
			c-1.3-0.2-2.1,0.1-2.5,0.8c-0.7-0.5-1.1-0.3-2.2-0.2c-0.4-0.7-1.1-1-1.4-1.8c-0.9,0-0.8,0.7-1.2-0.2c-1.6,0.7-3.3,1.5-3.7,3.3
			c-0.7-0.4-2.3-0.9-3.5,0c-2.1-1.7,1.3-7.6-3.7-6.1c0.4-1.6,1.1-3,1.4-4.7c-0.2-0.2-0.5-0.3-0.7-0.3c0,0,0.1-0.1,0.1-0.1
			c0.6-0.6,1.5-0.9,2.8-0.8c0-2.7-2.9-2.8-5.1-2.1c-0.3-0.6-1.2-1.4-2.1-2c0.5-0.8,1.1-1.4,2-1.7c1-0.1,1,0.7,1.8,0.8
			c0.5-0.2,0.6-0.8,0.6-1.6c1.5-0.3,1.7,0.3,2.9,0c0.2,1.6,0.5,3.2,1.2,4.3c2.2-2-0.3-5.3,1.2-7.6c1.1-1.7,3.1-1.7,3.7-3.7
			c0.1-0.6-0.1-0.9-0.2-1.4c1.2-0.7,1.5-2.3,2.2-3.6c1.3-0.4,1.6-1.8,2.9-2.1c0.3-0.8-0.6-0.4-0.4-1.2c0.6-1.3,2.3-1.4,3.1-2.3
			c0.3,0.3-0.2,1.1,0.4,1.6c1.3-0.9,2.9-1.4,4.1-2.4c0.2-0.9-0.3-1.1-1-1.2c0-0.6,0.8-0.3,0.8-1c-0.1-0.7-1.5-0.2-2-0.6
			c0.2-1.7,1.8-0.8,2.9-1.6c0.2-1-1.2-0.3-1.6-0.8c1.2-0.7,3.4-0.4,3.5-2.2c1.8-0.3,2.7-1.4,3.1-2.9c-0.1-1-1.5-0.7-1.4-2
			c-0.7,0.1-1.3,0-1.8-0.2c-0.5-1.9-1-3.8-1.6-5.5c-0.6,0.1-0.9,0.4-1.2,0.7c0,0-0.1-0.1-0.1-0.1c-0.2,0.3-1-0.4-1.4-0.6"/>
		<path fill="none" stroke="#FFFFFF" stroke-width="0.25" stroke-miterlimit="10" d="M2344.4,372.2c-0.5-0.2,0.2-0.7,0.2-1
			c0.8,0.1,1-0.4,1.8-0.2C2346.2,372,2344.9,371.7,2344.4,372.2z"/>
		<path fill="none" stroke="#FFFFFF" stroke-width="0.25" stroke-miterlimit="10" d="M2345.4,374.5c0.5,0.1,0.8,0.2,1.2,0.4
			C2346.4,375.4,2345.1,375.2,2345.4,374.5z"/>
		<path fill="none" stroke="#FFFFFF" stroke-width="0.25" stroke-miterlimit="10" d="M2339.2,363.3c-0.2,1.9-1.8,3.5-2.8,4.5
			c0.5,1.1,0.6,3.2-1,3.3c-0.7-1-0.2-2.4,0-3.5c0-0.1-0.6-0.5-0.7-0.5h0"/>
		<path fill="none" stroke="#FFFFFF" stroke-width="0.25" stroke-miterlimit="10" d="M2333.8,378.7c-0.8-0.8-1,0.4-1.2,1
			c-0.2-0.6-0.5-1.1-0.6-1.8c0.6,0.3,0.7-0.1,1.6,0C2333.6,378.2,2333.8,378.3,2333.8,378.7z"/>
		<path fill="none" stroke="#FFFFFF" stroke-width="0.25" stroke-miterlimit="10" d="M2329.5,376.9c0.3-0.4,0.8-0.5,1-1
			c0.6,0.2,1,0.5,1,1.4c-0.7-0.2-0.7,0.3-1.4,0.2C2330.3,376.9,2330.3,376.9,2329.5,376.9z"/>
		<path fill="none" stroke="#FFFFFF" stroke-width="0.25" stroke-miterlimit="10" d="M2328.9,377.7c-0.3-0.2,0-0.4,0-0.6
			C2329.2,377.2,2328.9,377.4,2328.9,377.7z"/>
		<path fill="none" stroke="#FFFFFF" stroke-width="0.25" stroke-miterlimit="10" d="M2324.3,399.4c0,0.5,0.3,0.5,0.2,1
			c-0.7,0-1.3,0-1.2,0.7c0.4,1.1,1.6,0.6,2.4,1.1c-1.5,0.2-1.3,3.7-3.8,3.2c-0.2-0.6-0.4-1.2-0.5-1.9c0.2,0,0.5-0.1,0.9-0.2
			c-0.2-1.2-0.7-1.5-1.1-1.4c0-0.6,0-1.1,0-1.7C2322.6,400.2,2323.3,399.7,2324.3,399.4z"/>
		<path fill="none" stroke="#FFFFFF" stroke-width="0.25" stroke-miterlimit="10" d="M2336.6,411.8c0-0.5,0.3-0.6,0.4-1
			C2337.7,411,2337.2,411.9,2336.6,411.8z"/>
		<path fill="none" stroke="#FFFFFF" stroke-width="0.25" stroke-miterlimit="10" d="M2446.4,397c0.3,0.4,0.6,0.7,1.2,0.9
			c0.8,0.1,1-0.6,1.8-0.6c-0.6,1-0.9,2.3-2.6,2.2c-0.4-0.5-0.6-1.4-0.6-2.4c0,0,0,0-0.1,0c-0.3-0.3-0.7,0-1.1,0
			c-0.3-1.3-1.1-2-1.2-3.5C2445.4,394,2445.6,395.9,2446.4,397z"/>
		<path fill="none" stroke="#FFFFFF" stroke-width="0.25" stroke-miterlimit="10" d="M2444,381.5c0,0,0,0.1,0,0.1
			c0.2,0.2,0.3,0.4,0.5,0.6c0.1,0.1,0.2,0.3,0.2,0.4c0.5,0.7,0.8,1.6,0.9,2.7c-3,0.1-4.1-2.2-3.1-4.9c-1.3-1.3-2.4-3.1-2.9-5
			C2441.1,377.3,2442.6,379.4,2444,381.5z"/>
		<path fill="none" stroke="#FFFFFF" stroke-width="0.25" stroke-miterlimit="10" d="M2427.8,382.6c0.9,1.3,2.3,3,4.5,2.3
			c0.7,0,0.6,0.7,1.2,0.8c0.8,0,1.3-0.5,2.2-0.4c-0.2,1.9,0,3.3-0.4,5.3c-3.8-0.3-7.6-0.6-9.6-3.1c-0.6,0.6-2.3,0.1-2.8,0.8
			c-0.2,1,0.3,1.3,0.2,2.2c-3.1-1.1-4.9-3.5-7.8-4.7c0.5-1.6-0.9-1.9-0.4-2.9c-0.6-0.2-1.1-0.4-1.6-0.8c-0.6,0.1-0.9,0.4-1.4,0.6
			c-2.5-0.3-4.6-0.5-6.9,0c-2.1,0.5-4.2,2.1-6.3,0.4c2.5-0.2,4.3-0.8,5.7-2.2c-0.4-3.3,2.5-3.3,2.9-5.7c1.9,0.7,3.3,0.2,4.7-0.6
			c1.6,2.5,5.2,2.9,5.9,6.3c-1,0.2-1.9,0.5-2.9-0.2c-0.2,0.6,0.1,1.3,0.5,1.8c0.3,0.4,0.7,0.8,1,1.1c0.6,0.2,0.7-0.2,1.2-0.2
			c0.1-0.7-0.1-1.1-0.2-1.6c0.6,0,1,0.6,1.4,0.2c0.1-0.6,0.5-0.9,1.2-1c0.1-0.7-0.4-0.8-0.4-1.4c0.6,0,1,0.9,1.6,0.4
			c0-0.2,0-0.4,0-0.5c-0.3-1.2-1.8-1.2-2.1-2.4c1.2-0.3,1.5,0.2,2.3,0.6c0.1,0.6,0.2,1.2,0.3,1.7c0.6,2.4,1.8,4.2,4,5.1
			c0.3,0.2,0.3-0.9,0-0.8c0.2-0.6,0.5,0.2,0.8,0.2c0.5,0.1-0.1-0.9,0.6-0.6c-0.1-0.2-0.1-0.4-0.2-0.5c-0.4-1.2-0.6-1.8-0.6-3.6
			C2427.9,379.3,2427.8,381.6,2427.8,382.6z"/>
		<path fill="none" stroke="#FFFFFF" stroke-width="0.25" stroke-miterlimit="10" d="M2404.3,367.1
			C2404.2,367.1,2404.2,367.1,2404.3,367.1c-0.1-0.5,0.3-0.4,0.2-1c0.1,0,0.1,0,0.1,0C2404.9,366.1,2404.7,367.2,2404.3,367.1z"/>
		<path fill="none" stroke="#FFFFFF" stroke-width="0.25" stroke-miterlimit="10" d="M2436.6,379.5c-2-0.7-3.9-1.7-6.9-0.9
			c-0.4-0.5-0.7-1-1.2-1.4c0.6-1,1-2.2,1.8-3.1c0.9-0.1,0.9,0.8,2,0.6c-0.2,0.6-0.1,0.7,0.2,1.2c0.9-0.4,1.8,0,2.6,0.2
			c0.2-0.8-0.4-0.8-0.8-1c0.3-0.4,1.4,0,1.8-0.4c-0.1,0.5,0,0.8,0.4,0.8c0,0.4-0.7,0.1-1,0.2c0.1,0.4,0.4,0.7,0.6,1
			c-0.3,0-0.6,0.1-0.8,0.2c-0.1,1.4,0.7,1.9,1.5,2.4c0.5-0.4,1.3-0.4,1.8-0.8c0.5,0.4,0.9,0.9,1,1.6
			C2438.4,380.1,2437.5,379.8,2436.6,379.5z"/>
		<path fill="none" stroke="#FFFFFF" stroke-miterlimit="10" d="M2453.3,399.9c2,6.7,3.1,13.8,3.1,21.1c0,29.2-17.1,54.3-41.9,65.9
			c-9.4,4.4-19.9,6.9-30.9,6.9c-0.9,0-1.8,0-2.6,0h0c-6.2-0.2-12.2-1.2-17.9-2.9c-3.5-1-6.9-2.3-10.2-3.8
			c-24.8-11.6-42.1-36.8-42.1-66c0-7.5,1.1-14.6,3.2-21.4c0.1-0.4,0.3-0.9,0.4-1.3c4-12.1,11-22.8,20.2-31.1c1.5-1.3,3-2.6,4.6-3.8
			v0c2.2-1.7,4.6-3.3,7-4.8c4.3-2.6,8.9-4.7,13.7-6.4c2.7-0.9,5.5-1.7,8.3-2.3c5-1.1,10.1-1.6,15.4-1.6c8.3,0,16.2,1.4,23.6,3.9
			c4.3,1.5,8.4,3.3,12.3,5.5C2435.6,366.8,2447.9,381.8,2453.3,399.9z"/>
		<g>
			<g>
				<path fill="none" stroke="#FFFFFF" stroke-width="1.5" stroke-miterlimit="10" d="M2399.1,369.5c0,0-0.4,0-1,0.2"/>
				<path fill="none" stroke="#FFFFFF" stroke-width="1.5" stroke-miterlimit="10" stroke-dasharray="1.9673,1.9673" d="
					M2396.3,370.3c-4.6,2-13.3,8.6-14.2,29.5"/>
				<path fill="none" stroke="#FFFFFF" stroke-width="1.5" stroke-miterlimit="10" d="M2382.1,400.9c0,0.3,0,0.7,0,1
					c0,0-0.3,0.2-0.8,0.6"/>
				<path fill="none" stroke="#FFFFFF" stroke-width="1.5" stroke-miterlimit="10" stroke-dasharray="1.9548,1.9548" d="
					M2379.6,403.5c-5.4,3.2-19.6,9.3-40.8,2.5"/>
				<path fill="none" stroke="#FFFFFF" stroke-width="1.5" stroke-miterlimit="10" d="M2337.9,405.7c-0.3-0.1-0.6-0.2-0.9-0.3"/>
			</g>
		</g>
		<text transform="matrix(1 0 0 1 2335.2827 403.1233)" fill="#FFFFFF" font-family="'Futura-Medium'" font-size="3.765">Le marin</text>
		<text transform="matrix(1 0 0 1 2377.438 369.4653)" fill="#FFFFFF" font-family="'Futura-Medium'" font-size="3.765">La Rochelle</text>
		<text transform="matrix(1 0 0 1 2361.437 401.8675)" fill="#FFFFFF" font-family="'Futura-Medium'" font-size="3.765">Las Palmas</text>
	</g>
</g>
<g id="_x30_">
</g>
<g id="Calque_6">
</g>
<g id="Layer_1">
</g>
<g id="Logo">
</g>
</svg>
