<?xml version="1.0" encoding="utf-8"?>
<!-- Generator: Adobe Illustrator 18.1.1, SVG Export Plug-In . SVG Version: 6.00 Build 0)  -->
<svg version="1.1" xmlns="http://www.w3.org/2000/svg" xmlns:xlink="http://www.w3.org/1999/xlink" x="0px" y="0px"
	 viewBox="-1601.8 175 466.5 462" enable-background="new -1601.8 175 466.5 462" xml:space="preserve">
<g id="Fond_bleu" display="none">
	<rect x="-1601.8" y="175" display="inline" fill="#033352" width="466.5" height="462"/>
</g>
<g id="Calque_1">
	<path fill="none" stroke="#FFFFFF" stroke-miterlimit="10" d="M-1345.4,265"/>
</g>
<g id="_x30_">
	<g>
		<g id="LWPOLYLINE_3_">
			<g id="XMLID_34_">
				<g>
					<circle fill="none" stroke="#FFFFFF" stroke-miterlimit="10" cx="-1368.2" cy="262.3" r="72.8"/>

						<line fill="none" stroke="#FFFFFF" stroke-width="0.7087" stroke-linecap="round" stroke-linejoin="round" stroke-miterlimit="10" x1="-1404.6" y1="306.5" x2="-1345.8" y2="306.5"/>

						<path fill="none" stroke="#FFFFFF" stroke-width="0.7087" stroke-linecap="round" stroke-linejoin="round" stroke-miterlimit="10" d="
						M-1345.8,306.5c0.2,0,0.4-0.2,0.4-0.4v-0.5l0-7V298c-10.2,0.6-20.5,1-30.7,1.4c-9.5,0.3-19,0.6-28.5,0.8"/>

						<line fill="none" stroke="#FFFFFF" stroke-width="0.7087" stroke-linecap="round" stroke-linejoin="round" stroke-miterlimit="10" x1="-1404.6" y1="300.2" x2="-1404.6" y2="306.5"/>

						<line fill="none" stroke="#FFFFFF" stroke-width="0.7087" stroke-linecap="round" stroke-linejoin="round" stroke-miterlimit="10" x1="-1404.6" y1="300.2" x2="-1404.6" y2="299.1"/>

						<path fill="none" stroke="#FFFFFF" stroke-width="0.7087" stroke-linecap="round" stroke-linejoin="round" stroke-miterlimit="10" d="
						M-1404.6,299.1c0.4,0,0.9,0,1.3,0c5.4,0,10.8-0.2,16.2-0.7"/>

						<path fill="none" stroke="#FFFFFF" stroke-width="0.7087" stroke-linecap="round" stroke-linejoin="round" stroke-miterlimit="10" d="
						M-1387.1,298.4c-0.2-0.7-0.4-1.5-0.8-2.2c-0.2-0.4-0.4-0.8-0.6-1.1"/>

						<line fill="none" stroke="#FFFFFF" stroke-width="0.7087" stroke-linecap="round" stroke-linejoin="round" stroke-miterlimit="10" x1="-1388.4" y1="295.1" x2="-1385.4" y2="295.1"/>

						<polyline fill="none" stroke="#FFFFFF" stroke-width="0.7087" stroke-linecap="round" stroke-linejoin="round" stroke-miterlimit="10" points="
						-1362.4,297.9 -1354.5,298 -1345.4,298 					"/>

						<path fill="none" stroke="#FFFFFF" stroke-width="0.7087" stroke-linecap="round" stroke-linejoin="round" stroke-miterlimit="10" d="
						M-1387.1,298.4c0.3,0,0.7,0,1,0c3.3,0,6.6,0,9.9-0.1c4.6-0.1,9.1-0.2,13.7-0.5"/>

						<polyline fill="none" stroke="#FFFFFF" stroke-width="0.7087" stroke-linecap="round" stroke-linejoin="round" stroke-miterlimit="10" points="
						-1387.8,296.3 -1385.4,296.2 -1385.2,296.2 -1377.9,296.8 -1376.1,296.9 -1362.4,297.9 					"/>

						<path fill="none" stroke="#FFFFFF" stroke-width="0.7087" stroke-linecap="round" stroke-linejoin="round" stroke-miterlimit="10" d="
						M-1385.4,295.1v1.2v0c0,0.8-0.2,1.5-0.6,2.2"/>

						<line fill="none" stroke="#FFFFFF" stroke-width="0.7087" stroke-linecap="round" stroke-linejoin="round" stroke-miterlimit="10" x1="-1345.4" y1="298" x2="-1323.6" y2="294.8"/>

						<polyline fill="none" stroke="#FFFFFF" stroke-width="0.7087" stroke-linecap="round" stroke-linejoin="round" stroke-miterlimit="10" points="
						-1323.5,295.4 -1323.6,295.1 -1323.6,294.8 					"/>

						<line fill="none" stroke="#FFFFFF" stroke-width="0.7087" stroke-linecap="round" stroke-linejoin="round" stroke-miterlimit="10" x1="-1345.4" y1="298.7" x2="-1323.5" y2="295.4"/>

						<polyline fill="none" stroke="#FFFFFF" stroke-width="0.7087" stroke-linecap="round" stroke-linejoin="round" stroke-miterlimit="10" points="
						-1323.5,295.4 -1345.4,305.7 -1345.6,305.7 					"/>

						<path fill="none" stroke="#FFFFFF" stroke-width="0.7087" stroke-linecap="round" stroke-linejoin="round" stroke-miterlimit="10" d="
						M-1323.6,295.1c0-0.4-0.1-0.7-0.1-1.1c-1.3-16.5-5.3-32.6-11.8-47.8c-4.4-9.9-10.3-19.1-17.5-27.1
						c-5.7-6.5-13.4-10.9-21.9-12.5"/>

						<polyline fill="none" stroke="#FFFFFF" stroke-width="0.7087" stroke-linecap="round" stroke-linejoin="round" stroke-miterlimit="10" points="
						-1374.9,206.5 -1374.5,214.1 -1372.9,243.3 -1372.6,252.6 -1371.2,293.7 -1371.1,296.4 					"/>

						<path fill="none" stroke="#FFFFFF" stroke-width="0.7087" stroke-linecap="round" stroke-linejoin="round" stroke-miterlimit="10" d="
						M-1362.4,297.9c-2.9-0.6-5.8-1.1-8.7-1.5c-0.4-0.1-0.8-0.1-1.3-0.2c-1.2-0.2-2.5-0.3-3.7-0.5c-0.6-0.1-1.1-0.1-1.7-0.2
						c-2.5-0.3-5.1-0.5-7.6-0.6"/>

						<polyline fill="none" stroke="#FFFFFF" stroke-width="0.7087" stroke-linecap="round" stroke-linejoin="round" stroke-miterlimit="10" points="
						-1372.4,296.3 -1372.5,293.5 -1372.5,292.1 -1372.6,291.1 -1373.2,275.6 -1373.4,270.9 -1374,257.7 -1374.1,254.7
						-1374.6,241.8 -1374.8,237.8 -1375.2,228.8 -1375.6,218.5 -1375.6,217.3 -1375.9,211.2 -1376,208.4 -1376.1,206.5
						-1374.9,206.5 					"/>

						<path fill="none" stroke="#FFFFFF" stroke-width="0.7087" stroke-linecap="round" stroke-linejoin="round" stroke-miterlimit="10" d="
						M-1376.1,206.5h-15.1c-1.5,3.6-2.9,7.2-4.1,10.9c-1.1,3.5-2.1,7.1-2.9,10.7c-0.3,1.2-0.5,2.4-0.7,3.5c-0.5,2.8-1,5.7-1.3,8.5
						c-0.3,2.4-0.5,4.7-0.6,7.1c-0.2,3.5-0.4,7-0.6,10.5c-0.3,6-0.5,11.9-0.7,17.9c-0.1,2.9-0.2,5.9-0.2,8.8c0,2.2-0.1,4.4-0.1,6.7
						c0,0,0,0,0,0.1"/>

						<path fill="none" stroke="#FFFFFF" stroke-width="0.7087" stroke-linecap="round" stroke-linejoin="round" stroke-miterlimit="10" d="
						M-1402.5,291.2v0.9c0,0.1,0.1,0.2,0.2,0.3l0.7,0l23.8-0.2l0.2,0l1.6,0l3.5,0"/>

						<polyline fill="none" stroke="#FFFFFF" stroke-width="0.7087" stroke-linecap="round" stroke-linejoin="round" stroke-miterlimit="10" points="
						-1372.6,291.1 -1376,291.1 -1377.6,291.1 -1381.6,291.1 -1398.7,291.1 -1401.1,291.1 -1402.5,291.1 					"/>

						<path fill="none" stroke="#FFFFFF" stroke-width="0.7087" stroke-linecap="round" stroke-linejoin="round" stroke-miterlimit="10" d="
						M-1323.7,294L-1323.7,294c-7.5,1.4-14.9,2.2-22.4,2.2c-3.1,0-6.2-0.1-9.2-0.3c-5.3-0.4-10.6-1.1-15.9-2.2
						c-0.4-0.1-0.9-0.2-1.3-0.3c-1.2-0.2-2.4-0.5-3.5-0.8c-0.5-0.1-1.1-0.3-1.6-0.4c-0.1,0-0.1,0-0.2,0c-1.3-0.3-2.5-0.7-3.8-1
						c-0.5-0.2-1.1-0.3-1.6-0.5"/>

						<path fill="none" stroke="#FFFFFF" stroke-width="0.7087" stroke-linecap="round" stroke-linejoin="round" stroke-miterlimit="10" d="
						M-1383.2,290.7c-1.3-5-2.2-10-3-15c-0.2-1.4-0.4-2.7-0.5-4.1c-0.5-4.6-0.8-9.2-0.8-13.9c0-3.6,0-7.1,0.3-10.7
						c0.1-1.1,0.2-2.2,0.2-3.4c0.1-1.1,0.2-2.3,0.4-3.4c0.5-4,1.3-7.9,2.3-11.7c0.9-3.5,2.1-6.9,3.5-10.3c0.5-1.2,1-2.3,1.5-3.4
						c1-2.2,2.1-4.3,3.3-6.4c0.4-0.6,0.7-1.3,1.1-1.9"/>

						<polyline fill="none" stroke="#FFFFFF" stroke-width="0.7087" stroke-linecap="round" stroke-linejoin="round" stroke-miterlimit="10" points="
						-1345.4,298 -1346.1,296.2 -1374.5,214.1 -1374.5,214.1 					"/>

						<polyline fill="none" stroke="#FFFFFF" stroke-width="0.7087" stroke-linecap="round" stroke-linejoin="round" stroke-miterlimit="10" points="
						-1391.2,206.5 -1379.3,214.8 -1377.5,216.1 -1376.1,217 -1375.7,217.3 					"/>

						<polyline fill="none" stroke="#FFFFFF" stroke-width="0.7087" stroke-linecap="round" stroke-linejoin="round" stroke-miterlimit="10" points="
						-1375.6,218.5 -1376.1,218.5 -1378.2,218.4 -1380.8,218.2 -1395.3,217.4 					"/>

						<polyline fill="none" stroke="#FFFFFF" stroke-width="0.7087" stroke-linecap="round" stroke-linejoin="round" stroke-miterlimit="10" points="
						-1375.2,228.8 -1376.4,228.7 -1381.4,228.6 -1384.3,228.5 -1398.2,228.2 -1398.2,228.2 					"/>

						<polyline fill="none" stroke="#FFFFFF" stroke-width="0.7087" stroke-linecap="round" stroke-linejoin="round" stroke-miterlimit="10" points="
						-1374.7,240.2 -1374.9,240.2 -1376.8,240.2 -1385.1,240.2 -1386.6,240.2 -1400.2,240.2 					"/>

						<polyline fill="none" stroke="#FFFFFF" stroke-width="0.7087" stroke-linecap="round" stroke-linejoin="round" stroke-miterlimit="10" points="
						-1374,257.7 -1375.2,257.7 -1376.3,257.7 -1376.6,257.7 -1387.5,257.7 -1390.6,257.7 -1401.4,257.8 					"/>

						<polyline fill="none" stroke="#FFFFFF" stroke-width="0.7087" stroke-linecap="round" stroke-linejoin="round" stroke-miterlimit="10" points="
						-1402.1,275.7 -1396.3,275.7 -1389.6,275.6 -1386.1,275.6 -1376.7,275.6 -1375.6,275.6 -1373.2,275.6 					"/>

						<path fill="none" stroke="#FFFFFF" stroke-width="0.7087" stroke-linecap="round" stroke-linejoin="round" stroke-miterlimit="10" d="
						M-1402.3,284.5l2.7,0.2c0.2,0,0.3,0,0.5,0.1c0.1,0,0.2,0.1,0.3,0.1c0.7,0.2,1.2,0.7,1.4,1.3c0.3,0.6,0.3,1.4,0.1,2
						c-0.4,1-0.8,2-1.4,3"/>

						<polyline fill="none" stroke="#FFFFFF" stroke-width="0.7087" stroke-linecap="round" stroke-linejoin="round" stroke-miterlimit="10" points="
						-1403.5,299.9 -1403.3,299.1 -1401.5,292.4 -1401.5,292.4 -1401.1,291.1 -1399.1,284.7 -1396.3,275.7 -1390.6,257.7
						-1387.2,247 -1385.1,240.2 -1381.4,228.6 -1378.2,218.4 -1377.5,216.1 -1375.9,211.2 					"/>

						<polyline fill="none" stroke="#FFFFFF" stroke-width="0.7087" stroke-linecap="round" stroke-linejoin="round" stroke-miterlimit="10" points="
						-1401.1,291.1 -1397.4,286.1 -1389.6,275.6 -1386.6,271.6 -1376.6,258 -1376.3,257.7 -1375.2,256.2 -1374.1,254.7
						-1372.6,252.6 -1372.6,252.6 					"/>

						<polyline fill="none" stroke="#FFFFFF" stroke-width="0.7087" stroke-linecap="round" stroke-linejoin="round" stroke-miterlimit="10" points="
						-1372.6,252.6 -1355.3,295.9 -1354.5,298 					"/>

						<polyline fill="none" stroke="#FFFFFF" stroke-width="0.7087" stroke-linecap="round" stroke-linejoin="round" stroke-miterlimit="10" points="
						-1376.2,300.3 -1376.2,299.4 -1376.2,298.4 -1376.1,296.9 -1376.1,295.8 -1376,292.6 -1376,292.2 -1376,291.1 -1375.6,275.6
						-1375.5,270.4 -1375.2,257.7 -1375.2,256.2 -1374.9,241.7 -1374.9,240.2 -1374.8,237.8 -1374.6,229.2 					"/>

						<polyline fill="none" stroke="#FFFFFF" stroke-width="0.7087" stroke-linecap="round" stroke-linejoin="round" stroke-miterlimit="10" points="
						-1377.9,297.8 -1377.9,296.8 -1377.8,295.6 -1377.6,292.2 -1377.6,292.2 -1377.6,291.1 -1376.7,275.6 -1376.4,270.2
						-1376.6,258 -1376.6,257.7 -1376.8,241.1 -1376.8,240.2 -1376.4,228.7 -1376.1,218.5 -1376.1,217 -1375.9,211.2 					"/>

						<polyline fill="none" stroke="#FFFFFF" stroke-width="0.7087" stroke-linecap="round" stroke-linejoin="round" stroke-miterlimit="10" points="
						-1376.4,270.2 -1375.5,270.4 -1373.4,270.9 -1372.8,271 					"/>

						<polyline fill="none" stroke="#FFFFFF" stroke-width="0.7087" stroke-linecap="round" stroke-linejoin="round" stroke-miterlimit="10" points="
						-1376.8,241.1 -1374.9,241.7 -1374.6,241.8 -1373.5,242.2 					"/>
				</g>
			</g>
		</g>
	</g>
	<g>
		<g id="LWPOLYLINE_119_">
			<g id="XMLID_8_">
				<g>
					<circle fill="none" stroke="#FFFFFF" stroke-miterlimit="10" cx="-1513.9" cy="498.4" r="72.8"/>
				</g>
			</g>
		</g>
	</g>
	<g>
		<g id="LWPOLYLINE_122_">
			<g id="XMLID_9_">
				<g>
					<circle fill="none" stroke="#FFFFFF" stroke-miterlimit="10" cx="-1226.3" cy="498.4" r="72.8"/>
				</g>
			</g>
		</g>
	</g>
	<path fill="none" stroke="#EE2D24" stroke-miterlimit="10" d="M-1527.2,432"/>
	<g>
		<path fill="none" stroke="#FFFFFF" stroke-width="6" stroke-linecap="round" stroke-linejoin="round" stroke-miterlimit="10" d="
			M-1538.9,376.3c8.3-43.8,34.6-81.2,70.8-104.3"/>

			<polyline fill="none" stroke="#FFFFFF" stroke-width="6" stroke-linecap="round" stroke-linejoin="round" stroke-miterlimit="10" points="
			-1495.2,271.9 -1468.1,271.9 -1468.1,297.5 		"/>
	</g>
	<g>
		<path fill="none" stroke="#FFFFFF" stroke-width="6" stroke-linecap="round" stroke-linejoin="round" stroke-miterlimit="10" d="
			M-1260.6,272c37.6,23.8,62.8,62,71,104.2"/>

			<polyline fill="none" stroke="#FFFFFF" stroke-width="6" stroke-linecap="round" stroke-linejoin="round" stroke-miterlimit="10" points="
			-1179.6,351 -1189.5,376.2 -1213.3,366.8 		"/>
	</g>
	<g>
		<path fill="none" stroke="#FFFFFF" stroke-width="6" stroke-linecap="round" stroke-linejoin="round" stroke-miterlimit="10" d="
			M-1301.2,590.4c-40.9,17.7-86.6,17.1-126.1,0.1"/>

			<polyline fill="none" stroke="#FFFFFF" stroke-width="6" stroke-linecap="round" stroke-linejoin="round" stroke-miterlimit="10" points="
			-1412.2,613 -1427.4,590.6 -1406.2,576.2 		"/>
	</g>
	<rect x="-1661.8" y="0" fill="none" width="595.3" height="841.9"/>
</g>
<g id="Calque_6">
</g>
<g id="Layer_1">
</g>
<g id="Logo">
</g>
</svg>
